26F Galaxy Sans-Black.ufo
<glyph name="exclam" format="2">
	<advance width="544"/>
	<unicode hex="0021"/>
	<outline>
		<contour>
			<point x="272" y="0" type="curve" smooth="yes"/>
			<point x="361" y="0"/>
			<point x="434" y="74"/>
			<point x="434" y="163" type="curve" smooth="yes"/>
			<point x="434" y="251"/>
			<point x="361" y="325"/>
			<point x="272" y="325" type="curve" smooth="yes"/>
			<point x="183" y="325"/>
			<point x="110" y="251"/>
			<point x="110" y="163" type="curve" smooth="yes"/>
			<point x="110" y="74"/>
			<point x="183" y="0"/>
		</contour>
		<contour>
			<point x="122" y="1250" type="curve" smooth="yes"/>
			<point x="122" y="614" type="line" smooth="yes"/>
			<point x="122" y="531"/>
			<point x="189" y="464"/>
			<point x="272" y="464" type="curve" smooth="yes"/>
			<point x="355" y="464"/>
			<point x="422" y="531"/>
			<point x="422" y="614" type="curve" smooth="yes"/>
			<point x="422" y="1250" type="line" smooth="yes"/>
			<point x="422" y="1333"/>
			<point x="355" y="1400"/>
			<point x="272" y="1400" type="curve" smooth="yes"/>
			<point x="189" y="1400"/>
			<point x="122" y="1333"/>
		</contour>
	</outline>
</glyph>
<glyph name="numbersign" format="2">
	<advance width="1625"/>
	<unicode hex="0023"/>
	<outline>
		<contour>
			<point x="1365" y="803" type="curve" smooth="yes"/>
			<point x="1448" y="803"/>
			<point x="1515" y="871"/>
			<point x="1515" y="953" type="curve" smooth="yes"/>
			<point x="1515" y="1036"/>
			<point x="1448" y="1103"/>
			<point x="1365" y="1103" type="curve" smooth="yes"/>
			<point x="1283" y="1103"/>
			<point x="1215" y="1036"/>
			<point x="1215" y="953" type="curve" smooth="yes"/>
			<point x="1215" y="871"/>
			<point x="1283" y="803"/>
		</contour>
		<contour>
			<point x="260" y="297" type="curve" smooth="yes"/>
			<point x="343" y="297"/>
			<point x="410" y="365"/>
			<point x="410" y="447" type="curve" smooth="yes"/>
			<point x="410" y="530"/>
			<point x="343" y="597"/>
			<point x="260" y="597" type="curve" smooth="yes"/>
			<point x="178" y="597"/>
			<point x="110" y="530"/>
			<point x="110" y="447" type="curve" smooth="yes"/>
			<point x="110" y="365"/>
			<point x="178" y="297"/>
		</contour>
		<contour>
			<point x="755" y="150" type="curve" smooth="yes"/>
			<point x="755" y="1250" type="line" smooth="yes"/>
			<point x="755" y="1333"/>
			<point x="688" y="1400"/>
			<point x="605" y="1400" type="curve" smooth="yes"/>
			<point x="522" y="1400"/>
			<point x="455" y="1333"/>
			<point x="455" y="1250" type="curve" smooth="yes"/>
			<point x="455" y="150" type="line" smooth="yes"/>
			<point x="455" y="67"/>
			<point x="522" y="0"/>
			<point x="605" y="0" type="curve" smooth="yes"/>
			<point x="688" y="0"/>
			<point x="755" y="67"/>
		</contour>
		<contour>
			<point x="260" y="803" type="curve" smooth="yes"/>
			<point x="343" y="803"/>
			<point x="410" y="871"/>
			<point x="410" y="953" type="curve" smooth="yes"/>
			<point x="410" y="1036"/>
			<point x="343" y="1103"/>
			<point x="260" y="1103" type="curve" smooth="yes"/>
			<point x="178" y="1103"/>
			<point x="110" y="1036"/>
			<point x="110" y="953" type="curve" smooth="yes"/>
			<point x="110" y="871"/>
			<point x="178" y="803"/>
		</contour>
		<contour>
			<point x="1365" y="297" type="curve" smooth="yes"/>
			<point x="1448" y="297"/>
			<point x="1515" y="365"/>
			<point x="1515" y="447" type="curve" smooth="yes"/>
			<point x="1515" y="530"/>
			<point x="1448" y="597"/>
			<point x="1365" y="597" type="curve" smooth="yes"/>
			<point x="1283" y="597"/>
			<point x="1215" y="530"/>
			<point x="1215" y="447" type="curve" smooth="yes"/>
			<point x="1215" y="365"/>
			<point x="1283" y="297"/>
		</contour>
		<contour>
			<point x="1171" y="150" type="curve" smooth="yes"/>
			<point x="1171" y="1250" type="line" smooth="yes"/>
			<point x="1171" y="1333"/>
			<point x="1104" y="1400"/>
			<point x="1021" y="1400" type="curve" smooth="yes"/>
			<point x="938" y="1400"/>
			<point x="871" y="1333"/>
			<point x="871" y="1250" type="curve" smooth="yes"/>
			<point x="871" y="150" type="line" smooth="yes"/>
			<point x="871" y="67"/>
			<point x="938" y="0"/>
			<point x="1021" y="0" type="curve" smooth="yes"/>
			<point x="1104" y="0"/>
			<point x="1171" y="67"/>
		</contour>
	</outline>
</glyph>
<glyph name="dollar" format="2">
	<advance width="1289"/>
	<unicode hex="0024"/>
	<outline>
		<contour>
			<point x="742" y="-233.5" type="curve"/>
			<point x="742" y="-210.5" type="line"/>
			<point x="742" y="-141.464"/>
			<point x="686.036" y="-85.5"/>
			<point x="617" y="-85.5" type="curve"/>
			<point x="547.964" y="-85.5"/>
			<point x="492" y="-141.464"/>
			<point x="492" y="-210.5" type="curve"/>
			<point x="492" y="-233.5" type="line"/>
			<point x="492" y="-302.536"/>
			<point x="547.964" y="-358.5"/>
			<point x="617" y="-358.5" type="curve"/>
			<point x="686.036" y="-358.5"/>
			<point x="742" y="-302.536"/>
		</contour>
		<component base="S"/>
		<contour>
			<point x="742" y="1610.5" type="curve"/>
			<point x="742" y="1633.5" type="line"/>
			<point x="742" y="1702.536"/>
			<point x="686.036" y="1758.5"/>
			<point x="617" y="1758.5" type="curve"/>
			<point x="547.964" y="1758.5"/>
			<point x="492" y="1702.536"/>
			<point x="492" y="1633.5" type="curve"/>
			<point x="492" y="1610.5" type="line"/>
			<point x="492" y="1541.464"/>
			<point x="547.964" y="1485.5"/>
			<point x="617" y="1485.5" type="curve"/>
			<point x="686.036" y="1485.5"/>
			<point x="742" y="1541.464"/>
		</contour>
	</outline>
</glyph>
<glyph name="percent" format="2">
	<advance width="1603"/>
	<unicode hex="0025"/>
	<outline>
		<contour>
			<point x="462" y="996" type="curve"/>
			<point x="433" y="996"/>
			<point x="410" y="1020"/>
			<point x="410" y="1048" type="curve"/>
			<point x="410" y="1076"/>
			<point x="433" y="1100"/>
			<point x="462" y="1100" type="curve"/>
			<point x="544.843" y="1100"/>
			<point x="612" y="1167.157"/>
			<point x="612" y="1250" type="curve"/>
			<point x="612" y="1332.843"/>
			<point x="544.843" y="1400"/>
			<point x="462" y="1400" type="curve"/>
			<point x="267.4" y="1400"/>
			<point x="110" y="1241.6"/>
			<point x="110" y="1048" type="curve"/>
			<point x="110" y="854.4"/>
			<point x="267.4" y="696"/>
			<point x="462" y="696" type="curve"/>
			<point x="544.843" y="696"/>
			<point x="612" y="763.157"/>
			<point x="612" y="846" type="curve"/>
			<point x="612" y="928.843"/>
			<point x="544.843" y="996"/>
		</contour>
		<contour>
			<point x="1072.53" y="1338.598" type="curve"/>
			<point x="288.259" y="238.452" type="line"/>
			<point x="270.091" y="213.64"/>
			<point x="259.365" y="183.036"/>
			<point x="259.365" y="149.927" type="curve"/>
			<point x="259.365" y="67.084"/>
			<point x="326.521" y="-0.073"/>
			<point x="409.365" y="-0.073" type="curve"/>
			<point x="459.099" y="-0.073"/>
			<point x="503.18" y="24.131"/>
			<point x="530.47" y="61.402" type="curve"/>
			<point x="1314.741" y="1161.548" type="line"/>
			<point x="1332.909" y="1186.36"/>
			<point x="1343.635" y="1216.964"/>
			<point x="1343.635" y="1250.073" type="curve"/>
			<point x="1343.635" y="1332.916"/>
			<point x="1276.479" y="1400.073"/>
			<point x="1193.635" y="1400.073" type="curve"/>
			<point x="1143.901" y="1400.073"/>
			<point x="1099.82" y="1375.869"/>
		</contour>
		<contour>
			<point x="1141" y="404" type="curve"/>
			<point x="1170" y="404"/>
			<point x="1193" y="380"/>
			<point x="1193" y="352" type="curve"/>
			<point x="1193" y="324"/>
			<point x="1170" y="300"/>
			<point x="1141" y="300" type="curve"/>
			<point x="1058.157" y="300"/>
			<point x="991" y="232.843"/>
			<point x="991" y="150" type="curve"/>
			<point x="991" y="67.157"/>
			<point x="1058.157" y="0"/>
			<point x="1141" y="0" type="curve"/>
			<point x="1335.6" y="0"/>
			<point x="1493" y="158.4"/>
			<point x="1493" y="352" type="curve"/>
			<point x="1493" y="545.6"/>
			<point x="1335.6" y="704"/>
			<point x="1141" y="704" type="curve"/>
			<point x="1058.157" y="704"/>
			<point x="991" y="636.843"/>
			<point x="991" y="554" type="curve"/>
			<point x="991" y="471.157"/>
			<point x="1058.157" y="404"/>
		</contour>
	</outline>
</glyph>
<glyph name="ampersand" format="2">
	<advance width="1250"/>
	<unicode hex="0026"/>
	<outline>
		<contour>
			<point x="556" y="300" type="curve"/>
			<point x="480" y="300" type="line"/>
			<point x="411" y="300"/>
			<point x="355" y="357"/>
			<point x="355" y="426" type="curve"/>
			<point x="355" y="495"/>
			<point x="411" y="551"/>
			<point x="480" y="551" type="curve"/>
			<point x="611" y="551" type="line"/>
			<point x="611" y="851" type="line"/>
			<point x="480" y="851" type="line"/>
			<point x="245.4" y="851"/>
			<point x="55" y="660.6"/>
			<point x="55" y="426" type="curve"/>
			<point x="55" y="191.4"/>
			<point x="245.4" y="0"/>
			<point x="480" y="0" type="curve"/>
			<point x="556" y="0" type="line"/>
			<point x="638.843" y="0"/>
			<point x="706" y="67.157"/>
			<point x="706" y="150" type="curve"/>
			<point x="706" y="232.843"/>
			<point x="638.843" y="300"/>
		</contour>
		<contour>
			<point x="1140" y="150" type="curve"/>
			<point x="1140" y="703" type="line"/>
			<point x="1140" y="785.843"/>
			<point x="1072.843" y="853"/>
			<point x="990" y="853" type="curve"/>
			<point x="907.157" y="853"/>
			<point x="840" y="785.843"/>
			<point x="840" y="703" type="curve"/>
			<point x="840" y="150" type="line"/>
			<point x="840" y="67.157"/>
			<point x="907.157" y="0"/>
			<point x="990" y="0" type="curve"/>
			<point x="1072.843" y="0"/>
			<point x="1140" y="67.157"/>
		</contour>
		<contour>
			<point x="990" y="1400" type="curve"/>
			<point x="560" y="1400" type="line"/>
			<point x="326.4" y="1400"/>
			<point x="136" y="1209.6"/>
			<point x="136" y="976" type="curve"/>
			<point x="136" y="741.4"/>
			<point x="326.4" y="551"/>
			<point x="560" y="551" type="curve"/>
			<point x="595" y="551" type="line"/>
			<point x="677.843" y="551"/>
			<point x="745" y="618.157"/>
			<point x="745" y="701" type="curve"/>
			<point x="745" y="783.843"/>
			<point x="677.843" y="851"/>
			<point x="595" y="851" type="curve"/>
			<point x="560" y="851" type="line"/>
			<point x="492" y="851"/>
			<point x="436" y="907"/>
			<point x="436" y="976" type="curve"/>
			<point x="436" y="1044"/>
			<point x="492" y="1100"/>
			<point x="560" y="1100" type="curve"/>
			<point x="990" y="1100" type="line"/>
			<point x="1072.843" y="1100"/>
			<point x="1140" y="1167.157"/>
			<point x="1140" y="1250" type="curve"/>
			<point x="1140" y="1332.843"/>
			<point x="1072.843" y="1400"/>
		</contour>
	</outline>
</glyph>
<glyph name="quotesingle" format="2">
	<advance width="600"/>
	<unicode hex="0027"/>
	<outline>
		<contour>
			<point x="150" y="1520" type="curve" smooth="yes"/>
			<point x="150" y="1245" type="line" smooth="yes"/>
			<point x="150" y="1162"/>
			<point x="217" y="1095"/>
			<point x="300" y="1095" type="curve" smooth="yes"/>
			<point x="383" y="1095"/>
			<point x="450" y="1162"/>
			<point x="450" y="1245" type="curve" smooth="yes"/>
			<point x="450" y="1520" type="line" smooth="yes"/>
			<point x="450" y="1603"/>
			<point x="383" y="1670"/>
			<point x="300" y="1670" type="curve" smooth="yes"/>
			<point x="217" y="1670"/>
			<point x="150" y="1603"/>
		</contour>
	</outline>
</glyph>
<glyph name="parenleft" format="2">
	<advance width="662"/>
	<unicode hex="0028"/>
	<outline>
		<contour>
			<point x="520.582" y="240.746" type="curve"/>
			<point x="362.421" y="447.661"/>
			<point x="362.421" y="952.339"/>
			<point x="520.74" y="1159.134" type="curve"/>
			<point x="540.066" y="1184.335"/>
			<point x="551.55" y="1215.865"/>
			<point x="551.55" y="1250.078" type="curve"/>
			<point x="551.55" y="1332.704"/>
			<point x="484.57" y="1399.683"/>
			<point x="401.945" y="1399.683" type="curve"/>
			<point x="353.074" y="1399.683"/>
			<point x="309.676" y="1376.251"/>
			<point x="282.536" y="1339.887" type="curve"/>
			<point x="38.5" y="1015.082"/>
			<point x="38.5" y="384.918"/>
			<point x="282.694" y="60.233" type="curve"/>
			<point x="309.92" y="24.083"/>
			<point x="353.203" y="0.712"/>
			<point x="401.945" y="0.712" type="curve"/>
			<point x="484.352" y="0.712"/>
			<point x="551.155" y="67.515"/>
			<point x="551.155" y="149.922" type="curve"/>
			<point x="551.155" y="184.044"/>
			<point x="539.701" y="215.491"/>
		</contour>
	</outline>
</glyph>
<glyph name="asterisk" format="2">
	<advance width="866"/>
	<unicode hex="002A"/>
	<outline>
		<contour>
			<point x="656" y="1071" type="curve" smooth="yes"/>
			<point x="711" y="1071"/>
			<point x="756" y="1116"/>
			<point x="756" y="1171" type="curve" smooth="yes"/>
			<point x="756" y="1226"/>
			<point x="711" y="1271"/>
			<point x="656" y="1271" type="curve" smooth="yes"/>
			<point x="601" y="1271"/>
			<point x="556" y="1226"/>
			<point x="556" y="1171" type="curve" smooth="yes"/>
			<point x="556" y="1116"/>
			<point x="601" y="1071"/>
		</contour>
		<contour>
			<point x="210" y="813" type="curve" smooth="yes"/>
			<point x="265" y="813"/>
			<point x="310" y="858"/>
			<point x="310" y="913" type="curve" smooth="yes"/>
			<point x="310" y="968"/>
			<point x="265" y="1013"/>
			<point x="210" y="1013" type="curve" smooth="yes"/>
			<point x="155" y="1013"/>
			<point x="110" y="968"/>
			<point x="110" y="913" type="curve" smooth="yes"/>
			<point x="110" y="858"/>
			<point x="155" y="813"/>
		</contour>
		<contour>
			<point x="432" y="685" type="curve" smooth="yes"/>
			<point x="487" y="685"/>
			<point x="532" y="730"/>
			<point x="532" y="785" type="curve" smooth="yes"/>
			<point x="532" y="840"/>
			<point x="487" y="885"/>
			<point x="432" y="885" type="curve" smooth="yes"/>
			<point x="377" y="885"/>
			<point x="332" y="840"/>
			<point x="332" y="785" type="curve" smooth="yes"/>
			<point x="332" y="730"/>
			<point x="377" y="685"/>
		</contour>
		<contour>
			<point x="151" y="1110" type="curve" smooth="yes"/>
			<point x="630" y="833" type="line" smooth="yes"/>
			<point x="642" y="825"/>
			<point x="657" y="821"/>
			<point x="672" y="821" type="curve" smooth="yes"/>
			<point x="718" y="821"/>
			<point x="755" y="858"/>
			<point x="755" y="903" type="curve" smooth="yes"/>
			<point x="755" y="933"/>
			<point x="739" y="960"/>
			<point x="715" y="974" type="curve" smooth="yes"/>
			<point x="236" y="1251" type="line" smooth="yes"/>
			<point x="224" y="1259"/>
			<point x="209" y="1263"/>
			<point x="194" y="1263" type="curve" smooth="yes"/>
			<point x="148" y="1263"/>
			<point x="111" y="1226"/>
			<point x="111" y="1181" type="curve" smooth="yes"/>
			<point x="111" y="1151"/>
			<point x="127" y="1124"/>
		</contour>
		<contour>
			<point x="433" y="1200" type="curve" smooth="yes"/>
			<point x="488" y="1200"/>
			<point x="533" y="1245"/>
			<point x="533" y="1300" type="curve" smooth="yes"/>
			<point x="533" y="1355"/>
			<point x="488" y="1400"/>
			<point x="433" y="1400" type="curve" smooth="yes"/>
			<point x="378" y="1400"/>
			<point x="333" y="1355"/>
			<point x="333" y="1300" type="curve" smooth="yes"/>
			<point x="333" y="1245"/>
			<point x="378" y="1200"/>
		</contour>
	</outline>
</glyph>
<glyph name="plus" format="2">
	<advance width="1166"/>
	<unicode hex="002B"/>
	<outline>
		<contour>
			<point x="240" y="550" type="curve"/>
			<point x="253" y="550" type="line"/>
			<point x="335.843" y="550"/>
			<point x="403" y="617.157"/>
			<point x="403" y="700" type="curve"/>
			<point x="403" y="782.843"/>
			<point x="335.843" y="850"/>
			<point x="253" y="850" type="curve"/>
			<point x="240" y="850" type="line"/>
			<point x="157.157" y="850"/>
			<point x="90" y="782.843"/>
			<point x="90" y="700" type="curve"/>
			<point x="90" y="617.157"/>
			<point x="157.157" y="550"/>
		</contour>
		<contour>
			<point x="733" y="378" type="curve"/>
			<point x="733" y="1023" type="line"/>
			<point x="733" y="1105.843"/>
			<point x="665.843" y="1173"/>
			<point x="583" y="1173" type="curve"/>
			<point x="500.157" y="1173"/>
			<point x="433" y="1105.843"/>
			<point x="433" y="1023" type="curve"/>
			<point x="433" y="378" type="line"/>
			<point x="433" y="295.157"/>
			<point x="500.157" y="228"/>
			<point x="583" y="228" type="curve"/>
			<point x="665.843" y="228"/>
			<point x="733" y="295.157"/>
		</contour>
		<contour>
			<point x="913" y="550" type="curve"/>
			<point x="926" y="550" type="line"/>
			<point x="1008.843" y="550"/>
			<point x="1076" y="617.157"/>
			<point x="1076" y="700" type="curve"/>
			<point x="1076" y="782.843"/>
			<point x="1008.843" y="850"/>
			<point x="926" y="850" type="curve"/>
			<point x="913" y="850" type="line"/>
			<point x="830.157" y="850"/>
			<point x="763" y="782.843"/>
			<point x="763" y="700" type="curve"/>
			<point x="763" y="617.157"/>
			<point x="830.157" y="550"/>
		</contour>
	</outline>
</glyph>
<glyph name="hyphen" format="2">
	<advance width="783"/>
	<unicode hex="002D"/>
	<outline>
		<contour>
			<point x="523" y="850" type="curve" smooth="yes"/>
			<point x="260" y="850" type="line" smooth="yes"/>
			<point x="177" y="850"/>
			<point x="110" y="783"/>
			<point x="110" y="700" type="curve" smooth="yes"/>
			<point x="110" y="617"/>
			<point x="177" y="550"/>
			<point x="260" y="550" type="curve" smooth="yes"/>
			<point x="523" y="550" type="line" smooth="yes"/>
			<point x="606" y="550"/>
			<point x="673" y="617"/>
			<point x="673" y="700" type="curve" smooth="yes"/>
			<point x="673" y="783"/>
			<point x="606" y="850"/>
		</contour>
	</outline>
</glyph>
<glyph name="slash" format="2">
	<advance width="884"/>
	<unicode hex="002F"/>
	<outline>
		<contour>
			<point x="260" y="0" type="curve" smooth="yes"/>
			<point x="328" y="0"/>
			<point x="385" y="45"/>
			<point x="404" y="106" type="curve" smooth="yes"/>
			<point x="767" y="1206" type="line" smooth="yes"/>
			<point x="797" y="1303"/>
			<point x="725" y="1400"/>
			<point x="624" y="1400" type="curve" smooth="yes"/>
			<point x="556" y="1400"/>
			<point x="499" y="1355"/>
			<point x="480" y="1294" type="curve" smooth="yes"/>
			<point x="117" y="194" type="line" smooth="yes"/>
			<point x="87" y="97"/>
			<point x="159" y="0"/>
		</contour>
	</outline>
</glyph>
<glyph name="zero" format="2">
	<advance width="1098"/>
	<unicode hex="0030"/>
	<outline>
		<contour>
			<point x="707" y="461" type="curve" smooth="yes"/>
			<point x="707" y="449" type="line" smooth="yes"/>
			<point x="707" y="361"/>
			<point x="636" y="290"/>
			<point x="549" y="290" type="curve" smooth="yes"/>
			<point x="462" y="290"/>
			<point x="391" y="361"/>
			<point x="391" y="449" type="curve" smooth="yes"/>
			<point x="391" y="532"/>
			<point x="324" y="599"/>
			<point x="241" y="599" type="curve" smooth="yes"/>
			<point x="158" y="599"/>
			<point x="91" y="532"/>
			<point x="91" y="449" type="curve" smooth="yes"/>
			<point x="91" y="195"/>
			<point x="296" y="-10"/>
			<point x="549" y="-10" type="curve" smooth="yes"/>
			<point x="802" y="-10"/>
			<point x="1007" y="195"/>
			<point x="1007" y="449" type="curve" smooth="yes"/>
			<point x="1007" y="461" type="line" smooth="yes"/>
			<point x="1007" y="544"/>
			<point x="940" y="611"/>
			<point x="857" y="611" type="curve" smooth="yes"/>
			<point x="774" y="611"/>
			<point x="707" y="544"/>
		</contour>
		<contour>
			<point x="569" y="865" type="curve" smooth="yes"/>
			<point x="435" y="821" type="line" smooth="yes"/>
			<point x="375" y="801"/>
			<point x="332" y="744"/>
			<point x="332" y="678" type="curve" smooth="yes"/>
			<point x="332" y="595"/>
			<point x="399" y="528"/>
			<point x="482" y="528" type="curve" smooth="yes"/>
			<point x="498" y="528"/>
			<point x="514" y="531"/>
			<point x="529" y="535" type="curve" smooth="yes"/>
			<point x="663" y="579" type="line" smooth="yes"/>
			<point x="723" y="599"/>
			<point x="766" y="656"/>
			<point x="766" y="722" type="curve" smooth="yes"/>
			<point x="766" y="805"/>
			<point x="699" y="872"/>
			<point x="616" y="872" type="curve" smooth="yes"/>
			<point x="600" y="872"/>
			<point x="584" y="869"/>
		</contour>
		<contour>
			<point x="391" y="939" type="curve" smooth="yes"/>
			<point x="391" y="951" type="line" smooth="yes"/>
			<point x="391" y="1039"/>
			<point x="462" y="1110"/>
			<point x="549" y="1110" type="curve" smooth="yes"/>
			<point x="636" y="1110"/>
			<point x="707" y="1039"/>
			<point x="707" y="951" type="curve" smooth="yes"/>
			<point x="707" y="868"/>
			<point x="774" y="801"/>
			<point x="857" y="801" type="curve" smooth="yes"/>
			<point x="940" y="801"/>
			<point x="1007" y="868"/>
			<point x="1007" y="951" type="curve" smooth="yes"/>
			<point x="1007" y="1205"/>
			<point x="802" y="1410"/>
			<point x="549" y="1410" type="curve" smooth="yes"/>
			<point x="296" y="1410"/>
			<point x="91" y="1205"/>
			<point x="91" y="951" type="curve" smooth="yes"/>
			<point x="91" y="939" type="line" smooth="yes"/>
			<point x="91" y="856"/>
			<point x="158" y="789"/>
			<point x="241" y="789" type="curve" smooth="yes"/>
			<point x="324" y="789"/>
			<point x="391" y="856"/>
		</contour>
	</outline>
</glyph>
<glyph name="one" format="2">
	<advance width="1098"/>
	<unicode hex="0031"/>
	<outline>
		<contour>
			<point x="764" y="150" type="curve"/>
			<point x="764" y="410" type="line"/>
			<point x="764" y="492.843"/>
			<point x="696.843" y="560"/>
			<point x="614" y="560" type="curve"/>
			<point x="531.157" y="560"/>
			<point x="464" y="492.843"/>
			<point x="464" y="410" type="curve"/>
			<point x="464" y="150" type="line"/>
			<point x="464" y="67.157"/>
			<point x="531.157" y="0"/>
			<point x="614" y="0" type="curve"/>
			<point x="696.843" y="0"/>
			<point x="764" y="67.157"/>
		</contour>
		<contour>
			<point x="531.082" y="1375.008" type="curve"/>
			<point x="234.082" y="1178.008" type="line"/>
			<point x="193.647" y="1151.144"/>
			<point x="167" y="1105.185"/>
			<point x="167" y="1053" type="curve"/>
			<point x="167" y="970.157"/>
			<point x="234.157" y="903"/>
			<point x="317" y="903" type="curve"/>
			<point x="347.659" y="903"/>
			<point x="376.169" y="912.198"/>
			<point x="399.918" y="927.992" type="curve"/>
			<point x="696.918" y="1124.992" type="line"/>
			<point x="737.353" y="1151.856"/>
			<point x="764" y="1197.815"/>
			<point x="764" y="1250" type="curve"/>
			<point x="764" y="1332.843"/>
			<point x="696.843" y="1400"/>
			<point x="614" y="1400" type="curve"/>
			<point x="583.341" y="1400"/>
			<point x="554.831" y="1390.802"/>
		</contour>
		<contour>
			<point x="764" y="850" type="curve"/>
			<point x="764" y="1250" type="line"/>
			<point x="764" y="1332.843"/>
			<point x="696.843" y="1400"/>
			<point x="614" y="1400" type="curve"/>
			<point x="531.157" y="1400"/>
			<point x="464" y="1332.843"/>
			<point x="464" y="1250" type="curve"/>
			<point x="464" y="850" type="line"/>
			<point x="464" y="767.157"/>
			<point x="531.157" y="700"/>
			<point x="614" y="700" type="curve"/>
			<point x="696.843" y="700"/>
			<point x="764" y="767.157"/>
		</contour>
	</outline>
</glyph>
<glyph name="two" format="2">
	<advance width="1098"/>
	<unicode hex="0032"/>
	<outline>
		<contour>
			<point x="243" y="0" type="curve"/>
			<point x="877" y="0" type="line"/>
			<point x="959.843" y="0"/>
			<point x="1027" y="67.157"/>
			<point x="1027" y="150" type="curve"/>
			<point x="1027" y="232.843"/>
			<point x="959.843" y="300"/>
			<point x="877" y="300" type="curve"/>
			<point x="243" y="300" type="line"/>
			<point x="160.157" y="300"/>
			<point x="93" y="232.843"/>
			<point x="93" y="150" type="curve"/>
			<point x="93" y="67.157"/>
			<point x="160.157" y="0"/>
		</contour>
		<contour>
			<point x="363.41" y="62.628" type="curve"/>
			<point x="670.026" y="400.137" type="line"/>
			<point x="694.241" y="426.775"/>
			<point x="709" y="462.164"/>
			<point x="709" y="501" type="curve"/>
			<point x="709" y="583.843"/>
			<point x="641.843" y="651"/>
			<point x="559" y="651" type="curve"/>
			<point x="514.993" y="651"/>
			<point x="475.412" y="632.05"/>
			<point x="447.974" y="601.863" type="curve"/>
			<point x="142.144" y="265.218" type="line"/>
			<point x="117.695" y="238.531"/>
			<point x="102.777" y="202.969"/>
			<point x="102.777" y="163.923" type="curve"/>
			<point x="102.777" y="81.079"/>
			<point x="169.933" y="13.923"/>
			<point x="252.777" y="13.923" type="curve"/>
			<point x="296.574" y="13.923"/>
			<point x="335.987" y="32.693"/>
		</contour>
		<contour>
			<point x="392" y="951" type="curve"/>
			<point x="392" y="1039"/>
			<point x="463" y="1110"/>
			<point x="550" y="1110" type="curve"/>
			<point x="637" y="1110"/>
			<point x="708" y="1039"/>
			<point x="708" y="951" type="curve"/>
			<point x="708" y="868.157"/>
			<point x="775.157" y="801"/>
			<point x="858" y="801" type="curve"/>
			<point x="940.843" y="801"/>
			<point x="1008" y="868.157"/>
			<point x="1008" y="951" type="curve"/>
			<point x="1008" y="1204.6"/>
			<point x="802.6" y="1410"/>
			<point x="550" y="1410" type="curve"/>
			<point x="297.4" y="1410"/>
			<point x="92" y="1204.6"/>
			<point x="92" y="951" type="curve"/>
			<point x="92" y="868.157"/>
			<point x="159.157" y="801"/>
			<point x="242" y="801" type="curve"/>
			<point x="324.843" y="801"/>
			<point x="392" y="868.157"/>
		</contour>
	</outline>
</glyph>
<glyph name="three" format="2">
	<advance width="1098"/>
	<unicode hex="0033"/>
	<outline>
		<contour>
			<point x="670" y="421" type="curve" smooth="yes"/>
			<point x="670" y="354"/>
			<point x="616" y="300"/>
			<point x="548" y="300" type="curve" smooth="yes"/>
			<point x="481" y="300"/>
			<point x="427" y="354"/>
			<point x="427" y="421" type="curve" smooth="yes"/>
			<point x="427" y="504"/>
			<point x="360" y="571"/>
			<point x="277" y="571" type="curve" smooth="yes"/>
			<point x="194" y="571"/>
			<point x="127" y="504"/>
			<point x="127" y="421" type="curve" smooth="yes"/>
			<point x="127" y="188"/>
			<point x="315" y="0"/>
			<point x="548" y="0" type="curve" smooth="yes"/>
			<point x="782" y="0"/>
			<point x="970" y="188"/>
			<point x="970" y="421" type="curve" smooth="yes"/>
			<point x="970" y="504"/>
			<point x="903" y="571"/>
			<point x="820" y="571" type="curve" smooth="yes"/>
			<point x="737" y="571"/>
			<point x="670" y="504"/>
		</contour>
		<contour>
			<point x="428" y="979" type="curve" smooth="yes"/>
			<point x="428" y="1046"/>
			<point x="482" y="1100"/>
			<point x="550" y="1100" type="curve" smooth="yes"/>
			<point x="617" y="1100"/>
			<point x="671" y="1046"/>
			<point x="671" y="979" type="curve" smooth="yes"/>
			<point x="671" y="912"/>
			<point x="617" y="857"/>
			<point x="550" y="857" type="curve" smooth="yes"/>
			<point x="467" y="857"/>
			<point x="400" y="790"/>
			<point x="400" y="707" type="curve" smooth="yes"/>
			<point x="400" y="624"/>
			<point x="467" y="557"/>
			<point x="550" y="557" type="curve" smooth="yes"/>
			<point x="783" y="557"/>
			<point x="971" y="746"/>
			<point x="971" y="979" type="curve" smooth="yes"/>
			<point x="971" y="1212"/>
			<point x="783" y="1400"/>
			<point x="550" y="1400" type="curve" smooth="yes"/>
			<point x="316" y="1400"/>
			<point x="128" y="1212"/>
			<point x="128" y="979" type="curve" smooth="yes"/>
			<point x="128" y="896"/>
			<point x="195" y="829"/>
			<point x="278" y="829" type="curve" smooth="yes"/>
			<point x="361" y="829"/>
			<point x="428" y="896"/>
		</contour>
	</outline>
</glyph>
<glyph name="four" format="2">
	<advance width="1098"/>
	<unicode hex="0034"/>
	<outline>
		<contour>
			<point x="517" y="550" type="curve"/>
			<point x="223" y="550" type="line"/>
			<point x="140.157" y="550"/>
			<point x="73" y="482.843"/>
			<point x="73" y="400" type="curve"/>
			<point x="73" y="317.157"/>
			<point x="140.157" y="250"/>
			<point x="223" y="250" type="curve"/>
			<point x="517" y="250" type="line"/>
			<point x="599.843" y="250"/>
			<point x="667" y="317.157"/>
			<point x="667" y="400" type="curve"/>
			<point x="667" y="482.843"/>
			<point x="599.843" y="550"/>
		</contour>
		<contour>
			<point x="727" y="1000" type="curve"/>
			<point x="727" y="150" type="line"/>
			<point x="727" y="67.157"/>
			<point x="794.157" y="0"/>
			<point x="877" y="0" type="curve"/>
			<point x="959.843" y="0"/>
			<point x="1027" y="67.157"/>
			<point x="1027" y="150" type="curve"/>
			<point x="1027" y="1000" type="line"/>
			<point x="1027" y="1082.843"/>
			<point x="959.843" y="1150"/>
			<point x="877" y="1150" type="curve"/>
			<point x="794.157" y="1150"/>
			<point x="727" y="1082.843"/>
		</contour>
		<contour>
			<point x="345.844" y="343.181" type="curve"/>
			<point x="692.412" y="1190.111" type="line"/>
			<point x="700.425" y="1208.471"/>
			<point x="704.87" y="1228.745"/>
			<point x="704.87" y="1250.057" type="curve"/>
			<point x="704.87" y="1332.901"/>
			<point x="637.713" y="1400.057"/>
			<point x="554.87" y="1400.057" type="curve"/>
			<point x="493.338" y="1400.057"/>
			<point x="440.461" y="1363.01"/>
			<point x="417.327" y="1310.003" type="curve"/>
			<point x="68.156" y="456.819" type="line"/>
			<point x="60.958" y="439.3"/>
			<point x="57" y="420.112"/>
			<point x="57" y="400" type="curve"/>
			<point x="57" y="317.157"/>
			<point x="124.157" y="250"/>
			<point x="207" y="250" type="curve"/>
			<point x="269.731" y="250"/>
			<point x="323.468" y="288.507"/>
		</contour>
	</outline>
</glyph>
<glyph name="five" format="2">
	<advance width="1098"/>
	<unicode hex="0035"/>
	<outline>
		<contour>
			<point x="550" y="638" type="curve" smooth="yes"/>
			<point x="637" y="638"/>
			<point x="708" y="567"/>
			<point x="708" y="479" type="curve" smooth="yes"/>
			<point x="708" y="449" type="line" smooth="yes"/>
			<point x="708" y="361"/>
			<point x="637" y="290"/>
			<point x="550" y="290" type="curve" smooth="yes"/>
			<point x="463" y="290"/>
			<point x="392" y="361"/>
			<point x="392" y="449" type="curve" smooth="yes"/>
			<point x="392" y="532"/>
			<point x="325" y="599"/>
			<point x="242" y="599" type="curve" smooth="yes"/>
			<point x="159" y="599"/>
			<point x="92" y="532"/>
			<point x="92" y="449" type="curve" smooth="yes"/>
			<point x="92" y="195"/>
			<point x="297" y="-10"/>
			<point x="550" y="-10" type="curve" smooth="yes"/>
			<point x="803" y="-10"/>
			<point x="1008" y="195"/>
			<point x="1008" y="449" type="curve" smooth="yes"/>
			<point x="1008" y="479" type="line" smooth="yes"/>
			<point x="1008" y="733"/>
			<point x="803" y="938"/>
			<point x="550" y="938" type="curve" smooth="yes"/>
			<point x="467" y="938"/>
			<point x="400" y="871"/>
			<point x="400" y="788" type="curve" smooth="yes"/>
			<point x="400" y="705"/>
			<point x="467" y="638"/>
		</contour>
		<contour>
			<point x="392" y="930" type="curve" smooth="yes"/>
			<point x="392" y="1238" type="line"/>
			<point x="92" y="1238" type="line"/>
			<point x="92" y="930" type="line" smooth="yes"/>
			<point x="92" y="847"/>
			<point x="159" y="780"/>
			<point x="242" y="780" type="curve" smooth="yes"/>
			<point x="325" y="780"/>
			<point x="392" y="847"/>
		</contour>
		<contour>
			<point x="242" y="1100" type="curve" smooth="yes"/>
			<point x="859" y="1100" type="line" smooth="yes"/>
			<point x="942" y="1100"/>
			<point x="1009" y="1167"/>
			<point x="1009" y="1250" type="curve" smooth="yes"/>
			<point x="1009" y="1333"/>
			<point x="942" y="1400"/>
			<point x="859" y="1400" type="curve" smooth="yes"/>
			<point x="242" y="1400" type="line" smooth="yes"/>
			<point x="159" y="1400"/>
			<point x="92" y="1333"/>
			<point x="92" y="1250" type="curve" smooth="yes"/>
			<point x="92" y="1167"/>
			<point x="159" y="1100"/>
		</contour>
	</outline>
</glyph>
<glyph name="six" format="2">
	<advance width="1098"/>
	<unicode hex="0036"/>
	<outline>
		<contour>
			<point x="543" y="290" type="curve" smooth="yes"/>
			<point x="455" y="290"/>
			<point x="383" y="362"/>
			<point x="383" y="450" type="curve" smooth="yes"/>
			<point x="383" y="538"/>
			<point x="455" y="610"/>
			<point x="543" y="610" type="curve" smooth="yes"/>
			<point x="631" y="610"/>
			<point x="703" y="538"/>
			<point x="703" y="450" type="curve" smooth="yes"/>
			<point x="703" y="362"/>
			<point x="631" y="290"/>
		</contour>
		<contour>
			<point x="543" y="-10" type="curve" smooth="yes"/>
			<point x="797" y="-10"/>
			<point x="1003" y="196"/>
			<point x="1003" y="450" type="curve" smooth="yes"/>
			<point x="1003" y="704"/>
			<point x="797" y="910"/>
			<point x="543" y="910" type="curve" smooth="yes"/>
			<point x="289" y="910"/>
			<point x="83" y="704"/>
			<point x="83" y="450" type="curve" smooth="yes"/>
			<point x="83" y="196"/>
			<point x="289" y="-10"/>
		</contour>
		<contour>
			<point x="568" y="1344" type="curve" smooth="yes"/>
			<point x="450" y="1197" type="line" smooth="yes"/>
			<point x="429" y="1171"/>
			<point x="417" y="1139"/>
			<point x="417" y="1103" type="curve" smooth="yes"/>
			<point x="417" y="1020"/>
			<point x="484" y="953"/>
			<point x="567" y="953" type="curve" smooth="yes"/>
			<point x="614" y="953"/>
			<point x="657" y="975"/>
			<point x="684" y="1009" type="curve" smooth="yes"/>
			<point x="801" y="1155" type="line" smooth="yes"/>
			<point x="822" y="1181"/>
			<point x="835" y="1214"/>
			<point x="835" y="1250" type="curve" smooth="yes"/>
			<point x="835" y="1333"/>
			<point x="767" y="1400"/>
			<point x="685" y="1400" type="curve" smooth="yes"/>
			<point x="638" y="1400"/>
			<point x="596" y="1378"/>
		</contour>
	</outline>
</glyph>
<glyph name="seven" format="2">
	<advance width="1098"/>
	<unicode hex="0037"/>
	<outline>
		<contour>
			<point x="408" y="0" type="curve" smooth="yes"/>
			<point x="468" y="0"/>
			<point x="520" y="36"/>
			<point x="544" y="87" type="curve" smooth="yes"/>
			<point x="1020" y="1188" type="line" smooth="yes"/>
			<point x="1060" y="1276"/>
			<point x="1003" y="1400"/>
			<point x="883" y="1400" type="curve" smooth="yes"/>
			<point x="823" y="1400"/>
			<point x="771" y="1364"/>
			<point x="747" y="1313" type="curve" smooth="yes"/>
			<point x="271" y="212" type="line" smooth="yes"/>
			<point x="231" y="124"/>
			<point x="288" y="0"/>
		</contour>
		<contour>
			<point x="439" y="1400" type="curve"/>
			<point x="229" y="1400" type="line"/>
			<point x="146.157" y="1400"/>
			<point x="79" y="1332.843"/>
			<point x="79" y="1250" type="curve"/>
			<point x="79" y="1167.157"/>
			<point x="146.157" y="1100"/>
			<point x="229" y="1100" type="curve"/>
			<point x="439" y="1100" type="line"/>
			<point x="521.843" y="1100"/>
			<point x="589" y="1167.157"/>
			<point x="589" y="1250" type="curve"/>
			<point x="589" y="1332.843"/>
			<point x="521.843" y="1400"/>
		</contour>
	</outline>
</glyph>
<glyph name="eight" format="2">
	<advance width="1098"/>
	<unicode hex="0038"/>
	<outline>
		<contour>
			<point x="698" y="449" type="curve" smooth="yes"/>
			<point x="698" y="358"/>
			<point x="623" y="290"/>
			<point x="540" y="290" type="curve" smooth="yes"/>
			<point x="457" y="290"/>
			<point x="390" y="223"/>
			<point x="390" y="140" type="curve" smooth="yes"/>
			<point x="390" y="57"/>
			<point x="457" y="-10"/>
			<point x="540" y="-10" type="curve" smooth="yes"/>
			<point x="786" y="-10"/>
			<point x="998" y="190"/>
			<point x="998" y="449" type="curve" smooth="yes"/>
			<point x="998" y="532"/>
			<point x="931" y="599"/>
			<point x="848" y="599" type="curve" smooth="yes"/>
			<point x="765" y="599"/>
			<point x="698" y="532"/>
		</contour>
		<contour>
			<point x="694" y="997" type="curve" smooth="yes"/>
			<point x="694" y="893"/>
			<point x="646" y="850"/>
			<point x="549" y="850" type="curve" smooth="yes"/>
			<point x="314" y="850"/>
			<point x="104" y="658"/>
			<point x="104" y="403" type="curve" smooth="yes"/>
			<point x="104" y="320"/>
			<point x="171" y="253"/>
			<point x="254" y="253" type="curve" smooth="yes"/>
			<point x="337" y="253"/>
			<point x="404" y="320"/>
			<point x="404" y="403" type="curve" smooth="yes"/>
			<point x="404" y="507"/>
			<point x="452" y="550"/>
			<point x="549" y="550" type="curve" smooth="yes"/>
			<point x="784" y="550"/>
			<point x="994" y="742"/>
			<point x="994" y="997" type="curve" smooth="yes"/>
			<point x="994" y="1080"/>
			<point x="927" y="1147"/>
			<point x="844" y="1147" type="curve" smooth="yes"/>
			<point x="761" y="1147"/>
			<point x="694" y="1080"/>
		</contour>
		<contour>
			<point x="400" y="951" type="curve" smooth="yes"/>
			<point x="400" y="1042"/>
			<point x="475" y="1110"/>
			<point x="558" y="1110" type="curve" smooth="yes"/>
			<point x="641" y="1110"/>
			<point x="708" y="1177"/>
			<point x="708" y="1260" type="curve" smooth="yes"/>
			<point x="708" y="1343"/>
			<point x="641" y="1410"/>
			<point x="558" y="1410" type="curve" smooth="yes"/>
			<point x="312" y="1410"/>
			<point x="100" y="1210"/>
			<point x="100" y="951" type="curve" smooth="yes"/>
			<point x="100" y="868"/>
			<point x="167" y="801"/>
			<point x="250" y="801" type="curve" smooth="yes"/>
			<point x="333" y="801"/>
			<point x="400" y="868"/>
		</contour>
	</outline>
</glyph>
<glyph name="nine" format="2">
	<advance width="1098"/>
	<unicode hex="0039"/>
	<outline>
		<contour>
			<point x="555" y="790" type="curve"/>
			<point x="467" y="790"/>
			<point x="395" y="862"/>
			<point x="395" y="950" type="curve"/>
			<point x="395" y="1038"/>
			<point x="467" y="1110"/>
			<point x="555" y="1110" type="curve"/>
			<point x="643" y="1110"/>
			<point x="715" y="1038"/>
			<point x="715" y="950" type="curve"/>
			<point x="715" y="862"/>
			<point x="643" y="790"/>
		</contour>
		<contour>
			<point x="555" y="490" type="curve"/>
			<point x="808.6" y="490"/>
			<point x="1015" y="696.4"/>
			<point x="1015" y="950" type="curve"/>
			<point x="1015" y="1203.6"/>
			<point x="808.6" y="1410"/>
			<point x="555" y="1410" type="curve"/>
			<point x="301.4" y="1410"/>
			<point x="95" y="1203.6"/>
			<point x="95" y="950" type="curve"/>
			<point x="95" y="696.4"/>
			<point x="301.4" y="490"/>
		</contour>
		<contour>
			<point x="530.795" y="56.77" type="curve"/>
			<point x="648.087" y="203.237" type="line"/>
			<point x="668.682" y="228.917"/>
			<point x="681" y="261.52"/>
			<point x="681" y="297" type="curve"/>
			<point x="681" y="379.843"/>
			<point x="613.843" y="447"/>
			<point x="531" y="447" type="curve"/>
			<point x="483.636" y="447"/>
			<point x="441.401" y="425.049"/>
			<point x="413.913" y="390.763" type="curve"/>
			<point x="297.974" y="245.98" type="line"/>
			<point x="276.974" y="220.171"/>
			<point x="264.385" y="187.244"/>
			<point x="264.385" y="151.376" type="curve"/>
			<point x="264.385" y="68.533"/>
			<point x="331.542" y="1.376"/>
			<point x="414.385" y="1.376" type="curve"/>
			<point x="461.36" y="1.376"/>
			<point x="503.291" y="22.969"/>
		</contour>
	</outline>
</glyph>
<glyph name="semicolon" format="2">
	<advance width="682"/>
	<unicode hex="003B"/>
	<outline>
		<contour>
			<point x="369" y="618" type="curve" smooth="yes"/>
			<point x="458" y="618"/>
			<point x="532" y="692"/>
			<point x="532" y="781" type="curve" smooth="yes"/>
			<point x="532" y="870"/>
			<point x="458" y="944"/>
			<point x="369" y="944" type="curve" smooth="yes"/>
			<point x="280" y="944"/>
			<point x="207" y="870"/>
			<point x="207" y="781" type="curve" smooth="yes"/>
			<point x="207" y="692"/>
			<point x="280" y="618"/>
		</contour>
		<component base="comma"/>
	</outline>
</glyph>
<glyph name="less" format="2">
	<advance width="1303"/>
	<unicode hex="003C"/>
	<outline>
		<contour>
			<point x="1109" y="401" type="curve" smooth="yes"/>
			<point x="832" y="530" type="line" smooth="yes"/>
			<point x="812" y="540"/>
			<point x="789" y="546"/>
			<point x="765" y="546" type="curve" smooth="yes"/>
			<point x="682" y="546"/>
			<point x="615" y="479"/>
			<point x="615" y="396" type="curve" smooth="yes"/>
			<point x="615" y="337"/>
			<point x="649" y="286"/>
			<point x="699" y="261" type="curve" smooth="yes"/>
			<point x="976" y="132" type="line" smooth="yes"/>
			<point x="996" y="122"/>
			<point x="1019" y="116"/>
			<point x="1043" y="116" type="curve" smooth="yes"/>
			<point x="1126" y="116"/>
			<point x="1193" y="183"/>
			<point x="1193" y="266" type="curve" smooth="yes"/>
			<point x="1193" y="325"/>
			<point x="1159" y="376"/>
		</contour>
		<contour>
			<point x="976" y="1267" type="curve" smooth="yes"/>
			<point x="193" y="896" type="line" smooth="yes"/>
			<point x="144" y="871"/>
			<point x="110" y="821"/>
			<point x="110" y="762" type="curve" smooth="yes"/>
			<point x="110" y="679"/>
			<point x="177" y="612"/>
			<point x="260" y="612" type="curve" smooth="yes"/>
			<point x="284" y="612"/>
			<point x="307" y="618"/>
			<point x="327" y="628" type="curve" smooth="yes"/>
			<point x="1110" y="999" type="line" smooth="yes"/>
			<point x="1159" y="1024"/>
			<point x="1193" y="1074"/>
			<point x="1193" y="1133" type="curve" smooth="yes"/>
			<point x="1193" y="1216"/>
			<point x="1126" y="1283"/>
			<point x="1043" y="1283" type="curve" smooth="yes"/>
			<point x="1019" y="1283"/>
			<point x="996" y="1277"/>
		</contour>
	</outline>
</glyph>
<glyph name="equal" format="2">
	<advance width="1166"/>
	<unicode hex="003D"/>
	<outline>
		<contour>
			<point x="926" y="605" type="curve"/>
			<point x="241" y="605" type="line"/>
			<point x="158.157" y="605"/>
			<point x="91" y="537.843"/>
			<point x="91" y="455" type="curve"/>
			<point x="91" y="372.157"/>
			<point x="158.157" y="305"/>
			<point x="241" y="305" type="curve"/>
			<point x="926" y="305" type="line"/>
			<point x="1008.843" y="305"/>
			<point x="1076" y="372.157"/>
			<point x="1076" y="455" type="curve"/>
			<point x="1076" y="537.843"/>
			<point x="1008.843" y="605"/>
		</contour>
		<contour>
			<point x="926" y="1095" type="curve"/>
			<point x="241" y="1095" type="line"/>
			<point x="158.157" y="1095"/>
			<point x="91" y="1027.843"/>
			<point x="91" y="945" type="curve"/>
			<point x="91" y="862.157"/>
			<point x="158.157" y="795"/>
			<point x="241" y="795" type="curve"/>
			<point x="926" y="795" type="line"/>
			<point x="1008.843" y="795"/>
			<point x="1076" y="862.157"/>
			<point x="1076" y="945" type="curve"/>
			<point x="1076" y="1027.843"/>
			<point x="1008.843" y="1095"/>
		</contour>
	</outline>
</glyph>
<glyph name="question" format="2">
	<advance width="1023"/>
	<unicode hex="003F"/>
	<outline>
		<contour>
			<point x="441" y="0" type="curve" smooth="yes"/>
			<point x="530" y="0"/>
			<point x="603" y="74"/>
			<point x="603" y="163" type="curve" smooth="yes"/>
			<point x="603" y="251"/>
			<point x="530" y="325"/>
			<point x="441" y="325" type="curve" smooth="yes"/>
			<point x="352" y="325"/>
			<point x="279" y="251"/>
			<point x="279" y="163" type="curve" smooth="yes"/>
			<point x="279" y="74"/>
			<point x="352" y="0"/>
		</contour>
		<contour>
			<point x="291" y="504" type="curve"/>
			<point x="291" y="497" type="line"/>
			<point x="291" y="414.157"/>
			<point x="358.157" y="347"/>
			<point x="441" y="347" type="curve"/>
			<point x="523.843" y="347"/>
			<point x="591" y="414.157"/>
			<point x="591" y="497" type="curve"/>
			<point x="591" y="504" type="line"/>
			<point x="591" y="586.843"/>
			<point x="523.843" y="654"/>
			<point x="441" y="654" type="curve"/>
			<point x="358.157" y="654"/>
			<point x="291" y="586.843"/>
		</contour>
		<contour>
			<point x="366" y="1059" type="curve"/>
			<point x="423" y="1116"/>
			<point x="513" y="1116"/>
			<point x="570" y="1059" type="curve"/>
			<point x="627" y="1001"/>
			<point x="627" y="911"/>
			<point x="570" y="854" type="curve"/>
			<point x="542.855" y="826.856"/>
			<point x="526.066" y="789.356"/>
			<point x="526.066" y="747.934" type="curve"/>
			<point x="526.066" y="665.09"/>
			<point x="593.223" y="597.934"/>
			<point x="676.066" y="597.934" type="curve"/>
			<point x="717.488" y="597.934"/>
			<point x="754.988" y="614.723"/>
			<point x="782.132" y="641.868" type="curve"/>
			<point x="955.684" y="815.42"/>
			<point x="956.204" y="1095.003"/>
			<point x="783.061" y="1270.2" type="curve"/>
			<point x="609.033" y="1445.228"/>
			<point x="328.275" y="1445.539"/>
			<point x="153.868" y="1271.132" type="curve"/>
			<point x="126.723" y="1243.988"/>
			<point x="109.934" y="1206.488"/>
			<point x="109.934" y="1165.066" type="curve"/>
			<point x="109.934" y="1082.223"/>
			<point x="177.09" y="1015.066"/>
			<point x="259.934" y="1015.066" type="curve"/>
			<point x="301.356" y="1015.066"/>
			<point x="338.856" y="1031.855"/>
		</contour>
	</outline>
</glyph>
<glyph name="at" format="2">
	<advance width="1391"/>
	<unicode hex="0040"/>
	<outline>
		<contour>
			<point x="804" y="650" type="curve"/>
			<point x="776" y="650"/>
			<point x="753" y="673"/>
			<point x="753" y="701" type="curve"/>
			<point x="753" y="729"/>
			<point x="776" y="752"/>
			<point x="804" y="752" type="curve"/>
			<point x="832" y="752"/>
			<point x="855" y="729"/>
			<point x="855" y="701" type="curve"/>
			<point x="855" y="673"/>
			<point x="832" y="650"/>
		</contour>
		<contour>
			<point x="804" y="400" type="curve"/>
			<point x="970" y="400"/>
			<point x="1105" y="535"/>
			<point x="1105" y="701" type="curve"/>
			<point x="1105" y="867"/>
			<point x="970" y="1002"/>
			<point x="804" y="1002" type="curve"/>
			<point x="638" y="1002"/>
			<point x="503" y="867"/>
			<point x="503" y="701" type="curve"/>
			<point x="503" y="535"/>
			<point x="638" y="400"/>
		</contour>
		<contour>
			<point x="1131" y="300" type="curve"/>
			<point x="805" y="300" type="line"/>
			<point x="700" y="300"/>
			<point x="597" y="339"/>
			<point x="518" y="418" type="curve"/>
			<point x="360" y="576"/>
			<point x="360" y="833"/>
			<point x="518" y="991" type="curve"/>
			<point x="652.253" y="1125.253"/>
			<point x="856.539" y="1145.431"/>
			<point x="1012.451" y="1050.911" type="curve"/>
			<point x="1035.139" y="1037.116"/>
			<point x="1061.779" y="1029.178"/>
			<point x="1090.273" y="1029.178" type="curve"/>
			<point x="1173.182" y="1029.178"/>
			<point x="1240.392" y="1096.388"/>
			<point x="1240.392" y="1179.298" type="curve"/>
			<point x="1240.392" y="1233.698"/>
			<point x="1211.456" y="1281.34"/>
			<point x="1168.083" y="1307.585" type="curve"/>
			<point x="896.692" y="1472.074"/>
			<point x="539.816" y="1437.08"/>
			<point x="305.868" y="1203.132" type="curve"/>
			<point x="30.771" y="928.035"/>
			<point x="30.771" y="480.965"/>
			<point x="305.868" y="205.868" type="curve"/>
			<point x="440.871" y="70.865"/>
			<point x="620.8" y="0"/>
			<point x="805" y="0" type="curve"/>
			<point x="1131" y="0" type="line"/>
			<point x="1213.843" y="0"/>
			<point x="1281" y="67.157"/>
			<point x="1281" y="150" type="curve"/>
			<point x="1281" y="232.843"/>
			<point x="1213.843" y="300"/>
		</contour>
	</outline>
</glyph>
<glyph name="A" format="2">
	<advance width="1566"/>
	<unicode hex="0041"/>
	<unicode hex="0061"/>
	<anchor x="783" y="0" name="bottom"/>
	<anchor x="1304" y="3" name="ogonek"/>
	<anchor x="783" y="1400" name="top"/>
	<outline>
		<contour>
			<point x="385" y="84" type="curve" smooth="yes"/>
			<point x="589" y="522" type="line" smooth="yes"/>
			<point x="599" y="542"/>
			<point x="605" y="565"/>
			<point x="605" y="589" type="curve" smooth="yes"/>
			<point x="605" y="672"/>
			<point x="538" y="739"/>
			<point x="455" y="739" type="curve" smooth="yes"/>
			<point x="396" y="739"/>
			<point x="345" y="705"/>
			<point x="320" y="655" type="curve" smooth="yes"/>
			<point x="116" y="217" type="line" smooth="yes"/>
			<point x="106" y="197"/>
			<point x="100" y="174"/>
			<point x="100" y="150" type="curve" smooth="yes"/>
			<point x="100" y="67"/>
			<point x="167" y="0"/>
			<point x="250" y="0" type="curve" smooth="yes"/>
			<point x="309" y="0"/>
			<point x="360" y="34"/>
		</contour>
		<contour>
			<point x="1451" y="217" type="curve" smooth="yes"/>
			<point x="939" y="1316" type="line"/>
			<point x="914" y="1365"/>
			<point x="863" y="1400"/>
			<point x="804" y="1400" type="curve" smooth="yes"/>
			<point x="721" y="1400"/>
			<point x="654" y="1332"/>
			<point x="654" y="1250" type="curve" smooth="yes"/>
			<point x="654" y="1226"/>
			<point x="660" y="1203"/>
			<point x="669" y="1183" type="curve" smooth="yes"/>
			<point x="1181" y="84" type="line"/>
			<point x="1206" y="35"/>
			<point x="1257" y="0"/>
			<point x="1316" y="0" type="curve" smooth="yes"/>
			<point x="1399" y="0"/>
			<point x="1466" y="68"/>
			<point x="1466" y="150" type="curve" smooth="yes"/>
			<point x="1466" y="174"/>
			<point x="1460" y="197"/>
		</contour>
	</outline>
</glyph>
<glyph name="B" format="2">
	<advance width="1280"/>
	<unicode hex="0042"/>
	<unicode hex="0062"/>
	<anchor x="630" y="0" name="bottom"/>
	<anchor x="630" y="700" name="center"/>
	<anchor x="630" y="1400" name="top"/>
	<outline>
		<contour>
			<point x="410" y="150" type="curve" smooth="yes"/>
			<point x="410" y="785" type="line" smooth="yes"/>
			<point x="410" y="868"/>
			<point x="343" y="935"/>
			<point x="260" y="935" type="curve" smooth="yes"/>
			<point x="177" y="935"/>
			<point x="110" y="868"/>
			<point x="110" y="785" type="curve" smooth="yes"/>
			<point x="110" y="150" type="line" smooth="yes"/>
			<point x="110" y="67"/>
			<point x="177" y="0"/>
			<point x="260" y="0" type="curve" smooth="yes"/>
			<point x="343" y="0"/>
			<point x="410" y="67"/>
		</contour>
		<contour>
			<point x="669" y="551" type="line"/>
			<point x="800" y="551" type="line" smooth="yes"/>
			<point x="869" y="551"/>
			<point x="925" y="495"/>
			<point x="925" y="426" type="curve" smooth="yes"/>
			<point x="925" y="357"/>
			<point x="869" y="300"/>
			<point x="800" y="300" type="curve" smooth="yes"/>
			<point x="724" y="300" type="line" smooth="yes"/>
			<point x="641" y="300"/>
			<point x="574" y="233"/>
			<point x="574" y="150" type="curve" smooth="yes"/>
			<point x="574" y="67"/>
			<point x="641" y="0"/>
			<point x="724" y="0" type="curve" smooth="yes"/>
			<point x="800" y="0" type="line" smooth="yes"/>
			<point x="1035" y="0"/>
			<point x="1225" y="191"/>
			<point x="1225" y="426" type="curve" smooth="yes"/>
			<point x="1225" y="661"/>
			<point x="1035" y="851"/>
			<point x="800" y="851" type="curve" smooth="yes"/>
			<point x="669" y="851" type="line"/>
		</contour>
		<contour>
			<point x="685" y="551" type="curve" smooth="yes"/>
			<point x="720" y="551" type="line" smooth="yes"/>
			<point x="954" y="551"/>
			<point x="1144" y="741"/>
			<point x="1144" y="976" type="curve" smooth="yes"/>
			<point x="1144" y="1210"/>
			<point x="954" y="1400"/>
			<point x="720" y="1400" type="curve" smooth="yes"/>
			<point x="260" y="1400" type="line" smooth="yes"/>
			<point x="177" y="1400"/>
			<point x="110" y="1333"/>
			<point x="110" y="1250" type="curve" smooth="yes"/>
			<point x="110" y="1167"/>
			<point x="177" y="1100"/>
			<point x="260" y="1100" type="curve" smooth="yes"/>
			<point x="720" y="1100" type="line" smooth="yes"/>
			<point x="788" y="1100"/>
			<point x="844" y="1044"/>
			<point x="844" y="976" type="curve" smooth="yes"/>
			<point x="844" y="907"/>
			<point x="788" y="851"/>
			<point x="720" y="851" type="curve" smooth="yes"/>
			<point x="685" y="851" type="line" smooth="yes"/>
			<point x="602" y="851"/>
			<point x="535" y="784"/>
			<point x="535" y="701" type="curve" smooth="yes"/>
			<point x="535" y="618"/>
			<point x="602" y="551"/>
		</contour>
	</outline>
</glyph>
<glyph name="C" format="2">
	<advance width="1270"/>
	<unicode hex="0043"/>
	<unicode hex="0063"/>
	<anchor x="631" y="0" name="bottom"/>
	<anchor x="731" y="1400" name="top"/>
	<outline>
		<contour>
			<point x="807" y="0" type="curve" smooth="yes"/>
			<point x="1056" y="0" type="line" smooth="yes"/>
			<point x="1139" y="0"/>
			<point x="1206" y="67"/>
			<point x="1206" y="150" type="curve" smooth="yes"/>
			<point x="1206" y="233"/>
			<point x="1139" y="300"/>
			<point x="1056" y="300" type="curve" smooth="yes"/>
			<point x="807" y="300" type="line" smooth="yes"/>
			<point x="582" y="300"/>
			<point x="400" y="483"/>
			<point x="400" y="708" type="curve" smooth="yes"/>
			<point x="400" y="899"/>
			<point x="532" y="1060"/>
			<point x="709" y="1104" type="curve" smooth="yes"/>
			<point x="775" y="1120"/>
			<point x="823" y="1179"/>
			<point x="823" y="1250" type="curve" smooth="yes"/>
			<point x="823" y="1347"/>
			<point x="731" y="1420"/>
			<point x="637" y="1396" type="curve" smooth="yes"/>
			<point x="329" y="1319"/>
			<point x="100" y="1040"/>
			<point x="100" y="708" type="curve" smooth="yes"/>
			<point x="100" y="317"/>
			<point x="416" y="0"/>
		</contour>
		<contour>
			<point x="1056" y="1100" type="curve" smooth="yes"/>
			<point x="1139" y="1100"/>
			<point x="1206" y="1167"/>
			<point x="1206" y="1250" type="curve" smooth="yes"/>
			<point x="1206" y="1333"/>
			<point x="1139" y="1400"/>
			<point x="1056" y="1400" type="curve" smooth="yes"/>
			<point x="973" y="1400"/>
			<point x="906" y="1333"/>
			<point x="906" y="1250" type="curve" smooth="yes"/>
			<point x="906" y="1167"/>
			<point x="973" y="1100"/>
		</contour>
	</outline>
</glyph>
<glyph name="D" format="2">
	<advance width="1505"/>
	<unicode hex="0044"/>
	<unicode hex="0064"/>
	<anchor x="743" y="0" name="bottom"/>
	<anchor x="743" y="700" name="center"/>
	<anchor x="713" y="1400" name="top"/>
	<outline>
		<contour>
			<point x="125" y="656" type="curve" smooth="yes"/>
			<point x="125" y="150" type="line" smooth="yes"/>
			<point x="125" y="67"/>
			<point x="192" y="0"/>
			<point x="275" y="0" type="curve" smooth="yes"/>
			<point x="358" y="0"/>
			<point x="425" y="67"/>
			<point x="425" y="150" type="curve" smooth="yes"/>
			<point x="425" y="656" type="line" smooth="yes"/>
			<point x="425" y="739"/>
			<point x="358" y="806"/>
			<point x="275" y="806" type="curve" smooth="yes"/>
			<point x="192" y="806"/>
			<point x="125" y="739"/>
		</contour>
		<contour>
			<point x="705" y="0" type="curve" smooth="yes"/>
			<point x="1091" y="0"/>
			<point x="1405" y="313"/>
			<point x="1405" y="701" type="curve" smooth="yes"/>
			<point x="1405" y="1087"/>
			<point x="1091" y="1400"/>
			<point x="705" y="1400" type="curve" smooth="yes"/>
			<point x="260" y="1400" type="line" smooth="yes"/>
			<point x="177" y="1400"/>
			<point x="110" y="1333"/>
			<point x="110" y="1250" type="curve" smooth="yes"/>
			<point x="110" y="1167"/>
			<point x="177" y="1100"/>
			<point x="260" y="1100" type="curve" smooth="yes"/>
			<point x="705" y="1100" type="line" smooth="yes"/>
			<point x="925" y="1100"/>
			<point x="1105" y="921"/>
			<point x="1105" y="701" type="curve" smooth="yes"/>
			<point x="1105" y="479"/>
			<point x="925" y="300"/>
			<point x="705" y="300" type="curve" smooth="yes"/>
			<point x="622" y="300"/>
			<point x="555" y="233"/>
			<point x="555" y="150" type="curve" smooth="yes"/>
			<point x="555" y="67"/>
			<point x="622" y="0"/>
		</contour>
	</outline>
</glyph>
<glyph name="E" format="2">
	<advance width="1195"/>
	<unicode hex="0045"/>
	<unicode hex="0065"/>
	<anchor x="587" y="0" name="bottom"/>
	<anchor x="929" y="0" name="ogonek"/>
	<anchor x="587" y="1400" name="top"/>
	<anchor x="-20" y="1400" name="topleft"/>
	<outline>
		<contour>
			<point x="410" y="140" type="line"/>
			<point x="410" y="705" type="line"/>
			<point x="410" y="787.843"/>
			<point x="342.843" y="855"/>
			<point x="260" y="855" type="curve"/>
			<point x="177.157" y="855"/>
			<point x="110" y="787.843"/>
			<point x="110" y="705" type="curve"/>
			<point x="110" y="140" type="line"/>
		</contour>
		<contour>
			<point x="943" y="300" type="curve"/>
			<point x="260" y="300" type="line"/>
			<point x="177.157" y="300"/>
			<point x="110" y="232.843"/>
			<point x="110" y="150" type="curve"/>
			<point x="110" y="67.157"/>
			<point x="177.157" y="0"/>
			<point x="260" y="0" type="curve"/>
			<point x="943" y="0" type="line"/>
			<point x="1025.843" y="0"/>
			<point x="1093" y="67.157"/>
			<point x="1093" y="150" type="curve"/>
			<point x="1093" y="232.843"/>
			<point x="1025.843" y="300"/>
		</contour>
		<contour>
			<point x="678" y="550" type="curve"/>
			<point x="943" y="550" type="line"/>
			<point x="1025.843" y="550"/>
			<point x="1093" y="617.157"/>
			<point x="1093" y="700" type="curve"/>
			<point x="1093" y="782.843"/>
			<point x="1025.843" y="850"/>
			<point x="943" y="850" type="curve"/>
			<point x="678" y="850" type="line"/>
			<point x="595.157" y="850"/>
			<point x="528" y="782.843"/>
			<point x="528" y="700" type="curve"/>
			<point x="528" y="617.157"/>
			<point x="595.157" y="550"/>
		</contour>
		<contour>
			<point x="260" y="1100" type="curve"/>
			<point x="943" y="1100" type="line"/>
			<point x="1025.843" y="1100"/>
			<point x="1093" y="1167.157"/>
			<point x="1093" y="1250" type="curve"/>
			<point x="1093" y="1332.843"/>
			<point x="1025.843" y="1400"/>
			<point x="943" y="1400" type="curve"/>
			<point x="260" y="1400" type="line"/>
			<point x="177.157" y="1400"/>
			<point x="110" y="1332.843"/>
			<point x="110" y="1250" type="curve"/>
			<point x="110" y="1167.157"/>
			<point x="177.157" y="1100"/>
		</contour>
	</outline>
</glyph>
<glyph name="F" format="2">
	<advance width="1200"/>
	<unicode hex="0046"/>
	<unicode hex="0066"/>
	<anchor x="589" y="0" name="bottom"/>
	<anchor x="589" y="1400" name="top"/>
	<outline>
		<contour>
			<point x="110" y="710" type="line"/>
			<point x="110" y="150" type="line"/>
			<point x="110" y="67.157"/>
			<point x="177.157" y="0"/>
			<point x="260" y="0" type="curve"/>
			<point x="342.843" y="0"/>
			<point x="410" y="67.157"/>
			<point x="410" y="150" type="curve"/>
			<point x="410" y="710" type="line"/>
		</contour>
		<contour>
			<point x="848" y="850" type="curve"/>
			<point x="260" y="850" type="line"/>
			<point x="177.157" y="850"/>
			<point x="110" y="782.843"/>
			<point x="110" y="700" type="curve"/>
			<point x="110" y="617.157"/>
			<point x="177.157" y="550"/>
			<point x="260" y="550" type="curve"/>
			<point x="848" y="550" type="line"/>
			<point x="930.843" y="550"/>
			<point x="998" y="617.157"/>
			<point x="998" y="700" type="curve"/>
			<point x="998" y="782.843"/>
			<point x="930.843" y="850"/>
		</contour>
		<contour>
			<point x="260" y="1100" type="curve"/>
			<point x="948" y="1100" type="line"/>
			<point x="1030.843" y="1100"/>
			<point x="1098" y="1167.157"/>
			<point x="1098" y="1250" type="curve"/>
			<point x="1098" y="1332.843"/>
			<point x="1030.843" y="1400"/>
			<point x="948" y="1400" type="curve"/>
			<point x="260" y="1400" type="line"/>
			<point x="177.157" y="1400"/>
			<point x="110" y="1332.843"/>
			<point x="110" y="1250" type="curve"/>
			<point x="110" y="1167.157"/>
			<point x="177.157" y="1100"/>
		</contour>
	</outline>
</glyph>
<glyph name="G" format="2">
	<advance width="1534"/>
	<unicode hex="0047"/>
	<unicode hex="0067"/>
	<anchor x="767" y="0" name="bottom"/>
	<anchor x="847" y="1400" name="top"/>
	<outline>
		<contour>
			<point x="818" y="301" type="curve" smooth="yes"/>
			<point x="598" y="301"/>
			<point x="420" y="480"/>
			<point x="420" y="700" type="curve" smooth="yes"/>
			<point x="420" y="921"/>
			<point x="598" y="1100"/>
			<point x="818" y="1100" type="curve" smooth="yes"/>
			<point x="1233" y="1100" type="line" smooth="yes"/>
			<point x="1316" y="1100"/>
			<point x="1383" y="1167"/>
			<point x="1383" y="1250" type="curve" smooth="yes"/>
			<point x="1383" y="1333"/>
			<point x="1316" y="1400"/>
			<point x="1233" y="1400" type="curve" smooth="yes"/>
			<point x="818" y="1400" type="line" smooth="yes"/>
			<point x="432" y="1400"/>
			<point x="120" y="1087"/>
			<point x="120" y="700" type="curve" smooth="yes"/>
			<point x="120" y="314"/>
			<point x="432" y="1"/>
			<point x="818" y="1" type="curve" smooth="yes"/>
			<point x="901" y="1"/>
			<point x="968" y="68"/>
			<point x="968" y="151" type="curve" smooth="yes"/>
			<point x="968" y="234"/>
			<point x="901" y="301"/>
		</contour>
		<contour>
			<point x="1384" y="150" type="curve" smooth="yes"/>
			<point x="1384" y="608" type="line" smooth="yes"/>
			<point x="1384" y="691"/>
			<point x="1317" y="758"/>
			<point x="1234" y="758" type="curve" smooth="yes"/>
			<point x="1151" y="758"/>
			<point x="1084" y="691"/>
			<point x="1084" y="608" type="curve" smooth="yes"/>
			<point x="1084" y="150" type="line" smooth="yes"/>
			<point x="1084" y="67"/>
			<point x="1151" y="0"/>
			<point x="1234" y="0" type="curve" smooth="yes"/>
			<point x="1317" y="0"/>
			<point x="1384" y="67"/>
		</contour>
	</outline>
</glyph>
<glyph name="H" format="2">
	<advance width="1526"/>
	<unicode hex="0048"/>
	<unicode hex="0068"/>
	<anchor x="763" y="0" name="bottom"/>
	<anchor x="763" y="700" name="center"/>
	<anchor x="763" y="1400" name="top"/>
	<anchor x="30" y="1400" name="topleft"/>
	<outline>
		<contour>
			<point x="410" y="150" type="curve"/>
			<point x="410" y="270" type="line"/>
			<point x="410" y="352.843"/>
			<point x="342.843" y="420"/>
			<point x="260" y="420" type="curve"/>
			<point x="177.157" y="420"/>
			<point x="110" y="352.843"/>
			<point x="110" y="270" type="curve"/>
			<point x="110" y="150" type="line"/>
			<point x="110" y="67.157"/>
			<point x="177.157" y="0"/>
			<point x="260" y="0" type="curve"/>
			<point x="342.843" y="0"/>
			<point x="410" y="67.157"/>
		</contour>
		<contour>
			<point x="110" y="1250" type="curve"/>
			<point x="110" y="700" type="line"/>
			<point x="110" y="617.157"/>
			<point x="177.157" y="550"/>
			<point x="260" y="550" type="curve"/>
			<point x="342.843" y="550"/>
			<point x="410" y="617.157"/>
			<point x="410" y="700" type="curve"/>
			<point x="410" y="1250" type="line"/>
			<point x="410" y="1332.843"/>
			<point x="342.843" y="1400"/>
			<point x="260" y="1400" type="curve"/>
			<point x="177.157" y="1400"/>
			<point x="110" y="1332.843"/>
		</contour>
		<contour>
			<point x="1266" y="850" type="line"/>
			<point x="260" y="850" type="line"/>
			<point x="260" y="550" type="line"/>
			<point x="1266" y="550" type="line"/>
		</contour>
		<contour>
			<point x="1116" y="700" type="curve"/>
			<point x="1116" y="150" type="line"/>
			<point x="1116" y="67.157"/>
			<point x="1183.157" y="0"/>
			<point x="1266" y="0" type="curve"/>
			<point x="1348.843" y="0"/>
			<point x="1416" y="67.157"/>
			<point x="1416" y="150" type="curve"/>
			<point x="1416" y="700" type="line"/>
			<point x="1416" y="782.843"/>
			<point x="1348.843" y="850"/>
			<point x="1266" y="850" type="curve"/>
			<point x="1183.157" y="850"/>
			<point x="1116" y="782.843"/>
		</contour>
		<contour>
			<point x="1416" y="1130" type="curve"/>
			<point x="1416" y="1250" type="line"/>
			<point x="1416" y="1332.843"/>
			<point x="1348.843" y="1400"/>
			<point x="1266" y="1400" type="curve"/>
			<point x="1183.157" y="1400"/>
			<point x="1116" y="1332.843"/>
			<point x="1116" y="1250" type="curve"/>
			<point x="1116" y="1130" type="line"/>
			<point x="1116" y="1047.157"/>
			<point x="1183.157" y="980"/>
			<point x="1266" y="980" type="curve"/>
			<point x="1348.843" y="980"/>
			<point x="1416" y="1047.157"/>
		</contour>
	</outline>
</glyph>
<glyph name="I" format="2">
	<advance width="520"/>
	<unicode hex="0049"/>
	<unicode hex="0131"/>
	<anchor x="260" y="0" name="bottom"/>
	<anchor x="247" y="0" name="ogonek"/>
	<anchor x="260" y="1400" name="top"/>
	<anchor x="-20" y="1400" name="topleft"/>
	<outline>
		<contour>
			<point x="410" y="150" type="curve"/>
			<point x="410" y="440" type="line"/>
			<point x="410" y="522.843"/>
			<point x="342.843" y="590"/>
			<point x="260" y="590" type="curve"/>
			<point x="177.157" y="590"/>
			<point x="110" y="522.843"/>
			<point x="110" y="440" type="curve"/>
			<point x="110" y="150" type="line"/>
			<point x="110" y="67.157"/>
			<point x="177.157" y="0"/>
			<point x="260" y="0" type="curve"/>
			<point x="342.843" y="0"/>
			<point x="410" y="67.157"/>
		</contour>
		<contour>
			<point x="410" y="960" type="curve"/>
			<point x="410" y="1250" type="line"/>
			<point x="410" y="1332.843"/>
			<point x="342.843" y="1400"/>
			<point x="260" y="1400" type="curve"/>
			<point x="177.157" y="1400"/>
			<point x="110" y="1332.843"/>
			<point x="110" y="1250" type="curve"/>
			<point x="110" y="960" type="line"/>
			<point x="110" y="877.157"/>
			<point x="177.157" y="810"/>
			<point x="260" y="810" type="curve"/>
			<point x="342.843" y="810"/>
			<point x="410" y="877.157"/>
		</contour>
	</outline>
</glyph>
<glyph name="J" format="2">
	<advance width="1343"/>
	<unicode hex="004A"/>
	<unicode hex="006A"/>
	<unicode hex="0237"/>
	<anchor x="656" y="0" name="bottom"/>
	<anchor x="1061" y="1400" name="top"/>
	<outline>
		<contour>
			<point x="911" y="558" type="curve" smooth="yes"/>
			<point x="911" y="417"/>
			<point x="796" y="303"/>
			<point x="656" y="303" type="curve" smooth="yes"/>
			<point x="515" y="303"/>
			<point x="400" y="417"/>
			<point x="400" y="558" type="curve" smooth="yes"/>
			<point x="400" y="641"/>
			<point x="333" y="708"/>
			<point x="250" y="708" type="curve" smooth="yes"/>
			<point x="167" y="708"/>
			<point x="100" y="641"/>
			<point x="100" y="558" type="curve" smooth="yes"/>
			<point x="100" y="249"/>
			<point x="352" y="3"/>
			<point x="656" y="3" type="curve" smooth="yes"/>
			<point x="959" y="3"/>
			<point x="1211" y="249"/>
			<point x="1211" y="558" type="curve" smooth="yes"/>
			<point x="1211" y="641"/>
			<point x="1144" y="708"/>
			<point x="1061" y="708" type="curve" smooth="yes"/>
			<point x="978" y="708"/>
			<point x="911" y="641"/>
		</contour>
		<contour>
			<point x="1211" y="1030" type="curve" smooth="yes"/>
			<point x="1211" y="1250" type="line" smooth="yes"/>
			<point x="1211" y="1333"/>
			<point x="1144" y="1400"/>
			<point x="1061" y="1400" type="curve" smooth="yes"/>
			<point x="978" y="1400"/>
			<point x="911" y="1333"/>
			<point x="911" y="1250" type="curve" smooth="yes"/>
			<point x="911" y="1030" type="line" smooth="yes"/>
			<point x="911" y="947"/>
			<point x="978" y="880"/>
			<point x="1061" y="880" type="curve" smooth="yes"/>
			<point x="1144" y="880"/>
			<point x="1211" y="947"/>
		</contour>
	</outline>
</glyph>
<glyph name="K" format="2">
	<advance width="1424"/>
	<unicode hex="004B"/>
	<unicode hex="006B"/>
	<anchor x="700" y="0" name="bottom"/>
	<anchor x="700" y="1400" name="top"/>
	<outline>
		<contour>
			<point x="410" y="150" type="curve"/>
			<point x="410" y="1250" type="line"/>
			<point x="410" y="1332.843"/>
			<point x="342.843" y="1400"/>
			<point x="260" y="1400" type="curve"/>
			<point x="177.157" y="1400"/>
			<point x="110" y="1332.843"/>
			<point x="110" y="1250" type="curve"/>
			<point x="110" y="150" type="line"/>
			<point x="110" y="67.157"/>
			<point x="177.157" y="0"/>
			<point x="260" y="0" type="curve"/>
			<point x="342.843" y="0"/>
			<point x="410" y="67.157"/>
		</contour>
		<contour>
			<point x="1294.607" y="256.526" type="curve"/>
			<point x="745.066" y="806.066" type="line"/>
			<point x="717.922" y="833.211"/>
			<point x="680.422" y="850"/>
			<point x="639" y="850" type="curve"/>
			<point x="556.157" y="850"/>
			<point x="489" y="782.843"/>
			<point x="489" y="700" type="curve"/>
			<point x="489" y="658.578"/>
			<point x="505.789" y="621.078"/>
			<point x="532.934" y="593.934" type="curve"/>
			<point x="1082.474" y="44.393" type="line"/>
			<point x="1109.619" y="17.249"/>
			<point x="1147.119" y="0.459"/>
			<point x="1188.541" y="0.459" type="curve"/>
			<point x="1271.384" y="0.459"/>
			<point x="1338.541" y="67.616"/>
			<point x="1338.541" y="150.459" type="curve"/>
			<point x="1338.541" y="191.881"/>
			<point x="1321.751" y="229.381"/>
		</contour>
		<contour>
			<point x="1082.244" y="1355.376" type="curve"/>
			<point x="830.934" y="1104.066" type="line"/>
			<point x="803.789" y="1076.922"/>
			<point x="787" y="1039.422"/>
			<point x="787" y="998" type="curve"/>
			<point x="787" y="915.157"/>
			<point x="854.157" y="848"/>
			<point x="937" y="848" type="curve"/>
			<point x="978.422" y="848"/>
			<point x="1015.922" y="864.789"/>
			<point x="1043.066" y="891.934" type="curve"/>
			<point x="1294.375" y="1143.242" type="line"/>
			<point x="1321.656" y="1170.405"/>
			<point x="1338.541" y="1208"/>
			<point x="1338.541" y="1249.541" type="curve"/>
			<point x="1338.541" y="1332.384"/>
			<point x="1271.384" y="1399.541"/>
			<point x="1188.541" y="1399.541" type="curve"/>
			<point x="1147.002" y="1399.541"/>
			<point x="1109.407" y="1382.656"/>
		</contour>
	</outline>
</glyph>
<glyph name="L" format="2">
	<advance width="1240"/>
	<unicode hex="004C"/>
	<unicode hex="006C"/>
	<anchor x="608" y="0" name="bottom"/>
	<anchor x="608" y="700" name="center"/>
	<anchor x="275" y="1400" name="top"/>
	<anchor x="1235" y="1400" name="topright"/>
	<outline>
		<contour>
			<point x="1005" y="300" type="curve" smooth="yes"/>
			<point x="260" y="300" type="line" smooth="yes"/>
			<point x="177" y="300"/>
			<point x="110" y="233"/>
			<point x="110" y="150" type="curve" smooth="yes"/>
			<point x="110" y="67"/>
			<point x="177" y="0"/>
			<point x="260" y="0" type="curve" smooth="yes"/>
			<point x="1005" y="0" type="line" smooth="yes"/>
			<point x="1088" y="0"/>
			<point x="1155" y="67"/>
			<point x="1155" y="150" type="curve" smooth="yes"/>
			<point x="1155" y="233"/>
			<point x="1088" y="300"/>
		</contour>
		<contour>
			<point x="425" y="602" type="curve" smooth="yes"/>
			<point x="425" y="1250" type="line" smooth="yes"/>
			<point x="425" y="1333"/>
			<point x="358" y="1400"/>
			<point x="275" y="1400" type="curve" smooth="yes"/>
			<point x="192" y="1400"/>
			<point x="125" y="1333"/>
			<point x="125" y="1250" type="curve" smooth="yes"/>
			<point x="125" y="602" type="line" smooth="yes"/>
			<point x="125" y="519"/>
			<point x="192" y="452"/>
			<point x="275" y="452" type="curve" smooth="yes"/>
			<point x="358" y="452"/>
			<point x="425" y="519"/>
		</contour>
	</outline>
</glyph>
<glyph name="M" format="2">
	<advance width="1540"/>
	<unicode hex="004D"/>
	<unicode hex="006D"/>
	<anchor x="770" y="0" name="bottom"/>
	<anchor x="770" y="1400" name="top"/>
	<outline>
		<contour>
			<point x="110" y="1250" type="curve"/>
			<point x="110" y="150" type="line"/>
			<point x="110" y="67.157"/>
			<point x="177.157" y="0"/>
			<point x="260" y="0" type="curve"/>
			<point x="342.843" y="0"/>
			<point x="410" y="67.157"/>
			<point x="410" y="150" type="curve"/>
			<point x="410" y="1250" type="line"/>
			<point x="410" y="1332.843"/>
			<point x="342.843" y="1400"/>
			<point x="260" y="1400" type="curve"/>
			<point x="177.157" y="1400"/>
			<point x="110" y="1332.843"/>
		</contour>
		<contour>
			<point x="880.3" y="799.656" type="curve"/>
			<point x="383.41" y="1338.798" type="line"/>
			<point x="356.019" y="1368.283"/>
			<point x="316.909" y="1386.73"/>
			<point x="273.49" y="1386.73" type="curve"/>
			<point x="190.647" y="1386.73"/>
			<point x="123.49" y="1319.573"/>
			<point x="123.49" y="1236.73" type="curve"/>
			<point x="123.49" y="1197.305"/>
			<point x="138.699" y="1161.433"/>
			<point x="163.571" y="1134.661" type="curve"/>
			<point x="659.7" y="596.344" type="line"/>
			<point x="687.108" y="566.619"/>
			<point x="726.379" y="548"/>
			<point x="770" y="548" type="curve"/>
			<point x="852.843" y="548"/>
			<point x="920" y="615.157"/>
			<point x="920" y="698" type="curve"/>
			<point x="920" y="737.223"/>
			<point x="904.946" y="772.929"/>
		</contour>
		<contour>
			<point x="1130" y="1250" type="curve"/>
			<point x="1130" y="150" type="line"/>
			<point x="1130" y="67.157"/>
			<point x="1197.157" y="0"/>
			<point x="1280" y="0" type="curve"/>
			<point x="1362.843" y="0"/>
			<point x="1430" y="67.157"/>
			<point x="1430" y="150" type="curve"/>
			<point x="1430" y="1250" type="line"/>
			<point x="1430" y="1332.843"/>
			<point x="1362.843" y="1400"/>
			<point x="1280" y="1400" type="curve"/>
			<point x="1197.157" y="1400"/>
			<point x="1130" y="1332.843"/>
		</contour>
	</outline>
</glyph>
<glyph name="N" format="2">
	<advance width="1513"/>
	<unicode hex="004E"/>
	<unicode hex="006E"/>
	<anchor x="757" y="0" name="bottom"/>
	<anchor x="757" y="1400" name="top"/>
	<outline>
		<contour>
			<point x="410" y="150" type="curve"/>
			<point x="410" y="1250" type="line"/>
			<point x="410" y="1332.843"/>
			<point x="342.843" y="1400"/>
			<point x="260" y="1400" type="curve"/>
			<point x="177.157" y="1400"/>
			<point x="110" y="1332.843"/>
			<point x="110" y="1250" type="curve"/>
			<point x="110" y="150" type="line"/>
			<point x="110" y="67.157"/>
			<point x="177.157" y="0"/>
			<point x="260" y="0" type="curve"/>
			<point x="342.843" y="0"/>
			<point x="410" y="67.157"/>
		</contour>
		<contour>
			<point x="590.232" y="666.959" type="curve"/>
			<point x="1153.232" y="37.96" type="line"/>
			<point x="1376.768" y="238.04" type="line"/>
			<point x="813.768" y="867.041" type="line"/>
			<point x="786.304" y="897.705"/>
			<point x="746.406" y="917"/>
			<point x="702" y="917" type="curve"/>
			<point x="619.157" y="917"/>
			<point x="552" y="849.843"/>
			<point x="552" y="767" type="curve"/>
			<point x="552" y="728.562"/>
			<point x="566.457" y="693.501"/>
		</contour>
		<contour>
			<point x="1403" y="150" type="curve"/>
			<point x="1403" y="1250" type="line"/>
			<point x="1403" y="1332.843"/>
			<point x="1335.843" y="1400"/>
			<point x="1253" y="1400" type="curve"/>
			<point x="1170.157" y="1400"/>
			<point x="1103" y="1332.843"/>
			<point x="1103" y="1250" type="curve"/>
			<point x="1103" y="150" type="line"/>
			<point x="1103" y="67.157"/>
			<point x="1170.157" y="0"/>
			<point x="1253" y="0" type="curve"/>
			<point x="1335.843" y="0"/>
			<point x="1403" y="67.157"/>
		</contour>
	</outline>
</glyph>
<glyph name="O" format="2">
	<advance width="1640"/>
	<unicode hex="004F"/>
	<unicode hex="006F"/>
	<anchor x="820" y="0" name="bottom"/>
	<anchor x="820" y="700" name="center"/>
	<anchor x="1476" y="10" name="ogonek"/>
	<anchor x="820" y="1400" name="top"/>
	<anchor x="20" y="1400" name="topleft"/>
	<anchor x="1218" y="1166" name="topright"/>
	<outline>
		<contour>
			<point x="390" y="978" type="curve" smooth="yes"/>
			<point x="473" y="978"/>
			<point x="540" y="1045"/>
			<point x="540" y="1128" type="curve" smooth="yes"/>
			<point x="540" y="1211"/>
			<point x="473" y="1278"/>
			<point x="390" y="1278" type="curve" smooth="yes"/>
			<point x="307" y="1278"/>
			<point x="240" y="1211"/>
			<point x="240" y="1128" type="curve" smooth="yes"/>
			<point x="240" y="1045"/>
			<point x="307" y="978"/>
		</contour>
		<contour>
			<point x="820" y="1100" type="curve" smooth="yes"/>
			<point x="1041" y="1100"/>
			<point x="1220" y="921"/>
			<point x="1220" y="700" type="curve" smooth="yes"/>
			<point x="1220" y="479"/>
			<point x="1041" y="300"/>
			<point x="820" y="300" type="curve" smooth="yes"/>
			<point x="599" y="300"/>
			<point x="420" y="479"/>
			<point x="420" y="700" type="curve" smooth="yes"/>
			<point x="420" y="783"/>
			<point x="353" y="850"/>
			<point x="270" y="850" type="curve" smooth="yes"/>
			<point x="187" y="850"/>
			<point x="120" y="783"/>
			<point x="120" y="700" type="curve" smooth="yes"/>
			<point x="120" y="313"/>
			<point x="433" y="0"/>
			<point x="820" y="0" type="curve" smooth="yes"/>
			<point x="1207" y="0"/>
			<point x="1520" y="313"/>
			<point x="1520" y="700" type="curve" smooth="yes"/>
			<point x="1520" y="1087"/>
			<point x="1207" y="1400"/>
			<point x="820" y="1400" type="curve" smooth="yes"/>
			<point x="737" y="1400"/>
			<point x="670" y="1333"/>
			<point x="670" y="1250" type="curve" smooth="yes"/>
			<point x="670" y="1167"/>
			<point x="737" y="1100"/>
		</contour>
	</outline>
</glyph>
<glyph name="P" format="2">
	<advance width="1364"/>
	<unicode hex="0050"/>
	<unicode hex="0070"/>
	<anchor x="672" y="0" name="bottom"/>
	<anchor x="672" y="1400" name="top"/>
	<outline>
		<contour>
			<point x="410" y="150" type="curve" smooth="yes"/>
			<point x="410" y="661" type="line" smooth="yes"/>
			<point x="410" y="744"/>
			<point x="343" y="811"/>
			<point x="260" y="811" type="curve" smooth="yes"/>
			<point x="177" y="811"/>
			<point x="110" y="744"/>
			<point x="110" y="661" type="curve" smooth="yes"/>
			<point x="110" y="150" type="line" smooth="yes"/>
			<point x="110" y="67"/>
			<point x="177" y="0"/>
			<point x="260" y="0" type="curve" smooth="yes"/>
			<point x="343" y="0"/>
			<point x="410" y="67"/>
		</contour>
		<contour>
			<point x="672" y="422" type="curve" smooth="yes"/>
			<point x="771" y="422" type="line" smooth="yes"/>
			<point x="1042" y="422"/>
			<point x="1260" y="640"/>
			<point x="1260" y="911" type="curve" smooth="yes"/>
			<point x="1260" y="1181"/>
			<point x="1042" y="1400"/>
			<point x="771" y="1400" type="curve" smooth="yes"/>
			<point x="260" y="1400" type="line" smooth="yes"/>
			<point x="177" y="1400"/>
			<point x="110" y="1333"/>
			<point x="110" y="1250" type="curve" smooth="yes"/>
			<point x="110" y="1167"/>
			<point x="177" y="1100"/>
			<point x="260" y="1100" type="curve" smooth="yes"/>
			<point x="771" y="1100" type="line" smooth="yes"/>
			<point x="876" y="1100"/>
			<point x="960" y="1015"/>
			<point x="960" y="911" type="curve" smooth="yes"/>
			<point x="960" y="806"/>
			<point x="876" y="722"/>
			<point x="771" y="722" type="curve" smooth="yes"/>
			<point x="672" y="722" type="line" smooth="yes"/>
			<point x="589" y="722"/>
			<point x="522" y="655"/>
			<point x="522" y="572" type="curve" smooth="yes"/>
			<point x="522" y="489"/>
			<point x="589" y="422"/>
		</contour>
	</outline>
</glyph>
<glyph name="Q" format="2">
	<advance width="1618"/>
	<unicode hex="0051"/>
	<unicode hex="0071"/>
	<anchor x="809" y="0" name="bottom"/>
	<anchor x="809" y="1400" name="top"/>
	<outline>
		<contour>
			<point x="1462.066" y="257.066" type="curve"/>
			<point x="1164.777" y="554.355" type="line"/>
			<point x="1137.613" y="581.647"/>
			<point x="1100.009" y="598.541"/>
			<point x="1058.459" y="598.541" type="curve"/>
			<point x="975.616" y="598.541"/>
			<point x="908.459" y="531.384"/>
			<point x="908.459" y="448.541" type="curve"/>
			<point x="908.459" y="407.247"/>
			<point x="925.145" y="369.851"/>
			<point x="952.141" y="342.727" type="curve"/>
			<point x="1249.934" y="44.934" type="line"/>
			<point x="1277.078" y="17.789"/>
			<point x="1314.578" y="1"/>
			<point x="1356" y="1" type="curve"/>
			<point x="1438.843" y="1"/>
			<point x="1506" y="68.157"/>
			<point x="1506" y="151" type="curve"/>
			<point x="1506" y="192.422"/>
			<point x="1489.211" y="229.922"/>
		</contour>
		<contour>
			<point x="809" y="291" type="curve"/>
			<point x="583" y="291"/>
			<point x="400" y="474"/>
			<point x="400" y="700" type="curve"/>
			<point x="400" y="926"/>
			<point x="583" y="1109"/>
			<point x="809" y="1109" type="curve"/>
			<point x="1035" y="1109"/>
			<point x="1218" y="926"/>
			<point x="1218" y="700" type="curve"/>
			<point x="1218" y="617.157"/>
			<point x="1285.157" y="550"/>
			<point x="1368" y="550" type="curve"/>
			<point x="1450.843" y="550"/>
			<point x="1518" y="617.157"/>
			<point x="1518" y="700" type="curve"/>
			<point x="1518" y="1091.6"/>
			<point x="1200.6" y="1409"/>
			<point x="809" y="1409" type="curve"/>
			<point x="417.4" y="1409"/>
			<point x="100" y="1091.6"/>
			<point x="100" y="700" type="curve"/>
			<point x="100" y="308.4"/>
			<point x="417.4" y="-9"/>
			<point x="809" y="-9" type="curve"/>
			<point x="891.843" y="-9"/>
			<point x="959" y="58.157"/>
			<point x="959" y="141" type="curve"/>
			<point x="959" y="223.843"/>
			<point x="891.843" y="291"/>
		</contour>
	</outline>
</glyph>
<glyph name="R" format="2">
	<advance width="1355"/>
	<unicode hex="0052"/>
	<unicode hex="0072"/>
	<anchor x="665" y="0" name="bottom"/>
	<anchor x="665" y="1400" name="top"/>
	<outline>
		<contour>
			<point x="410" y="150" type="curve" smooth="yes"/>
			<point x="410" y="661" type="line" smooth="yes"/>
			<point x="410" y="744"/>
			<point x="343" y="811"/>
			<point x="260" y="811" type="curve" smooth="yes"/>
			<point x="177" y="811"/>
			<point x="110" y="744"/>
			<point x="110" y="661" type="curve" smooth="yes"/>
			<point x="110" y="150" type="line" smooth="yes"/>
			<point x="110" y="67"/>
			<point x="177" y="0"/>
			<point x="260" y="0" type="curve" smooth="yes"/>
			<point x="343" y="0"/>
			<point x="410" y="67"/>
		</contour>
		<contour>
			<point x="1224" y="253" type="curve" smooth="yes"/>
			<point x="775" y="681" type="line" smooth="yes"/>
			<point x="749" y="706"/>
			<point x="712" y="722"/>
			<point x="672" y="722" type="curve" smooth="yes"/>
			<point x="589" y="722"/>
			<point x="522" y="655"/>
			<point x="522" y="572" type="curve" smooth="yes"/>
			<point x="522" y="529"/>
			<point x="540" y="491"/>
			<point x="569" y="463" type="curve" smooth="yes"/>
			<point x="1016" y="37" type="line" smooth="yes"/>
			<point x="1043" y="11"/>
			<point x="1080" y="-5"/>
			<point x="1120" y="-5" type="curve" smooth="yes"/>
			<point x="1203" y="-5"/>
			<point x="1270" y="62"/>
			<point x="1270" y="145" type="curve" smooth="yes"/>
			<point x="1270" y="188"/>
			<point x="1252" y="226"/>
		</contour>
		<contour>
			<point x="672" y="422" type="curve" smooth="yes"/>
			<point x="771" y="422" type="line" smooth="yes"/>
			<point x="1042" y="422"/>
			<point x="1260" y="640"/>
			<point x="1260" y="911" type="curve" smooth="yes"/>
			<point x="1260" y="1181"/>
			<point x="1042" y="1400"/>
			<point x="771" y="1400" type="curve" smooth="yes"/>
			<point x="260" y="1400" type="line" smooth="yes"/>
			<point x="177" y="1400"/>
			<point x="110" y="1333"/>
			<point x="110" y="1250" type="curve" smooth="yes"/>
			<point x="110" y="1167"/>
			<point x="177" y="1100"/>
			<point x="260" y="1100" type="curve" smooth="yes"/>
			<point x="771" y="1100" type="line" smooth="yes"/>
			<point x="876" y="1100"/>
			<point x="960" y="1015"/>
			<point x="960" y="911" type="curve" smooth="yes"/>
			<point x="960" y="806"/>
			<point x="876" y="722"/>
			<point x="771" y="722" type="curve" smooth="yes"/>
			<point x="672" y="722" type="line" smooth="yes"/>
			<point x="589" y="722"/>
			<point x="522" y="655"/>
			<point x="522" y="572" type="curve" smooth="yes"/>
			<point x="522" y="489"/>
			<point x="589" y="422"/>
		</contour>
	</outline>
</glyph>
<glyph name="S" format="2">
	<advance width="1289"/>
	<unicode hex="0053"/>
	<unicode hex="0073"/>
	<anchor x="645" y="0" name="bottom"/>
	<anchor x="645" y="1400" name="top"/>
	<outline>
		<contour>
			<point x="901" y="476" type="curve" smooth="yes"/>
			<point x="901" y="379"/>
			<point x="822" y="300"/>
			<point x="724" y="300" type="curve" smooth="yes"/>
			<point x="283" y="300" type="line" smooth="yes"/>
			<point x="200" y="300"/>
			<point x="133" y="233"/>
			<point x="133" y="150" type="curve" smooth="yes"/>
			<point x="133" y="67"/>
			<point x="200" y="0"/>
			<point x="283" y="0" type="curve" smooth="yes"/>
			<point x="724" y="0" type="line" smooth="yes"/>
			<point x="988" y="0"/>
			<point x="1201" y="213"/>
			<point x="1201" y="476" type="curve" smooth="yes"/>
			<point x="1201" y="559"/>
			<point x="1134" y="626"/>
			<point x="1051" y="626" type="curve" smooth="yes"/>
			<point x="968" y="626"/>
			<point x="901" y="559"/>
		</contour>
		<contour>
			<point x="699" y="850" type="curve" smooth="yes"/>
			<point x="590" y="850" type="line" smooth="yes"/>
			<point x="507" y="850"/>
			<point x="440" y="783"/>
			<point x="440" y="700" type="curve" smooth="yes"/>
			<point x="440" y="617"/>
			<point x="507" y="550"/>
			<point x="590" y="550" type="curve" smooth="yes"/>
			<point x="699" y="550" type="line" smooth="yes"/>
			<point x="782" y="550"/>
			<point x="849" y="617"/>
			<point x="849" y="700" type="curve" smooth="yes"/>
			<point x="849" y="783"/>
			<point x="782" y="850"/>
		</contour>
		<contour>
			<point x="388" y="924" type="curve" smooth="yes"/>
			<point x="388" y="1021"/>
			<point x="467" y="1100"/>
			<point x="565" y="1100" type="curve" smooth="yes"/>
			<point x="1006" y="1100" type="line" smooth="yes"/>
			<point x="1089" y="1100"/>
			<point x="1156" y="1167"/>
			<point x="1156" y="1250" type="curve" smooth="yes"/>
			<point x="1156" y="1333"/>
			<point x="1089" y="1400"/>
			<point x="1006" y="1400" type="curve" smooth="yes"/>
			<point x="565" y="1400" type="line" smooth="yes"/>
			<point x="301" y="1400"/>
			<point x="88" y="1187"/>
			<point x="88" y="924" type="curve" smooth="yes"/>
			<point x="88" y="841"/>
			<point x="155" y="774"/>
			<point x="238" y="774" type="curve" smooth="yes"/>
			<point x="321" y="774"/>
			<point x="388" y="841"/>
		</contour>
	</outline>
</glyph>
<glyph name="T" format="2">
	<advance width="1338"/>
	<unicode hex="0054"/>
	<unicode hex="0074"/>
	<anchor x="619" y="0" name="bottom"/>
	<anchor x="669" y="700" name="center"/>
	<anchor x="669" y="1400" name="top"/>
	<outline>
		<contour>
			<point x="519" y="1246" type="line"/>
			<point x="519" y="150" type="line"/>
			<point x="519" y="67.157"/>
			<point x="586.157" y="0"/>
			<point x="669" y="0" type="curve"/>
			<point x="751.843" y="0"/>
			<point x="819" y="67.157"/>
			<point x="819" y="150" type="curve"/>
			<point x="819" y="1246" type="line"/>
		</contour>
		<contour>
			<point x="235" y="1100" type="curve"/>
			<point x="669" y="1100" type="line"/>
			<point x="751.843" y="1100"/>
			<point x="819" y="1167.157"/>
			<point x="819" y="1250" type="curve"/>
			<point x="819" y="1332.843"/>
			<point x="751.843" y="1400"/>
			<point x="669" y="1400" type="curve"/>
			<point x="235" y="1400" type="line"/>
			<point x="152.157" y="1400"/>
			<point x="85" y="1332.843"/>
			<point x="85" y="1250" type="curve"/>
			<point x="85" y="1167.157"/>
			<point x="152.157" y="1100"/>
		</contour>
		<contour>
			<point x="1040" y="1100" type="curve"/>
			<point x="1103" y="1100" type="line"/>
			<point x="1185.843" y="1100"/>
			<point x="1253" y="1167.157"/>
			<point x="1253" y="1250" type="curve"/>
			<point x="1253" y="1332.843"/>
			<point x="1185.843" y="1400"/>
			<point x="1103" y="1400" type="curve"/>
			<point x="1040" y="1400" type="line"/>
			<point x="957.157" y="1400"/>
			<point x="890" y="1332.843"/>
			<point x="890" y="1250" type="curve"/>
			<point x="890" y="1167.157"/>
			<point x="957.157" y="1100"/>
		</contour>
	</outline>
</glyph>
<glyph name="U" format="2">
	<advance width="1339"/>
	<unicode hex="0055"/>
	<unicode hex="0075"/>
	<anchor x="670" y="0" name="bottom"/>
	<anchor x="670" y="0" name="ogonek"/>
	<anchor x="670" y="1400" name="top"/>
	<anchor x="929" y="1251" name="topright"/>
	<outline>
		<contour>
			<point x="410" y="996" type="curve" smooth="yes"/>
			<point x="410" y="1250" type="line" smooth="yes"/>
			<point x="410" y="1333"/>
			<point x="343" y="1400"/>
			<point x="260" y="1400" type="curve" smooth="yes"/>
			<point x="177" y="1400"/>
			<point x="110" y="1333"/>
			<point x="110" y="1250" type="curve" smooth="yes"/>
			<point x="110" y="996" type="line" smooth="yes"/>
			<point x="110" y="913"/>
			<point x="177" y="846"/>
			<point x="260" y="846" type="curve" smooth="yes"/>
			<point x="343" y="846"/>
			<point x="410" y="913"/>
		</contour>
		<contour>
			<point x="929" y="1249" type="curve" smooth="yes"/>
			<point x="929" y="548" type="line" smooth="yes"/>
			<point x="929" y="405"/>
			<point x="813" y="290"/>
			<point x="671" y="290" type="curve" smooth="yes"/>
			<point x="529" y="290"/>
			<point x="413" y="405"/>
			<point x="413" y="548" type="curve" smooth="yes"/>
			<point x="413" y="631"/>
			<point x="346" y="698"/>
			<point x="263" y="698" type="curve" smooth="yes"/>
			<point x="180" y="698"/>
			<point x="113" y="631"/>
			<point x="113" y="548" type="curve" smooth="yes"/>
			<point x="113" y="237"/>
			<point x="366" y="-10"/>
			<point x="671" y="-10" type="curve" smooth="yes"/>
			<point x="976" y="-10"/>
			<point x="1229" y="237"/>
			<point x="1229" y="548" type="curve" smooth="yes"/>
			<point x="1229" y="1249" type="line" smooth="yes"/>
			<point x="1229" y="1332"/>
			<point x="1162" y="1399"/>
			<point x="1079" y="1399" type="curve" smooth="yes"/>
			<point x="996" y="1399"/>
			<point x="929" y="1332"/>
		</contour>
	</outline>
</glyph>
<glyph name="V" format="2">
	<advance width="1536"/>
	<unicode hex="0056"/>
	<unicode hex="0076"/>
	<anchor x="768" y="0" name="bottom"/>
	<anchor x="768" y="1400" name="top"/>
	<outline>
		<contour>
			<point x="574.432" y="877.675" type="curve"/>
			<point x="369.69" y="1316.042" type="line"/>
			<point x="345.204" y="1365.6"/>
			<point x="294.147" y="1399.684"/>
			<point x="235.129" y="1399.684" type="curve"/>
			<point x="152.285" y="1399.684"/>
			<point x="85.129" y="1332.527"/>
			<point x="85.129" y="1249.684" type="curve"/>
			<point x="85.129" y="1225.858"/>
			<point x="90.683" y="1203.331"/>
			<point x="100.568" y="1183.325" type="curve"/>
			<point x="305.31" y="744.958" type="line"/>
			<point x="329.796" y="695.4"/>
			<point x="380.853" y="661.316"/>
			<point x="439.871" y="661.316" type="curve"/>
			<point x="522.715" y="661.316"/>
			<point x="589.871" y="728.473"/>
			<point x="589.871" y="811.316" type="curve"/>
			<point x="589.871" y="835.141"/>
			<point x="584.317" y="857.669"/>
		</contour>
		<contour>
			<point x="923.612" y="84.209" type="curve"/>
			<point x="1435.682" y="1184.423" type="line"/>
			<point x="1445.513" y="1204.385"/>
			<point x="1451.035" y="1226.851"/>
			<point x="1451.035" y="1250.607" type="curve"/>
			<point x="1451.035" y="1333.451"/>
			<point x="1383.879" y="1400.607"/>
			<point x="1301.035" y="1400.607" type="curve"/>
			<point x="1241.947" y="1400.607"/>
			<point x="1190.84" y="1366.444"/>
			<point x="1166.388" y="1316.791" type="curve"/>
			<point x="654.318" y="216.577" type="line"/>
			<point x="644.487" y="196.615"/>
			<point x="638.965" y="174.149"/>
			<point x="638.965" y="150.393" type="curve"/>
			<point x="638.965" y="67.549"/>
			<point x="706.121" y="0.393"/>
			<point x="788.965" y="0.393" type="curve"/>
			<point x="848.053" y="0.393"/>
			<point x="899.16" y="34.556"/>
		</contour>
	</outline>
</glyph>
<glyph name="W" format="2">
	<advance width="2096"/>
	<unicode hex="0057"/>
	<unicode hex="0077"/>
	<anchor x="1048" y="0" name="bottom"/>
	<anchor x="1048" y="1400" name="top"/>
	<outline>
		<contour>
			<point x="1497" y="0" type="curve" smooth="yes"/>
			<point x="1565" y="0"/>
			<point x="1623" y="45"/>
			<point x="1641" y="108" type="curve" smooth="yes"/>
			<point x="1990" y="1208" type="line" smooth="yes"/>
			<point x="2018" y="1303"/>
			<point x="1946" y="1400"/>
			<point x="1846" y="1400" type="curve" smooth="yes"/>
			<point x="1778" y="1400"/>
			<point x="1720" y="1355"/>
			<point x="1702" y="1292" type="curve" smooth="yes"/>
			<point x="1353" y="192" type="line" smooth="yes"/>
			<point x="1325" y="97"/>
			<point x="1397" y="0"/>
		</contour>
		<contour>
			<point x="385" y="668" type="curve" smooth="yes"/>
			<point x="485" y="668"/>
			<point x="557" y="763"/>
			<point x="529" y="859" type="curve" smooth="yes"/>
			<point x="394" y="1291" type="line" smooth="yes"/>
			<point x="376" y="1354"/>
			<point x="319" y="1400"/>
			<point x="250" y="1400" type="curve" smooth="yes"/>
			<point x="150" y="1400"/>
			<point x="78" y="1305"/>
			<point x="106" y="1209" type="curve" smooth="yes"/>
			<point x="241" y="777" type="line" smooth="yes"/>
			<point x="259" y="714"/>
			<point x="316" y="668"/>
		</contour>
		<contour>
			<point x="698" y="0" type="curve" smooth="yes"/>
			<point x="766" y="0"/>
			<point x="824" y="45"/>
			<point x="842" y="108" type="curve" smooth="yes"/>
			<point x="1191" y="1208" type="line" smooth="yes"/>
			<point x="1219" y="1303"/>
			<point x="1147" y="1400"/>
			<point x="1047" y="1400" type="curve" smooth="yes"/>
			<point x="979" y="1400"/>
			<point x="921" y="1355"/>
			<point x="903" y="1292" type="curve" smooth="yes"/>
			<point x="554" y="192" type="line" smooth="yes"/>
			<point x="526" y="97"/>
			<point x="598" y="0"/>
		</contour>
		<contour>
			<point x="1214" y="572" type="curve" smooth="yes"/>
			<point x="1314" y="572"/>
			<point x="1386" y="667"/>
			<point x="1358" y="763" type="curve" smooth="yes"/>
			<point x="1193" y="1291" type="line" smooth="yes"/>
			<point x="1175" y="1354"/>
			<point x="1118" y="1400"/>
			<point x="1049" y="1400" type="curve" smooth="yes"/>
			<point x="949" y="1400"/>
			<point x="877" y="1305"/>
			<point x="905" y="1209" type="curve" smooth="yes"/>
			<point x="1070" y="681" type="line" smooth="yes"/>
			<point x="1088" y="618"/>
			<point x="1145" y="572"/>
		</contour>
	</outline>
</glyph>
<glyph name="X" format="2">
	<advance width="1333"/>
	<unicode hex="0058"/>
	<unicode hex="0078"/>
	<anchor x="667" y="0" name="bottom"/>
	<anchor x="667" y="1400" name="top"/>
	<outline>
		<contour>
			<point x="285" y="457" type="curve" smooth="yes"/>
			<point x="118" y="244" type="line" smooth="yes"/>
			<point x="98" y="218"/>
			<point x="85" y="186"/>
			<point x="85" y="150" type="curve" smooth="yes"/>
			<point x="85" y="67"/>
			<point x="152" y="0"/>
			<point x="235" y="0" type="curve" smooth="yes"/>
			<point x="283" y="0"/>
			<point x="325" y="22"/>
			<point x="353" y="57" type="curve" smooth="yes"/>
			<point x="521" y="271" type="line" smooth="yes"/>
			<point x="541" y="297"/>
			<point x="553" y="329"/>
			<point x="553" y="364" type="curve" smooth="yes"/>
			<point x="553" y="447"/>
			<point x="486" y="514"/>
			<point x="403" y="514" type="curve" smooth="yes"/>
			<point x="355" y="514"/>
			<point x="312" y="492"/>
		</contour>
		<contour>
			<point x="122" y="1156" type="curve" smooth="yes"/>
			<point x="979" y="57" type="line" smooth="yes"/>
			<point x="1006" y="23"/>
			<point x="1048" y="0"/>
			<point x="1096" y="0" type="curve" smooth="yes"/>
			<point x="1179" y="0"/>
			<point x="1246" y="68"/>
			<point x="1246" y="150" type="curve" smooth="yes"/>
			<point x="1246" y="186"/>
			<point x="1234" y="218"/>
			<point x="1213" y="244" type="curve" smooth="yes"/>
			<point x="356" y="1343" type="line" smooth="yes"/>
			<point x="329" y="1377"/>
			<point x="287" y="1400"/>
			<point x="239" y="1400" type="curve" smooth="yes"/>
			<point x="156" y="1400"/>
			<point x="89" y="1332"/>
			<point x="89" y="1250" type="curve" smooth="yes"/>
			<point x="89" y="1214"/>
			<point x="101" y="1182"/>
		</contour>
		<contour>
			<point x="980" y="1343" type="curve" smooth="yes"/>
			<point x="812" y="1129" type="line" smooth="yes"/>
			<point x="792" y="1103"/>
			<point x="780" y="1071"/>
			<point x="780" y="1036" type="curve" smooth="yes"/>
			<point x="780" y="953"/>
			<point x="847" y="886"/>
			<point x="930" y="886" type="curve" smooth="yes"/>
			<point x="978" y="886"/>
			<point x="1021" y="908"/>
			<point x="1048" y="943" type="curve" smooth="yes"/>
			<point x="1215" y="1156" type="line" smooth="yes"/>
			<point x="1235" y="1182"/>
			<point x="1248" y="1214"/>
			<point x="1248" y="1250" type="curve" smooth="yes"/>
			<point x="1248" y="1333"/>
			<point x="1181" y="1400"/>
			<point x="1098" y="1400" type="curve" smooth="yes"/>
			<point x="1050" y="1400"/>
			<point x="1008" y="1378"/>
		</contour>
	</outline>
</glyph>
<glyph name="Y" format="2">
	<advance width="1331"/>
	<unicode hex="0059"/>
	<unicode hex="0079"/>
	<anchor x="666" y="0" name="bottom"/>
	<anchor x="666" y="1400" name="top"/>
	<anchor x="5" y="1400" name="topleft"/>
	<outline>
		<contour>
			<point x="517" y="694" type="curve"/>
			<point x="517" y="150" type="line"/>
			<point x="517" y="67.157"/>
			<point x="584.157" y="0"/>
			<point x="667" y="0" type="curve"/>
			<point x="749.843" y="0"/>
			<point x="817" y="67.157"/>
			<point x="817" y="150" type="curve"/>
			<point x="817" y="694" type="line"/>
			<point x="817" y="776.843"/>
			<point x="749.843" y="844"/>
			<point x="667" y="844" type="curve"/>
			<point x="584.157" y="844"/>
			<point x="517" y="776.843"/>
		</contour>
		<contour>
			<point x="521.027" y="1128.578" type="curve"/>
			<point x="352.517" y="1343.405" type="line"/>
			<point x="325.03" y="1377.768"/>
			<point x="282.745" y="1399.778"/>
			<point x="235.318" y="1399.778" type="curve"/>
			<point x="152.474" y="1399.778"/>
			<point x="85.318" y="1332.621"/>
			<point x="85.318" y="1249.778" type="curve"/>
			<point x="85.318" y="1214.361"/>
			<point x="97.592" y="1181.811"/>
			<point x="118.119" y="1156.15" type="curve"/>
			<point x="284.973" y="943.422" type="line"/>
			<point x="312.432" y="908.458"/>
			<point x="355.093" y="886"/>
			<point x="403" y="886" type="curve"/>
			<point x="485.843" y="886"/>
			<point x="553" y="953.157"/>
			<point x="553" y="1036" type="curve"/>
			<point x="553" y="1070.936"/>
			<point x="541.057" y="1103.083"/>
		</contour>
		<contour>
			<point x="978.502" y="1342.747" type="curve"/>
			<point x="548.682" y="791.205" type="line"/>
			<point x="528.828" y="765.771"/>
			<point x="517" y="733.767"/>
			<point x="517" y="699" type="curve"/>
			<point x="517" y="616.157"/>
			<point x="584.157" y="549"/>
			<point x="667" y="549" type="curve"/>
			<point x="715.077" y="549"/>
			<point x="757.87" y="571.617"/>
			<point x="785.318" y="606.795" type="curve"/>
			<point x="1213.533" y="1156.286" type="line"/>
			<point x="1233.869" y="1181.885"/>
			<point x="1246.017" y="1214.282"/>
			<point x="1246.017" y="1249.516" type="curve"/>
			<point x="1246.017" y="1332.36"/>
			<point x="1178.861" y="1399.516"/>
			<point x="1096.017" y="1399.516" type="curve"/>
			<point x="1048.408" y="1399.516"/>
			<point x="1005.98" y="1377.337"/>
		</contour>
	</outline>
</glyph>
<glyph name="Z" format="2">
	<advance width="1296"/>
	<unicode hex="005A"/>
	<unicode hex="007A"/>
	<anchor x="648" y="0" name="bottom"/>
	<anchor x="648" y="700" name="center"/>
	<anchor x="648" y="1400" name="top"/>
	<outline>
		<contour>
			<point x="1061" y="300" type="curve"/>
			<point x="237" y="300" type="line"/>
			<point x="154.157" y="300"/>
			<point x="87" y="232.843"/>
			<point x="87" y="150" type="curve"/>
			<point x="87" y="67.157"/>
			<point x="154.157" y="0"/>
			<point x="237" y="0" type="curve"/>
			<point x="1061" y="0" type="line"/>
			<point x="1143.843" y="0"/>
			<point x="1211" y="67.157"/>
			<point x="1211" y="150" type="curve"/>
			<point x="1211" y="232.843"/>
			<point x="1143.843" y="300"/>
		</contour>
		<contour>
			<point x="352.426" y="69.51" type="curve"/>
			<point x="760.802" y="595.277" type="line"/>
			<point x="781.079" y="620.857"/>
			<point x="793.188" y="653.206"/>
			<point x="793.188" y="688.383" type="curve"/>
			<point x="793.188" y="771.227"/>
			<point x="726.031" y="838.383"/>
			<point x="643.188" y="838.383" type="curve"/>
			<point x="595.522" y="838.383"/>
			<point x="553.049" y="816.151"/>
			<point x="525.574" y="781.49" type="curve"/>
			<point x="117.198" y="255.723" type="line"/>
			<point x="96.921" y="230.143"/>
			<point x="84.812" y="197.794"/>
			<point x="84.812" y="162.617" type="curve"/>
			<point x="84.812" y="79.773"/>
			<point x="151.969" y="12.617"/>
			<point x="234.812" y="12.617" type="curve"/>
			<point x="282.478" y="12.617"/>
			<point x="324.951" y="34.849"/>
		</contour>
		<contour>
			<point x="1061" y="1396" type="curve"/>
			<point x="237" y="1396" type="line"/>
			<point x="154.157" y="1396"/>
			<point x="87" y="1328.843"/>
			<point x="87" y="1246" type="curve"/>
			<point x="87" y="1163.157"/>
			<point x="154.157" y="1096"/>
			<point x="237" y="1096" type="curve"/>
			<point x="1061" y="1096" type="line"/>
			<point x="1143.843" y="1096"/>
			<point x="1211" y="1163.157"/>
			<point x="1211" y="1246" type="curve"/>
			<point x="1211" y="1328.843"/>
			<point x="1143.843" y="1396"/>
		</contour>
	</outline>
</glyph>
<glyph name="bracketleft" format="2">
	<advance width="855"/>
	<unicode hex="005B"/>
	<outline>
		<contour>
			<point x="595" y="300" type="curve" smooth="yes"/>
			<point x="300" y="300" type="line" smooth="yes"/>
			<point x="217" y="300"/>
			<point x="150" y="233"/>
			<point x="150" y="150" type="curve" smooth="yes"/>
			<point x="150" y="67"/>
			<point x="217" y="0"/>
			<point x="300" y="0" type="curve" smooth="yes"/>
			<point x="595" y="0" type="line" smooth="yes"/>
			<point x="678" y="0"/>
			<point x="745" y="67"/>
			<point x="745" y="150" type="curve" smooth="yes"/>
			<point x="745" y="233"/>
			<point x="678" y="300"/>
		</contour>
		<contour>
			<point x="450" y="150" type="curve" smooth="yes"/>
			<point x="450" y="790" type="line" smooth="yes"/>
			<point x="450" y="873"/>
			<point x="383" y="940"/>
			<point x="300" y="940" type="curve" smooth="yes"/>
			<point x="217" y="940"/>
			<point x="150" y="873"/>
			<point x="150" y="790" type="curve" smooth="yes"/>
			<point x="150" y="150" type="line" smooth="yes"/>
			<point x="150" y="67"/>
			<point x="217" y="0"/>
			<point x="300" y="0" type="curve" smooth="yes"/>
			<point x="383" y="0"/>
			<point x="450" y="67"/>
		</contour>
		<contour>
			<point x="595" y="1400" type="curve" smooth="yes"/>
			<point x="300" y="1400" type="line" smooth="yes"/>
			<point x="217" y="1400"/>
			<point x="150" y="1333"/>
			<point x="150" y="1250" type="curve" smooth="yes"/>
			<point x="150" y="1167"/>
			<point x="217" y="1100"/>
			<point x="300" y="1100" type="curve" smooth="yes"/>
			<point x="595" y="1100" type="line" smooth="yes"/>
			<point x="678" y="1100"/>
			<point x="745" y="1167"/>
			<point x="745" y="1250" type="curve" smooth="yes"/>
			<point x="745" y="1333"/>
			<point x="678" y="1400"/>
		</contour>
	</outline>
</glyph>
<glyph name="asciicircum" format="2">
	<advance width="894"/>
	<unicode hex="005E"/>
	<outline>
		<contour>
			<point x="340" y="1358" type="curve" smooth="yes"/>
			<point x="155" y="1178" type="line" smooth="yes"/>
			<point x="127" y="1151"/>
			<point x="110" y="1113"/>
			<point x="110" y="1071" type="curve" smooth="yes"/>
			<point x="110" y="988"/>
			<point x="177" y="921"/>
			<point x="260" y="921" type="curve" smooth="yes"/>
			<point x="301" y="921"/>
			<point x="338" y="937"/>
			<point x="365" y="963" type="curve" smooth="yes"/>
			<point x="550" y="1143" type="line" smooth="yes"/>
			<point x="578" y="1170"/>
			<point x="595" y="1208"/>
			<point x="595" y="1250" type="curve" smooth="yes"/>
			<point x="595" y="1333"/>
			<point x="528" y="1400"/>
			<point x="445" y="1400" type="curve" smooth="yes"/>
			<point x="404" y="1400"/>
			<point x="367" y="1384"/>
		</contour>
		<contour>
			<point x="342" y="1142" type="curve" smooth="yes"/>
			<point x="529" y="962" type="line" smooth="yes"/>
			<point x="556" y="936"/>
			<point x="593" y="920"/>
			<point x="634" y="920" type="curve" smooth="yes"/>
			<point x="716" y="920"/>
			<point x="784" y="988"/>
			<point x="784" y="1070" type="curve" smooth="yes"/>
			<point x="784" y="1113"/>
			<point x="766" y="1151"/>
			<point x="738" y="1178" type="curve" smooth="yes"/>
			<point x="551" y="1358" type="line" smooth="yes"/>
			<point x="524" y="1384"/>
			<point x="487" y="1400"/>
			<point x="446" y="1400" type="curve" smooth="yes"/>
			<point x="364" y="1400"/>
			<point x="296" y="1332"/>
			<point x="296" y="1250" type="curve" smooth="yes"/>
			<point x="296" y="1207"/>
			<point x="314" y="1169"/>
		</contour>
	</outline>
</glyph>
<glyph name="underscore" format="2">
	<advance width="1425"/>
	<unicode hex="005F"/>
	<outline>
		<contour>
			<point x="1125" y="0" type="curve" smooth="yes"/>
			<point x="300" y="0" type="line" smooth="yes"/>
			<point x="217" y="0"/>
			<point x="150" y="-67"/>
			<point x="150" y="-150" type="curve" smooth="yes"/>
			<point x="150" y="-233"/>
			<point x="217" y="-300"/>
			<point x="300" y="-300" type="curve" smooth="yes"/>
			<point x="1125" y="-300" type="line" smooth="yes"/>
			<point x="1208" y="-300"/>
			<point x="1275" y="-233"/>
			<point x="1275" y="-150" type="curve" smooth="yes"/>
			<point x="1275" y="-67"/>
			<point x="1208" y="0"/>
		</contour>
	</outline>
</glyph>
<glyph name="grave" format="2">
	<advance width="668"/>
	<unicode hex="0060"/>
	<outline>
		<contour>
			<point x="136.404" y="1141.582" type="curve"/>
			<point x="323.446" y="962.375" type="line"/>
			<point x="350.419" y="936.381"/>
			<point x="387.103" y="920.396"/>
			<point x="427.521" y="920.396" type="curve"/>
			<point x="510.364" y="920.396"/>
			<point x="577.521" y="987.553"/>
			<point x="577.521" y="1070.396" type="curve"/>
			<point x="577.521" y="1112.822"/>
			<point x="559.908" y="1151.134"/>
			<point x="531.595" y="1178.418" type="curve"/>
			<point x="344.553" y="1357.626" type="line"/>
			<point x="317.58" y="1383.619"/>
			<point x="280.897" y="1399.604"/>
			<point x="240.479" y="1399.604" type="curve"/>
			<point x="157.636" y="1399.604"/>
			<point x="90.479" y="1332.447"/>
			<point x="90.479" y="1249.604" type="curve"/>
			<point x="90.479" y="1207.178"/>
			<point x="108.092" y="1168.867"/>
		</contour>
	</outline>
</glyph>
<glyph name="braceleft" format="2">
	<advance width="1053"/>
	<unicode hex="007B"/>
	<outline>
		<contour>
			<point x="260" y="550" type="curve" smooth="yes"/>
			<point x="343" y="550"/>
			<point x="410" y="618"/>
			<point x="410" y="700" type="curve" smooth="yes"/>
			<point x="410" y="783"/>
			<point x="343" y="850"/>
			<point x="260" y="850" type="curve" smooth="yes"/>
			<point x="177" y="850"/>
			<point x="110" y="783"/>
			<point x="110" y="700" type="curve" smooth="yes"/>
			<point x="110" y="618"/>
			<point x="177" y="550"/>
		</contour>
		<contour>
			<point x="793" y="301" type="curve" smooth="yes"/>
			<point x="726" y="301"/>
			<point x="673" y="354"/>
			<point x="673" y="420" type="curve" smooth="yes"/>
			<point x="673" y="477" type="line" smooth="yes"/>
			<point x="673" y="560"/>
			<point x="606" y="627"/>
			<point x="523" y="627" type="curve" smooth="yes"/>
			<point x="440" y="627"/>
			<point x="373" y="560"/>
			<point x="373" y="477" type="curve" smooth="yes"/>
			<point x="373" y="420" type="line" smooth="yes"/>
			<point x="373" y="188"/>
			<point x="560" y="1"/>
			<point x="793" y="1" type="curve" smooth="yes"/>
			<point x="876" y="1"/>
			<point x="943" y="68"/>
			<point x="943" y="151" type="curve" smooth="yes"/>
			<point x="943" y="234"/>
			<point x="876" y="301"/>
		</contour>
		<contour>
			<point x="673" y="924" type="curve" smooth="yes"/>
			<point x="673" y="981" type="line" smooth="yes"/>
			<point x="673" y="1047"/>
			<point x="726" y="1100"/>
			<point x="793" y="1100" type="curve" smooth="yes"/>
			<point x="876" y="1100"/>
			<point x="943" y="1167"/>
			<point x="943" y="1250" type="curve" smooth="yes"/>
			<point x="943" y="1333"/>
			<point x="876" y="1400"/>
			<point x="793" y="1400" type="curve" smooth="yes"/>
			<point x="560" y="1400"/>
			<point x="373" y="1213"/>
			<point x="373" y="981" type="curve" smooth="yes"/>
			<point x="373" y="924" type="line" smooth="yes"/>
			<point x="373" y="841"/>
			<point x="440" y="774"/>
			<point x="523" y="774" type="curve" smooth="yes"/>
			<point x="606" y="774"/>
			<point x="673" y="841"/>
		</contour>
	</outline>
</glyph>
<glyph name="bar" format="2">
	<advance width="520"/>
	<unicode hex="007C"/>
	<outline>
		<contour>
			<point x="410" y="6" type="curve"/>
			<point x="410" y="1259" type="line"/>
			<point x="410" y="1341.843"/>
			<point x="342.843" y="1409"/>
			<point x="260" y="1409" type="curve"/>
			<point x="177.157" y="1409"/>
			<point x="110" y="1341.843"/>
			<point x="110" y="1259" type="curve"/>
			<point x="110" y="6" type="line"/>
			<point x="110" y="-76.843"/>
			<point x="177.157" y="-144"/>
			<point x="260" y="-144" type="curve"/>
			<point x="342.843" y="-144"/>
			<point x="410" y="-76.843"/>
		</contour>
	</outline>
</glyph>
<glyph name="asciitilde" format="2">
	<advance width="1208"/>
	<unicode hex="007E"/>
	<outline>
		<contour>
			<point x="832.944" y="806.971" type="curve"/>
			<point x="799.801" y="741.117"/>
			<point x="761.71" y="740.28"/>
			<point x="702.995" y="798.995" type="curve"/>
			<point x="543.396" y="958.594"/>
			<point x="239.134" y="945.707"/>
			<point x="124.944" y="718.971" type="curve"/>
			<point x="115.38" y="700.047"/>
			<point x="110" y="678.652"/>
			<point x="110" y="656" type="curve"/>
			<point x="110" y="578.679"/>
			<point x="172.679" y="516"/>
			<point x="250" y="516" type="curve"/>
			<point x="304.669" y="516"/>
			<point x="352.018" y="547.334"/>
			<point x="375.056" y="593.029" type="curve"/>
			<point x="406.105" y="654.724"/>
			<point x="452.5" y="653.51"/>
			<point x="505.005" y="601.005" type="curve"/>
			<point x="673.604" y="432.406"/>
			<point x="969.046" y="454.65"/>
			<point x="1083.056" y="681.029" type="curve"/>
			<point x="1092.62" y="699.953"/>
			<point x="1098" y="721.348"/>
			<point x="1098" y="744" type="curve"/>
			<point x="1098" y="821.321"/>
			<point x="1035.321" y="884"/>
			<point x="958" y="884" type="curve"/>
			<point x="903.331" y="884"/>
			<point x="855.982" y="852.666"/>
		</contour>
	</outline>
</glyph>
<glyph name="exclamdown" format="2">
	<advance width="544"/>
	<unicode hex="00A1"/>
	<outline>
		<contour>
			<point x="272" y="1400" type="curve" smooth="yes"/>
			<point x="183" y="1400"/>
			<point x="110" y="1326"/>
			<point x="110" y="1237" type="curve" smooth="yes"/>
			<point x="110" y="1149"/>
			<point x="183" y="1075"/>
			<point x="272" y="1075" type="curve" smooth="yes"/>
			<point x="361" y="1075"/>
			<point x="434" y="1149"/>
			<point x="434" y="1237" type="curve" smooth="yes"/>
			<point x="434" y="1326"/>
			<point x="361" y="1400"/>
		</contour>
		<contour>
			<point x="122" y="786" type="curve"/>
			<point x="122" y="150" type="line"/>
			<point x="122" y="67.157"/>
			<point x="189.157" y="0"/>
			<point x="272" y="0" type="curve"/>
			<point x="354.843" y="0"/>
			<point x="422" y="67.157"/>
			<point x="422" y="150" type="curve"/>
			<point x="422" y="786" type="line"/>
			<point x="422" y="868.843"/>
			<point x="354.843" y="936"/>
			<point x="272" y="936" type="curve"/>
			<point x="189.157" y="936"/>
			<point x="122" y="868.843"/>
		</contour>
	</outline>
</glyph>
<glyph name="cent" format="2">
	<advance width="1076"/>
	<unicode hex="00A2"/>
	<outline>
		<contour>
			<point x="625" y="175" type="curve" smooth="yes"/>
			<point x="862" y="175" type="line" smooth="yes"/>
			<point x="945" y="175"/>
			<point x="1012" y="242"/>
			<point x="1012" y="325" type="curve" smooth="yes"/>
			<point x="1012" y="408"/>
			<point x="945" y="475"/>
			<point x="862" y="475" type="curve" smooth="yes"/>
			<point x="625" y="475" type="line" smooth="yes"/>
			<point x="501" y="475"/>
			<point x="400" y="576"/>
			<point x="400" y="700" type="curve" smooth="yes"/>
			<point x="400" y="796"/>
			<point x="461" y="879"/>
			<point x="546" y="911" type="curve" smooth="yes"/>
			<point x="603" y="932"/>
			<point x="643" y="987"/>
			<point x="643" y="1051" type="curve" smooth="yes"/>
			<point x="643" y="1164"/>
			<point x="529" y="1228"/>
			<point x="440" y="1192" type="curve" smooth="yes"/>
			<point x="242" y="1117"/>
			<point x="100" y="925"/>
			<point x="100" y="700" type="curve" smooth="yes"/>
			<point x="100" y="410"/>
			<point x="335" y="175"/>
		</contour>
		<contour>
			<point x="785" y="-35" type="curve"/>
			<point x="785" y="-17" type="line"/>
			<point x="785" y="65.843"/>
			<point x="717.843" y="133"/>
			<point x="635" y="133" type="curve"/>
			<point x="552.157" y="133"/>
			<point x="485" y="65.843"/>
			<point x="485" y="-17" type="curve"/>
			<point x="485" y="-35" type="line"/>
			<point x="485" y="-117.843"/>
			<point x="552.157" y="-185"/>
			<point x="635" y="-185" type="curve"/>
			<point x="717.843" y="-185"/>
			<point x="785" y="-117.843"/>
		</contour>
		<contour>
			<point x="785" y="1417" type="curve"/>
			<point x="785" y="1435" type="line"/>
			<point x="785" y="1517.843"/>
			<point x="717.843" y="1585"/>
			<point x="635" y="1585" type="curve"/>
			<point x="552.157" y="1585"/>
			<point x="485" y="1517.843"/>
			<point x="485" y="1435" type="curve"/>
			<point x="485" y="1417" type="line"/>
			<point x="485" y="1334.157"/>
			<point x="552.157" y="1267"/>
			<point x="635" y="1267" type="curve"/>
			<point x="717.843" y="1267"/>
			<point x="785" y="1334.157"/>
		</contour>
		<contour>
			<point x="862" y="925" type="curve" smooth="yes"/>
			<point x="945" y="925"/>
			<point x="1012" y="993"/>
			<point x="1012" y="1075" type="curve" smooth="yes"/>
			<point x="1012" y="1158"/>
			<point x="945" y="1225"/>
			<point x="862" y="1225" type="curve" smooth="yes"/>
			<point x="780" y="1225"/>
			<point x="712" y="1158"/>
			<point x="712" y="1075" type="curve" smooth="yes"/>
			<point x="712" y="993"/>
			<point x="780" y="925"/>
		</contour>
	</outline>
</glyph>
<glyph name="sterling" format="2">
	<advance width="1551"/>
	<unicode hex="00A3"/>
	<outline>
		<contour>
			<point x="300" y="1" type="curve" smooth="yes"/>
			<point x="1247" y="0" type="line" smooth="yes"/>
			<point x="1330" y="0"/>
			<point x="1397" y="67"/>
			<point x="1397" y="150" type="curve" smooth="yes"/>
			<point x="1397" y="233"/>
			<point x="1330" y="300"/>
			<point x="1247" y="300" type="curve" smooth="yes"/>
			<point x="300" y="301" type="line" smooth="yes"/>
			<point x="217" y="301"/>
			<point x="150" y="234"/>
			<point x="150" y="151" type="curve" smooth="yes"/>
			<point x="150" y="68"/>
			<point x="217" y="1"/>
		</contour>
		<contour>
			<point x="300" y="350" type="curve" smooth="yes"/>
			<point x="682" y="350" type="line" smooth="yes"/>
			<point x="765" y="350"/>
			<point x="832" y="417"/>
			<point x="832" y="500" type="curve" smooth="yes"/>
			<point x="832" y="583"/>
			<point x="765" y="650"/>
			<point x="682" y="650" type="curve" smooth="yes"/>
			<point x="300" y="650" type="line" smooth="yes"/>
			<point x="217" y="650"/>
			<point x="150" y="583"/>
			<point x="150" y="500" type="curve" smooth="yes"/>
			<point x="150" y="417"/>
			<point x="217" y="350"/>
		</contour>
		<contour>
			<point x="590" y="842" type="curve" smooth="yes"/>
			<point x="590" y="983"/>
			<point x="705" y="1097"/>
			<point x="846" y="1097" type="curve" smooth="yes"/>
			<point x="986" y="1097"/>
			<point x="1101" y="983"/>
			<point x="1101" y="842" type="curve" smooth="yes"/>
			<point x="1101" y="759"/>
			<point x="1168" y="692"/>
			<point x="1251" y="692" type="curve" smooth="yes"/>
			<point x="1334" y="692"/>
			<point x="1401" y="759"/>
			<point x="1401" y="842" type="curve" smooth="yes"/>
			<point x="1401" y="1151"/>
			<point x="1149" y="1397"/>
			<point x="846" y="1397" type="curve" smooth="yes"/>
			<point x="542" y="1397"/>
			<point x="290" y="1151"/>
			<point x="290" y="842" type="curve" smooth="yes"/>
			<point x="290" y="759"/>
			<point x="357" y="692"/>
			<point x="440" y="692" type="curve" smooth="yes"/>
			<point x="523" y="692"/>
			<point x="590" y="759"/>
		</contour>
	</outline>
</glyph>
<glyph name="yen" format="2">
	<advance width="1243"/>
	<unicode hex="00A5"/>
	<outline>
		<contour>
			<point x="253" y="23" type="curve"/>
			<point x="991" y="23" type="line"/>
			<point x="1073.843" y="23"/>
			<point x="1141" y="90.157"/>
			<point x="1141" y="173" type="curve"/>
			<point x="1141" y="255.843"/>
			<point x="1073.843" y="323"/>
			<point x="991" y="323" type="curve"/>
			<point x="253" y="323" type="line"/>
			<point x="170.157" y="323"/>
			<point x="103" y="255.843"/>
			<point x="103" y="173" type="curve"/>
			<point x="103" y="90.157"/>
			<point x="170.157" y="23"/>
		</contour>
		<contour>
			<point x="253" y="373" type="curve"/>
			<point x="991" y="373" type="line"/>
			<point x="1073.843" y="373"/>
			<point x="1141" y="440.157"/>
			<point x="1141" y="523" type="curve"/>
			<point x="1141" y="605.843"/>
			<point x="1073.843" y="673"/>
			<point x="991" y="673" type="curve"/>
			<point x="253" y="673" type="line"/>
			<point x="170.157" y="673"/>
			<point x="103" y="605.843"/>
			<point x="103" y="523" type="curve"/>
			<point x="103" y="440.157"/>
			<point x="170.157" y="373"/>
		</contour>
		<contour>
			<point x="471.152" y="1219.938" type="curve"/>
			<point x="342.413" y="1353.897" type="line"/>
			<point x="315.138" y="1382.116"/>
			<point x="276.891" y="1399.663"/>
			<point x="234.544" y="1399.663" type="curve"/>
			<point x="151.701" y="1399.663"/>
			<point x="84.544" y="1332.507"/>
			<point x="84.544" y="1249.663" type="curve"/>
			<point x="84.544" y="1209.166"/>
			<point x="100.593" y="1172.417"/>
			<point x="126.677" y="1145.429" type="curve"/>
			<point x="254.848" y="1012.062" type="line"/>
			<point x="282.14" y="983.669"/>
			<point x="320.507" y="966"/>
			<point x="363" y="966" type="curve"/>
			<point x="445.843" y="966"/>
			<point x="513" y="1033.157"/>
			<point x="513" y="1116" type="curve"/>
			<point x="513" y="1156.35"/>
			<point x="497.068" y="1192.979"/>
		</contour>
		<contour>
			<point x="903.76" y="1360.069" type="curve"/>
			<point x="515.496" y="968.626" type="line"/>
			<point x="488.609" y="941.517"/>
			<point x="472" y="904.198"/>
			<point x="472" y="863" type="curve"/>
			<point x="472" y="780.157"/>
			<point x="539.157" y="713"/>
			<point x="622" y="713" type="curve"/>
			<point x="663.645" y="713"/>
			<point x="701.326" y="729.971"/>
			<point x="728.504" y="757.374" type="curve"/>
			<point x="1114.207" y="1146.284" type="line"/>
			<point x="1141.232" y="1173.413"/>
			<point x="1157.937" y="1210.828"/>
			<point x="1157.937" y="1252.146" type="curve"/>
			<point x="1157.937" y="1334.99"/>
			<point x="1090.78" y="1402.146"/>
			<point x="1007.937" y="1402.146" type="curve"/>
			<point x="967.468" y="1402.146"/>
			<point x="930.742" y="1386.12"/>
		</contour>
	</outline>
</glyph>
<glyph name="brokenbar" format="2">
	<advance width="520"/>
	<unicode hex="00A6"/>
	<outline>
		<contour>
			<point x="410" y="150" type="curve"/>
			<point x="410" y="290" type="line"/>
			<point x="410" y="372.843"/>
			<point x="342.843" y="440"/>
			<point x="260" y="440" type="curve"/>
			<point x="177.157" y="440"/>
			<point x="110" y="372.843"/>
			<point x="110" y="290" type="curve"/>
			<point x="110" y="150" type="line"/>
			<point x="110" y="67.157"/>
			<point x="177.157" y="0"/>
			<point x="260" y="0" type="curve"/>
			<point x="342.843" y="0"/>
			<point x="410" y="67.157"/>
		</contour>
		<contour>
			<point x="410" y="1110" type="curve"/>
			<point x="410" y="1250" type="line"/>
			<point x="410" y="1332.843"/>
			<point x="342.843" y="1400"/>
			<point x="260" y="1400" type="curve"/>
			<point x="177.157" y="1400"/>
			<point x="110" y="1332.843"/>
			<point x="110" y="1250" type="curve"/>
			<point x="110" y="1110" type="line"/>
			<point x="110" y="1027.157"/>
			<point x="177.157" y="960"/>
			<point x="260" y="960" type="curve"/>
			<point x="342.843" y="960"/>
			<point x="410" y="1027.157"/>
		</contour>
	</outline>
</glyph>
<glyph name="section" format="2">
	<advance width="1342"/>
	<unicode hex="00A7"/>
	<outline>
		<contour>
			<point x="671" y="628" type="curve" smooth="yes"/>
			<point x="631" y="628"/>
			<point x="599" y="660"/>
			<point x="599" y="700" type="curve" smooth="yes"/>
			<point x="599" y="740"/>
			<point x="631" y="772"/>
			<point x="671" y="772" type="curve" smooth="yes"/>
			<point x="711" y="772"/>
			<point x="743" y="740"/>
			<point x="743" y="700" type="curve" smooth="yes"/>
			<point x="743" y="660"/>
			<point x="711" y="628"/>
		</contour>
		<contour>
			<point x="671" y="428" type="curve" smooth="yes"/>
			<point x="821" y="428"/>
			<point x="943" y="550"/>
			<point x="943" y="700" type="curve" smooth="yes"/>
			<point x="943" y="850"/>
			<point x="821" y="972"/>
			<point x="671" y="972" type="curve" smooth="yes"/>
			<point x="521" y="972"/>
			<point x="399" y="850"/>
			<point x="399" y="700" type="curve" smooth="yes"/>
			<point x="399" y="550"/>
			<point x="521" y="428"/>
		</contour>
		<contour>
			<point x="877" y="457" type="curve" smooth="yes"/>
			<point x="877" y="370"/>
			<point x="807" y="300"/>
			<point x="720" y="300" type="curve" smooth="yes"/>
			<point x="300" y="300" type="line" smooth="yes"/>
			<point x="217" y="300"/>
			<point x="150" y="233"/>
			<point x="150" y="150" type="curve" smooth="yes"/>
			<point x="150" y="67"/>
			<point x="217" y="0"/>
			<point x="300" y="0" type="curve" smooth="yes"/>
			<point x="720" y="0" type="line" smooth="yes"/>
			<point x="973" y="0"/>
			<point x="1177" y="204"/>
			<point x="1177" y="457" type="curve" smooth="yes"/>
			<point x="1177" y="540"/>
			<point x="1110" y="607"/>
			<point x="1027" y="607" type="curve" smooth="yes"/>
			<point x="944" y="607"/>
			<point x="877" y="540"/>
		</contour>
		<contour>
			<point x="465" y="943" type="curve" smooth="yes"/>
			<point x="465" y="1030"/>
			<point x="535" y="1100"/>
			<point x="622" y="1100" type="curve" smooth="yes"/>
			<point x="1042" y="1100" type="line" smooth="yes"/>
			<point x="1125" y="1100"/>
			<point x="1192" y="1167"/>
			<point x="1192" y="1250" type="curve" smooth="yes"/>
			<point x="1192" y="1333"/>
			<point x="1125" y="1400"/>
			<point x="1042" y="1400" type="curve" smooth="yes"/>
			<point x="622" y="1400" type="line" smooth="yes"/>
			<point x="369" y="1400"/>
			<point x="165" y="1196"/>
			<point x="165" y="943" type="curve" smooth="yes"/>
			<point x="165" y="860"/>
			<point x="232" y="793"/>
			<point x="315" y="793" type="curve" smooth="yes"/>
			<point x="398" y="793"/>
			<point x="465" y="860"/>
		</contour>
	</outline>
</glyph>
<glyph name="copyright" format="2">
	<advance width="1622"/>
	<unicode hex="00A9"/>
	<outline>
		<contour>
			<point x="975" y="814" type="curve" smooth="yes"/>
			<point x="1022" y="814"/>
			<point x="1060" y="852"/>
			<point x="1060" y="899" type="curve" smooth="yes"/>
			<point x="1060" y="946"/>
			<point x="1022" y="984"/>
			<point x="975" y="984" type="curve" smooth="yes"/>
			<point x="928" y="984"/>
			<point x="890" y="946"/>
			<point x="890" y="899" type="curve" smooth="yes"/>
			<point x="890" y="852"/>
			<point x="928" y="814"/>
		</contour>
		<contour>
			<point x="975" y="581" type="curve" smooth="yes"/>
			<point x="797" y="581" type="line" smooth="yes"/>
			<point x="733" y="581"/>
			<point x="681" y="633"/>
			<point x="681" y="698" type="curve" smooth="yes"/>
			<point x="681" y="762"/>
			<point x="733" y="814"/>
			<point x="797" y="814" type="curve" smooth="yes"/>
			<point x="844" y="814"/>
			<point x="882" y="852"/>
			<point x="882" y="899" type="curve" smooth="yes"/>
			<point x="882" y="946"/>
			<point x="844" y="984"/>
			<point x="797" y="984" type="curve" smooth="yes"/>
			<point x="639" y="984"/>
			<point x="511" y="856"/>
			<point x="511" y="698" type="curve" smooth="yes"/>
			<point x="511" y="539"/>
			<point x="639" y="411"/>
			<point x="797" y="411" type="curve" smooth="yes"/>
			<point x="975" y="411" type="line" smooth="yes"/>
			<point x="1021" y="411"/>
			<point x="1060" y="449"/>
			<point x="1060" y="496" type="curve" smooth="yes"/>
			<point x="1060" y="543"/>
			<point x="1021" y="581"/>
		</contour>
		<contour>
			<point x="1094" y="1134" type="curve" smooth="yes"/>
			<point x="1094" y="1051"/>
			<point x="1161" y="984"/>
			<point x="1244" y="984" type="curve" smooth="yes"/>
			<point x="1327" y="984"/>
			<point x="1394" y="1051"/>
			<point x="1394" y="1134" type="curve" smooth="yes"/>
			<point x="1394" y="1217"/>
			<point x="1327" y="1284"/>
			<point x="1244" y="1284" type="curve" smooth="yes"/>
			<point x="1161" y="1284"/>
			<point x="1094" y="1217"/>
		</contour>
		<contour>
			<point x="1222" y="699" type="curve" smooth="yes"/>
			<point x="1222" y="472"/>
			<point x="1038" y="288"/>
			<point x="811" y="288" type="curve" smooth="yes"/>
			<point x="584" y="288"/>
			<point x="400" y="472"/>
			<point x="400" y="699" type="curve" smooth="yes"/>
			<point x="400" y="926"/>
			<point x="584" y="1110"/>
			<point x="811" y="1110" type="curve" smooth="yes"/>
			<point x="894" y="1110"/>
			<point x="961" y="1177"/>
			<point x="961" y="1260" type="curve" smooth="yes"/>
			<point x="961" y="1343"/>
			<point x="894" y="1410"/>
			<point x="811" y="1410" type="curve" smooth="yes"/>
			<point x="418" y="1410"/>
			<point x="100" y="1092"/>
			<point x="100" y="699" type="curve" smooth="yes"/>
			<point x="100" y="306"/>
			<point x="418" y="-12"/>
			<point x="811" y="-12" type="curve" smooth="yes"/>
			<point x="1204" y="-12"/>
			<point x="1522" y="306"/>
			<point x="1522" y="699" type="curve" smooth="yes"/>
			<point x="1522" y="782"/>
			<point x="1455" y="849"/>
			<point x="1372" y="849" type="curve" smooth="yes"/>
			<point x="1289" y="849"/>
			<point x="1222" y="782"/>
		</contour>
	</outline>
</glyph>
<glyph name="ordfeminine" format="2">
	<advance width="987"/>
	<unicode hex="00AA"/>
	<outline>
		<contour>
			<point x="369.488" y="729.604" type="curve"/>
			<point x="418.076" y="834.578" type="line"/>
			<point x="427.822" y="854.471"/>
			<point x="433.294" y="876.84"/>
			<point x="433.294" y="900.487" type="curve"/>
			<point x="433.294" y="983.331"/>
			<point x="366.137" y="1050.487"/>
			<point x="283.294" y="1050.487" type="curve"/>
			<point x="224.097" y="1050.487"/>
			<point x="172.91" y="1016.197"/>
			<point x="148.512" y="966.396" type="curve"/>
			<point x="99.924" y="861.422" type="line"/>
			<point x="90.178" y="841.529"/>
			<point x="84.706" y="819.16"/>
			<point x="84.706" y="795.513" type="curve"/>
			<point x="84.706" y="712.669"/>
			<point x="151.863" y="645.513"/>
			<point x="234.706" y="645.513" type="curve"/>
			<point x="293.903" y="645.513"/>
			<point x="345.09" y="679.803"/>
		</contour>
		<contour>
			<point x="880.284" y="881.126" type="curve"/>
			<point x="621.051" y="1331.165" type="line"/>
			<point x="594.824" y="1374.814"/>
			<point x="547.015" y="1404.019"/>
			<point x="492.384" y="1404.019" type="curve"/>
			<point x="409.54" y="1404.019"/>
			<point x="342.384" y="1336.863"/>
			<point x="342.384" y="1254.019" type="curve"/>
			<point x="342.384" y="1225.807"/>
			<point x="350.172" y="1199.414"/>
			<point x="363.716" y="1176.874" type="curve"/>
			<point x="622.949" y="726.835" type="line"/>
			<point x="649.176" y="683.185"/>
			<point x="696.985" y="653.981"/>
			<point x="751.616" y="653.981" type="curve"/>
			<point x="834.46" y="653.981"/>
			<point x="901.616" y="721.137"/>
			<point x="901.616" y="803.981" type="curve"/>
			<point x="901.616" y="832.193"/>
			<point x="893.828" y="858.585"/>
		</contour>
	</outline>
</glyph>
<glyph name="logicalnot" format="2">
	<advance width="1166"/>
	<unicode hex="00AC"/>
	<outline>
		<contour>
			<point x="906" y="980" type="curve"/>
			<point x="240" y="980" type="line"/>
			<point x="157.157" y="980"/>
			<point x="90" y="912.843"/>
			<point x="90" y="830" type="curve"/>
			<point x="90" y="747.157"/>
			<point x="157.157" y="680"/>
			<point x="240" y="680" type="curve"/>
			<point x="906" y="680" type="line"/>
			<point x="988.843" y="680"/>
			<point x="1056" y="747.157"/>
			<point x="1056" y="830" type="curve"/>
			<point x="1056" y="912.843"/>
			<point x="988.843" y="980"/>
		</contour>
		<contour>
			<point x="1056" y="505" type="curve"/>
			<point x="1056" y="830" type="line"/>
			<point x="756" y="830" type="line"/>
			<point x="756" y="505" type="line"/>
			<point x="756" y="422.157"/>
			<point x="823.157" y="355"/>
			<point x="906" y="355" type="curve"/>
			<point x="988.843" y="355"/>
			<point x="1056" y="422.157"/>
		</contour>
	</outline>
</glyph>
<glyph name="registered" format="2">
	<advance width="1620"/>
	<unicode hex="00AE"/>
	<outline>
		<contour>
			<point x="747" y="499.5" type="curve"/>
			<point x="747" y="653" type="line"/>
			<point x="747" y="699.945"/>
			<point x="708.945" y="738"/>
			<point x="662" y="738" type="curve"/>
			<point x="615.055" y="738"/>
			<point x="577" y="699.945"/>
			<point x="577" y="653" type="curve"/>
			<point x="577" y="499.5" type="line"/>
			<point x="577" y="452.555"/>
			<point x="615.055" y="414.5"/>
			<point x="662" y="414.5" type="curve"/>
			<point x="708.945" y="414.5"/>
			<point x="747" y="452.555"/>
		</contour>
		<contour>
			<point x="1057.122" y="550.789" type="curve"/>
			<point x="913.376" y="717.506" type="line"/>
			<point x="897.789" y="735.568"/>
			<point x="874.73" y="747"/>
			<point x="849" y="747" type="curve"/>
			<point x="802.055" y="747"/>
			<point x="764" y="708.945"/>
			<point x="764" y="662" type="curve"/>
			<point x="764" y="640.785"/>
			<point x="771.772" y="621.386"/>
			<point x="784.624" y="606.494" type="curve"/>
			<point x="928.968" y="439.086" type="line"/>
			<point x="944.55" y="421.224"/>
			<point x="967.479" y="409.937"/>
			<point x="993.045" y="409.937" type="curve"/>
			<point x="1039.99" y="409.937"/>
			<point x="1078.045" y="447.993"/>
			<point x="1078.045" y="494.937" type="curve"/>
			<point x="1078.045" y="516.316"/>
			<point x="1070.153" y="535.852"/>
		</contour>
		<component base="O"/>
		<contour>
			<point x="849" y="577" type="curve"/>
			<point x="864" y="577" type="line"/>
			<point x="986" y="577"/>
			<point x="1085" y="676"/>
			<point x="1085" y="799" type="curve"/>
			<point x="1085" y="921"/>
			<point x="986" y="1020"/>
			<point x="864" y="1020" type="curve"/>
			<point x="662" y="1020" type="line"/>
			<point x="615.055" y="1020"/>
			<point x="577" y="981.945"/>
			<point x="577" y="935" type="curve"/>
			<point x="577" y="888.055"/>
			<point x="615.055" y="850"/>
			<point x="662" y="850" type="curve"/>
			<point x="864" y="850" type="line"/>
			<point x="892" y="850"/>
			<point x="915" y="827"/>
			<point x="915" y="799" type="curve"/>
			<point x="915" y="770"/>
			<point x="892" y="747"/>
			<point x="864" y="747" type="curve"/>
			<point x="849" y="747" type="line"/>
			<point x="802.055" y="747"/>
			<point x="764" y="708.945"/>
			<point x="764" y="662" type="curve"/>
			<point x="764" y="615.055"/>
			<point x="802.055" y="577"/>
		</contour>
	</outline>
</glyph>
<glyph name="plusminus" format="2">
	<advance width="1166"/>
	<unicode hex="00B1"/>
	<outline>
		<contour>
			<point x="270" y="73" type="curve"/>
			<point x="895" y="73" type="line"/>
			<point x="977.843" y="73"/>
			<point x="1045" y="140.157"/>
			<point x="1045" y="223" type="curve"/>
			<point x="1045" y="305.843"/>
			<point x="977.843" y="373"/>
			<point x="895" y="373" type="curve"/>
			<point x="270" y="373" type="line"/>
			<point x="187.157" y="373"/>
			<point x="120" y="305.843"/>
			<point x="120" y="223" type="curve"/>
			<point x="120" y="140.157"/>
			<point x="187.157" y="73"/>
		</contour>
		<contour>
			<point x="270" y="646" type="curve"/>
			<point x="263" y="646" type="line"/>
			<point x="345.843" y="646"/>
			<point x="413" y="713.157"/>
			<point x="413" y="796" type="curve"/>
			<point x="413" y="878.843"/>
			<point x="345.843" y="946"/>
			<point x="263" y="946" type="curve"/>
			<point x="270" y="946" type="line"/>
			<point x="187.157" y="946"/>
			<point x="120" y="878.843"/>
			<point x="120" y="796" type="curve"/>
			<point x="120" y="713.157"/>
			<point x="187.157" y="646"/>
		</contour>
		<contour>
			<point x="733" y="550" type="curve"/>
			<point x="733" y="1042" type="line"/>
			<point x="733" y="1124.843"/>
			<point x="665.843" y="1192"/>
			<point x="583" y="1192" type="curve"/>
			<point x="500.157" y="1192"/>
			<point x="433" y="1124.843"/>
			<point x="433" y="1042" type="curve"/>
			<point x="433" y="550" type="line"/>
			<point x="433" y="467.157"/>
			<point x="500.157" y="400"/>
			<point x="583" y="400" type="curve"/>
			<point x="665.843" y="400"/>
			<point x="733" y="467.157"/>
		</contour>
		<contour>
			<point x="903" y="646" type="curve"/>
			<point x="896" y="646" type="line"/>
			<point x="978.843" y="646"/>
			<point x="1046" y="713.157"/>
			<point x="1046" y="796" type="curve"/>
			<point x="1046" y="878.843"/>
			<point x="978.843" y="946"/>
			<point x="896" y="946" type="curve"/>
			<point x="903" y="946" type="line"/>
			<point x="820.157" y="946"/>
			<point x="753" y="878.843"/>
			<point x="753" y="796" type="curve"/>
			<point x="753" y="713.157"/>
			<point x="820.157" y="646"/>
		</contour>
	</outline>
</glyph>
<glyph name="twosuperior" format="2">
	<advance width="638"/>
	<unicode hex="00B2"/>
	<outline>
		<contour>
			<point x="153.5" y="1023" type="curve"/>
			<point x="485.5" y="1023" type="line"/>
			<point x="526.922" y="1023"/>
			<point x="560.5" y="1056.578"/>
			<point x="560.5" y="1098" type="curve"/>
			<point x="560.5" y="1139.422"/>
			<point x="526.922" y="1173"/>
			<point x="485.5" y="1173" type="curve"/>
			<point x="153.5" y="1173" type="line"/>
			<point x="112.078" y="1173"/>
			<point x="78.5" y="1139.422"/>
			<point x="78.5" y="1098" type="curve"/>
			<point x="78.5" y="1056.578"/>
			<point x="112.078" y="1023"/>
		</contour>
		<contour>
			<point x="210.273" y="1052.445" type="curve"/>
			<point x="374.069" y="1261.782" type="line"/>
			<point x="384.05" y="1274.518"/>
			<point x="390" y="1290.564"/>
			<point x="390" y="1308" type="curve"/>
			<point x="390" y="1349.422"/>
			<point x="356.422" y="1383"/>
			<point x="315" y="1383" type="curve"/>
			<point x="291.014" y="1383"/>
			<point x="269.659" y="1371.741"/>
			<point x="255.931" y="1354.218" type="curve"/>
			<point x="92.917" y="1145.877" type="line"/>
			<point x="82.701" y="1133.061"/>
			<point x="76.595" y="1116.824"/>
			<point x="76.595" y="1099.161" type="curve"/>
			<point x="76.595" y="1057.739"/>
			<point x="110.174" y="1024.161"/>
			<point x="151.595" y="1024.161" type="curve"/>
			<point x="175.354" y="1024.161"/>
			<point x="196.531" y="1035.207"/>
		</contour>
		<contour>
			<point x="230" y="1559" type="curve"/>
			<point x="230" y="1610"/>
			<point x="271" y="1650"/>
			<point x="320" y="1650" type="curve"/>
			<point x="370" y="1650"/>
			<point x="410" y="1610"/>
			<point x="410" y="1559" type="curve"/>
			<point x="410" y="1517.578"/>
			<point x="443.578" y="1484"/>
			<point x="485" y="1484" type="curve"/>
			<point x="526.422" y="1484"/>
			<point x="560" y="1517.578"/>
			<point x="560" y="1559" type="curve"/>
			<point x="560" y="1692.6"/>
			<point x="452.6" y="1800"/>
			<point x="320" y="1800" type="curve"/>
			<point x="188.4" y="1800"/>
			<point x="80" y="1692.6"/>
			<point x="80" y="1559" type="curve"/>
			<point x="80" y="1517.578"/>
			<point x="113.578" y="1484"/>
			<point x="155" y="1484" type="curve"/>
			<point x="196.422" y="1484"/>
			<point x="230" y="1517.578"/>
		</contour>
	</outline>
</glyph>
<glyph name="uni00B2" format="2">
	<advance width="638"/>
	<unicode hex="00B2"/>
	<outline>
		<contour>
			<point x="154" y="623" type="curve" smooth="yes"/>
			<point x="486" y="623" type="line" smooth="yes"/>
			<point x="527" y="623"/>
			<point x="561" y="657"/>
			<point x="561" y="698" type="curve" smooth="yes"/>
			<point x="561" y="739"/>
			<point x="527" y="773"/>
			<point x="486" y="773" type="curve" smooth="yes"/>
			<point x="154" y="773" type="line" smooth="yes"/>
			<point x="112" y="773"/>
			<point x="79" y="739"/>
			<point x="79" y="698" type="curve" smooth="yes"/>
			<point x="79" y="657"/>
			<point x="112" y="623"/>
		</contour>
		<contour>
			<point x="210" y="652" type="curve" smooth="yes"/>
			<point x="374" y="862" type="line" smooth="yes"/>
			<point x="384" y="875"/>
			<point x="390" y="891"/>
			<point x="390" y="908" type="curve" smooth="yes"/>
			<point x="390" y="949"/>
			<point x="356" y="983"/>
			<point x="315" y="983" type="curve" smooth="yes"/>
			<point x="291" y="983"/>
			<point x="270" y="972"/>
			<point x="256" y="954" type="curve" smooth="yes"/>
			<point x="93" y="746" type="line" smooth="yes"/>
			<point x="83" y="733"/>
			<point x="77" y="717"/>
			<point x="77" y="699" type="curve" smooth="yes"/>
			<point x="77" y="658"/>
			<point x="110" y="624"/>
			<point x="152" y="624" type="curve" smooth="yes"/>
			<point x="175" y="624"/>
			<point x="197" y="635"/>
		</contour>
		<contour>
			<point x="230" y="1159" type="curve" smooth="yes"/>
			<point x="230" y="1210"/>
			<point x="271" y="1250"/>
			<point x="320" y="1250" type="curve" smooth="yes"/>
			<point x="370" y="1250"/>
			<point x="410" y="1210"/>
			<point x="410" y="1159" type="curve" smooth="yes"/>
			<point x="410" y="1118"/>
			<point x="444" y="1084"/>
			<point x="485" y="1084" type="curve" smooth="yes"/>
			<point x="526" y="1084"/>
			<point x="560" y="1118"/>
			<point x="560" y="1159" type="curve" smooth="yes"/>
			<point x="560" y="1293"/>
			<point x="453" y="1400"/>
			<point x="320" y="1400" type="curve" smooth="yes"/>
			<point x="188" y="1400"/>
			<point x="80" y="1293"/>
			<point x="80" y="1159" type="curve" smooth="yes"/>
			<point x="80" y="1118"/>
			<point x="114" y="1084"/>
			<point x="155" y="1084" type="curve" smooth="yes"/>
			<point x="196" y="1084"/>
			<point x="230" y="1118"/>
		</contour>
	</outline>
</glyph>
<glyph name="threesuperior" format="2">
	<advance width="638"/>
	<unicode hex="00B3"/>
	<outline>
		<contour>
			<point x="390" y="1245" type="curve"/>
			<point x="390" y="1205"/>
			<point x="357" y="1173"/>
			<point x="316" y="1173" type="curve"/>
			<point x="276" y="1173"/>
			<point x="244" y="1205"/>
			<point x="244" y="1245" type="curve"/>
			<point x="244" y="1286.422"/>
			<point x="210.422" y="1320"/>
			<point x="169" y="1320" type="curve"/>
			<point x="127.578" y="1320"/>
			<point x="94" y="1286.422"/>
			<point x="94" y="1245" type="curve"/>
			<point x="94" y="1122.4"/>
			<point x="193.4" y="1023"/>
			<point x="316" y="1023" type="curve"/>
			<point x="439.6" y="1023"/>
			<point x="540" y="1122.4"/>
			<point x="540" y="1245" type="curve"/>
			<point x="540" y="1286.422"/>
			<point x="506.422" y="1320"/>
			<point x="465" y="1320" type="curve"/>
			<point x="423.578" y="1320"/>
			<point x="390" y="1286.422"/>
		</contour>
		<contour>
			<point x="244" y="1577" type="curve"/>
			<point x="244" y="1618"/>
			<point x="277" y="1650"/>
			<point x="318" y="1650" type="curve"/>
			<point x="358" y="1650"/>
			<point x="390" y="1618"/>
			<point x="390" y="1577" type="curve"/>
			<point x="390" y="1537"/>
			<point x="358" y="1504"/>
			<point x="318" y="1504" type="curve"/>
			<point x="276.578" y="1504"/>
			<point x="243" y="1470.422"/>
			<point x="243" y="1429" type="curve"/>
			<point x="243" y="1387.578"/>
			<point x="276.578" y="1354"/>
			<point x="318" y="1354" type="curve"/>
			<point x="440.6" y="1354"/>
			<point x="540" y="1454.4"/>
			<point x="540" y="1577" type="curve"/>
			<point x="540" y="1700.6"/>
			<point x="440.6" y="1800"/>
			<point x="318" y="1800" type="curve"/>
			<point x="194.4" y="1800"/>
			<point x="94" y="1700.6"/>
			<point x="94" y="1577" type="curve"/>
			<point x="94" y="1535.578"/>
			<point x="127.578" y="1502"/>
			<point x="169" y="1502" type="curve"/>
			<point x="210.422" y="1502"/>
			<point x="244" y="1535.578"/>
		</contour>
	</outline>
</glyph>
<glyph name="uni00B3" format="2">
	<advance width="638"/>
	<unicode hex="00B3"/>
	<outline>
		<contour>
			<point x="390" y="1245" type="curve" smooth="yes"/>
			<point x="390" y="1205"/>
			<point x="357" y="1173"/>
			<point x="316" y="1173" type="curve" smooth="yes"/>
			<point x="276" y="1173"/>
			<point x="244" y="1205"/>
			<point x="244" y="1245" type="curve" smooth="yes"/>
			<point x="244" y="1286"/>
			<point x="210" y="1320"/>
			<point x="169" y="1320" type="curve" smooth="yes"/>
			<point x="128" y="1320"/>
			<point x="94" y="1286"/>
			<point x="94" y="1245" type="curve" smooth="yes"/>
			<point x="94" y="1122"/>
			<point x="193" y="1023"/>
			<point x="316" y="1023" type="curve" smooth="yes"/>
			<point x="440" y="1023"/>
			<point x="540" y="1122"/>
			<point x="540" y="1245" type="curve" smooth="yes"/>
			<point x="540" y="1286"/>
			<point x="506" y="1320"/>
			<point x="465" y="1320" type="curve" smooth="yes"/>
			<point x="424" y="1320"/>
			<point x="390" y="1286"/>
		</contour>
		<contour>
			<point x="244" y="1577" type="curve" smooth="yes"/>
			<point x="244" y="1618"/>
			<point x="277" y="1650"/>
			<point x="318" y="1650" type="curve" smooth="yes"/>
			<point x="358" y="1650"/>
			<point x="390" y="1618"/>
			<point x="390" y="1577" type="curve" smooth="yes"/>
			<point x="390" y="1537"/>
			<point x="358" y="1504"/>
			<point x="318" y="1504" type="curve" smooth="yes"/>
			<point x="277" y="1504"/>
			<point x="243" y="1470"/>
			<point x="243" y="1429" type="curve" smooth="yes"/>
			<point x="243" y="1388"/>
			<point x="277" y="1354"/>
			<point x="318" y="1354" type="curve" smooth="yes"/>
			<point x="441" y="1354"/>
			<point x="540" y="1454"/>
			<point x="540" y="1577" type="curve" smooth="yes"/>
			<point x="540" y="1701"/>
			<point x="441" y="1800"/>
			<point x="318" y="1800" type="curve" smooth="yes"/>
			<point x="194" y="1800"/>
			<point x="94" y="1701"/>
			<point x="94" y="1577" type="curve" smooth="yes"/>
			<point x="94" y="1536"/>
			<point x="128" y="1502"/>
			<point x="169" y="1502" type="curve" smooth="yes"/>
			<point x="210" y="1502"/>
			<point x="244" y="1536"/>
		</contour>
	</outline>
</glyph>
<glyph name="micro" format="2">
	<advance width="1328"/>
	<unicode hex="00B5"/>
	<outline>
		<contour>
			<point x="410" y="-250" type="curve"/>
			<point x="410" y="100" type="line"/>
			<point x="410" y="182.843"/>
			<point x="342.843" y="250"/>
			<point x="260" y="250" type="curve"/>
			<point x="177.157" y="250"/>
			<point x="110" y="182.843"/>
			<point x="110" y="100" type="curve"/>
			<point x="110" y="-250" type="line"/>
			<point x="110" y="-332.843"/>
			<point x="177.157" y="-400"/>
			<point x="260" y="-400" type="curve"/>
			<point x="342.843" y="-400"/>
			<point x="410" y="-332.843"/>
		</contour>
		<contour>
			<point x="410" y="500" type="curve"/>
			<point x="410" y="859" type="line"/>
			<point x="410" y="941.843"/>
			<point x="342.843" y="1009"/>
			<point x="260" y="1009" type="curve"/>
			<point x="177.157" y="1009"/>
			<point x="110" y="941.843"/>
			<point x="110" y="859" type="curve"/>
			<point x="110" y="500" type="line"/>
			<point x="110" y="417.157"/>
			<point x="177.157" y="350"/>
			<point x="260" y="350" type="curve"/>
			<point x="342.843" y="350"/>
			<point x="410" y="417.157"/>
		</contour>
		<contour>
			<point x="695" y="0" type="curve"/>
			<point x="985.8" y="0"/>
			<point x="1218" y="236.8"/>
			<point x="1218" y="524" type="curve"/>
			<point x="1218" y="858" type="line"/>
			<point x="1218" y="940.843"/>
			<point x="1150.843" y="1008"/>
			<point x="1068" y="1008" type="curve"/>
			<point x="985.157" y="1008"/>
			<point x="918" y="940.843"/>
			<point x="918" y="858" type="curve"/>
			<point x="918" y="524" type="line"/>
			<point x="918" y="400"/>
			<point x="818" y="300"/>
			<point x="695" y="300" type="curve"/>
			<point x="612.157" y="300"/>
			<point x="545" y="232.843"/>
			<point x="545" y="150" type="curve"/>
			<point x="545" y="67.157"/>
			<point x="612.157" y="0"/>
		</contour>
	</outline>
</glyph>
<glyph name="uni00B5" format="2">
	<advance width="1408"/>
	<unicode hex="00B5"/>
	<unicode hex="03BC"/>
	<outline>
		<contour>
			<point x="450" y="-250" type="curve" smooth="yes"/>
			<point x="450" y="100" type="line" smooth="yes"/>
			<point x="450" y="183"/>
			<point x="383" y="250"/>
			<point x="300" y="250" type="curve" smooth="yes"/>
			<point x="217" y="250"/>
			<point x="150" y="183"/>
			<point x="150" y="100" type="curve" smooth="yes"/>
			<point x="150" y="-250" type="line" smooth="yes"/>
			<point x="150" y="-333"/>
			<point x="217" y="-400"/>
			<point x="300" y="-400" type="curve" smooth="yes"/>
			<point x="383" y="-400"/>
			<point x="450" y="-333"/>
		</contour>
		<contour>
			<point x="450" y="500" type="curve" smooth="yes"/>
			<point x="450" y="859" type="line" smooth="yes"/>
			<point x="450" y="942"/>
			<point x="383" y="1009"/>
			<point x="300" y="1009" type="curve" smooth="yes"/>
			<point x="217" y="1009"/>
			<point x="150" y="942"/>
			<point x="150" y="859" type="curve" smooth="yes"/>
			<point x="150" y="500" type="line" smooth="yes"/>
			<point x="150" y="417"/>
			<point x="217" y="350"/>
			<point x="300" y="350" type="curve" smooth="yes"/>
			<point x="383" y="350"/>
			<point x="450" y="417"/>
		</contour>
		<contour>
			<point x="735" y="0" type="curve" smooth="yes"/>
			<point x="1026" y="0"/>
			<point x="1258" y="237"/>
			<point x="1258" y="524" type="curve" smooth="yes"/>
			<point x="1258" y="858" type="line" smooth="yes"/>
			<point x="1258" y="941"/>
			<point x="1191" y="1008"/>
			<point x="1108" y="1008" type="curve" smooth="yes"/>
			<point x="1025" y="1008"/>
			<point x="958" y="941"/>
			<point x="958" y="858" type="curve" smooth="yes"/>
			<point x="958" y="524" type="line" smooth="yes"/>
			<point x="958" y="400"/>
			<point x="858" y="300"/>
			<point x="735" y="300" type="curve" smooth="yes"/>
			<point x="652" y="300"/>
			<point x="585" y="233"/>
			<point x="585" y="150" type="curve" smooth="yes"/>
			<point x="585" y="67"/>
			<point x="652" y="0"/>
		</contour>
	</outline>
</glyph>
<glyph name="paragraph" format="2">
	<advance width="1585"/>
	<unicode hex="00B6"/>
	<outline>
		<contour>
			<point x="436" y="435" type="curve" smooth="yes"/>
			<point x="527" y="399"/>
			<point x="640" y="462"/>
			<point x="640" y="574" type="curve" smooth="yes"/>
			<point x="640" y="638"/>
			<point x="600" y="692"/>
			<point x="545" y="714" type="curve" smooth="yes"/>
			<point x="466" y="745"/>
			<point x="410" y="822"/>
			<point x="410" y="912" type="curve" smooth="yes"/>
			<point x="410" y="1002"/>
			<point x="466" y="1079"/>
			<point x="545" y="1110" type="curve" smooth="yes"/>
			<point x="601" y="1131"/>
			<point x="641" y="1186"/>
			<point x="641" y="1250" type="curve" smooth="yes"/>
			<point x="641" y="1364"/>
			<point x="524" y="1426"/>
			<point x="436" y="1389" type="curve" smooth="yes"/>
			<point x="245" y="1315"/>
			<point x="110" y="1129"/>
			<point x="110" y="912" type="curve" smooth="yes"/>
			<point x="110" y="695"/>
			<point x="245" y="509"/>
		</contour>
		<contour>
			<point x="1035" y="150" type="curve"/>
			<point x="1035" y="1250" type="line"/>
			<point x="1035" y="1332.843"/>
			<point x="967.843" y="1400"/>
			<point x="885" y="1400" type="curve"/>
			<point x="802.157" y="1400"/>
			<point x="735" y="1332.843"/>
			<point x="735" y="1250" type="curve"/>
			<point x="735" y="150" type="line"/>
			<point x="735" y="67.157"/>
			<point x="802.157" y="0"/>
			<point x="885" y="0" type="curve"/>
			<point x="967.843" y="0"/>
			<point x="1035" y="67.157"/>
		</contour>
		<contour>
			<point x="1435" y="150" type="curve"/>
			<point x="1435" y="1250" type="line"/>
			<point x="1435" y="1332.843"/>
			<point x="1367.843" y="1400"/>
			<point x="1285" y="1400" type="curve"/>
			<point x="1202.157" y="1400"/>
			<point x="1135" y="1332.843"/>
			<point x="1135" y="1250" type="curve"/>
			<point x="1135" y="150" type="line"/>
			<point x="1135" y="67.157"/>
			<point x="1202.157" y="0"/>
			<point x="1285" y="0" type="curve"/>
			<point x="1367.843" y="0"/>
			<point x="1435" y="67.157"/>
		</contour>
	</outline>
</glyph>
<glyph name="onesuperior" format="2">
	<advance width="638"/>
	<unicode hex="00B9"/>
	<outline>
		<contour>
			<point x="409" y="1098.5" type="curve"/>
			<point x="409" y="1251" type="line"/>
			<point x="409" y="1292.422"/>
			<point x="375.422" y="1326"/>
			<point x="334" y="1326" type="curve"/>
			<point x="292.578" y="1326"/>
			<point x="259" y="1292.422"/>
			<point x="259" y="1251" type="curve"/>
			<point x="259" y="1098.5" type="line"/>
			<point x="259" y="1057.078"/>
			<point x="292.578" y="1023.5"/>
			<point x="334" y="1023.5" type="curve"/>
			<point x="375.422" y="1023.5"/>
			<point x="409" y="1057.078"/>
		</contour>
		<contour>
			<point x="292.658" y="1787.582" type="curve"/>
			<point x="127.658" y="1678.582" type="line"/>
			<point x="107.375" y="1665.161"/>
			<point x="94" y="1642.143"/>
			<point x="94" y="1616" type="curve"/>
			<point x="94" y="1574.578"/>
			<point x="127.578" y="1541"/>
			<point x="169" y="1541" type="curve"/>
			<point x="184.279" y="1541"/>
			<point x="198.491" y="1545.569"/>
			<point x="210.342" y="1553.418" type="curve"/>
			<point x="375.342" y="1662.418" type="line"/>
			<point x="395.625" y="1675.839"/>
			<point x="409" y="1698.857"/>
			<point x="409" y="1725" type="curve"/>
			<point x="409" y="1766.422"/>
			<point x="375.422" y="1800"/>
			<point x="334" y="1800" type="curve"/>
			<point x="318.721" y="1800"/>
			<point x="304.509" y="1795.431"/>
		</contour>
		<contour>
			<point x="409" y="1495" type="curve"/>
			<point x="409" y="1724.5" type="line"/>
			<point x="409" y="1765.922"/>
			<point x="375.422" y="1799.5"/>
			<point x="334" y="1799.5" type="curve"/>
			<point x="292.578" y="1799.5"/>
			<point x="259" y="1765.922"/>
			<point x="259" y="1724.5" type="curve"/>
			<point x="259" y="1495" type="line"/>
			<point x="259" y="1453.578"/>
			<point x="292.578" y="1420"/>
			<point x="334" y="1420" type="curve"/>
			<point x="375.422" y="1420"/>
			<point x="409" y="1453.578"/>
		</contour>
	</outline>
</glyph>
<glyph name="uni00B9" format="2">
	<advance width="638"/>
	<unicode hex="00B9"/>
	<outline>
		<contour>
			<point x="409" y="1099" type="curve" smooth="yes"/>
			<point x="409" y="1251" type="line" smooth="yes"/>
			<point x="409" y="1292"/>
			<point x="375" y="1326"/>
			<point x="334" y="1326" type="curve" smooth="yes"/>
			<point x="293" y="1326"/>
			<point x="259" y="1292"/>
			<point x="259" y="1251" type="curve" smooth="yes"/>
			<point x="259" y="1099" type="line" smooth="yes"/>
			<point x="259" y="1057"/>
			<point x="293" y="1024"/>
			<point x="334" y="1024" type="curve" smooth="yes"/>
			<point x="375" y="1024"/>
			<point x="409" y="1057"/>
		</contour>
		<contour>
			<point x="293" y="1788" type="curve" smooth="yes"/>
			<point x="128" y="1679" type="line" smooth="yes"/>
			<point x="107" y="1665"/>
			<point x="94" y="1642"/>
			<point x="94" y="1616" type="curve" smooth="yes"/>
			<point x="94" y="1575"/>
			<point x="128" y="1541"/>
			<point x="169" y="1541" type="curve" smooth="yes"/>
			<point x="184" y="1541"/>
			<point x="198" y="1546"/>
			<point x="210" y="1553" type="curve" smooth="yes"/>
			<point x="375" y="1662" type="line" smooth="yes"/>
			<point x="396" y="1676"/>
			<point x="409" y="1699"/>
			<point x="409" y="1725" type="curve" smooth="yes"/>
			<point x="409" y="1766"/>
			<point x="375" y="1800"/>
			<point x="334" y="1800" type="curve" smooth="yes"/>
			<point x="319" y="1800"/>
			<point x="305" y="1795"/>
		</contour>
		<contour>
			<point x="409" y="1495" type="curve" smooth="yes"/>
			<point x="409" y="1725" type="line" smooth="yes"/>
			<point x="409" y="1766"/>
			<point x="375" y="1800"/>
			<point x="334" y="1800" type="curve" smooth="yes"/>
			<point x="293" y="1800"/>
			<point x="259" y="1766"/>
			<point x="259" y="1725" type="curve" smooth="yes"/>
			<point x="259" y="1495" type="line" smooth="yes"/>
			<point x="259" y="1454"/>
			<point x="293" y="1420"/>
			<point x="334" y="1420" type="curve" smooth="yes"/>
			<point x="375" y="1420"/>
			<point x="409" y="1454"/>
		</contour>
	</outline>
</glyph>
<glyph name="ordmasculine" format="2">
	<advance width="918"/>
	<unicode hex="00BA"/>
	<outline>
		<contour>
			<point x="206" y="1195" type="curve" smooth="yes"/>
			<point x="250" y="1195"/>
			<point x="287" y="1230"/>
			<point x="287" y="1276" type="curve" smooth="yes"/>
			<point x="287" y="1321"/>
			<point x="250" y="1358"/>
			<point x="206" y="1358" type="curve" smooth="yes"/>
			<point x="161" y="1358"/>
			<point x="124" y="1321"/>
			<point x="124" y="1276" type="curve" smooth="yes"/>
			<point x="124" y="1230"/>
			<point x="161" y="1195"/>
		</contour>
		<contour>
			<point x="459" y="1097" type="curve"/>
			<point x="499" y="1097"/>
			<point x="533" y="1064"/>
			<point x="533" y="1023" type="curve"/>
			<point x="533" y="983"/>
			<point x="499" y="949"/>
			<point x="459" y="949" type="curve"/>
			<point x="419" y="949"/>
			<point x="385" y="983"/>
			<point x="385" y="1023" type="curve"/>
			<point x="385" y="1105.843"/>
			<point x="317.843" y="1173"/>
			<point x="235" y="1173" type="curve"/>
			<point x="152.157" y="1173"/>
			<point x="85" y="1105.843"/>
			<point x="85" y="1023" type="curve"/>
			<point x="85" y="817.4"/>
			<point x="253.4" y="649"/>
			<point x="459" y="649" type="curve"/>
			<point x="664.6" y="649"/>
			<point x="833" y="817.4"/>
			<point x="833" y="1023" type="curve"/>
			<point x="833" y="1229.6"/>
			<point x="664.6" y="1397"/>
			<point x="459" y="1397" type="curve"/>
			<point x="376.157" y="1397"/>
			<point x="309" y="1329.843"/>
			<point x="309" y="1247" type="curve"/>
			<point x="309" y="1164.157"/>
			<point x="376.157" y="1097"/>
		</contour>
	</outline>
</glyph>
<glyph name="AE" format="2">
	<advance width="1971"/>
	<unicode hex="00C6"/>
	<unicode hex="00E6"/>
	<outline>
		<contour>
			<point x="389" y="92" type="curve" smooth="yes"/>
			<point x="817" y="1193" type="line"/>
			<point x="825" y="1210"/>
			<point x="829" y="1230"/>
			<point x="829" y="1250" type="curve" smooth="yes"/>
			<point x="829" y="1333"/>
			<point x="762" y="1400"/>
			<point x="679" y="1400" type="curve" smooth="yes"/>
			<point x="617" y="1400"/>
			<point x="563" y="1362"/>
			<point x="540" y="1308" type="curve" smooth="yes"/>
			<point x="112" y="207" type="line"/>
			<point x="104" y="190"/>
			<point x="100" y="170"/>
			<point x="100" y="150" type="curve" smooth="yes"/>
			<point x="100" y="67"/>
			<point x="167" y="0"/>
			<point x="250" y="0" type="curve" smooth="yes"/>
			<point x="312" y="0"/>
			<point x="366" y="38"/>
		</contour>
		<contour>
			<point x="1701" y="300" type="curve" smooth="yes"/>
			<point x="1018" y="300" type="line" smooth="yes"/>
			<point x="935" y="300"/>
			<point x="868" y="233"/>
			<point x="868" y="150" type="curve" smooth="yes"/>
			<point x="868" y="67"/>
			<point x="935" y="0"/>
			<point x="1018" y="0" type="curve" smooth="yes"/>
			<point x="1701" y="0" type="line" smooth="yes"/>
			<point x="1784" y="0"/>
			<point x="1851" y="67"/>
			<point x="1851" y="150" type="curve" smooth="yes"/>
			<point x="1851" y="233"/>
			<point x="1784" y="300"/>
		</contour>
		<contour>
			<point x="1168" y="140" type="line"/>
			<point x="1168" y="705" type="line" smooth="yes"/>
			<point x="1168" y="788"/>
			<point x="1101" y="855"/>
			<point x="1018" y="855" type="curve" smooth="yes"/>
			<point x="935" y="855"/>
			<point x="868" y="788"/>
			<point x="868" y="705" type="curve" smooth="yes"/>
			<point x="868" y="140" type="line"/>
		</contour>
		<contour>
			<point x="1436" y="550" type="curve" smooth="yes"/>
			<point x="1701" y="550" type="line" smooth="yes"/>
			<point x="1784" y="550"/>
			<point x="1851" y="617"/>
			<point x="1851" y="700" type="curve" smooth="yes"/>
			<point x="1851" y="783"/>
			<point x="1784" y="850"/>
			<point x="1701" y="850" type="curve" smooth="yes"/>
			<point x="1436" y="850" type="line" smooth="yes"/>
			<point x="1353" y="850"/>
			<point x="1286" y="783"/>
			<point x="1286" y="700" type="curve" smooth="yes"/>
			<point x="1286" y="617"/>
			<point x="1353" y="550"/>
		</contour>
		<contour>
			<point x="678" y="1100" type="curve" smooth="yes"/>
			<point x="1701" y="1100" type="line" smooth="yes"/>
			<point x="1784" y="1100"/>
			<point x="1851" y="1167"/>
			<point x="1851" y="1250" type="curve" smooth="yes"/>
			<point x="1851" y="1333"/>
			<point x="1784" y="1400"/>
			<point x="1701" y="1400" type="curve" smooth="yes"/>
			<point x="678" y="1400" type="line" smooth="yes"/>
			<point x="595" y="1400"/>
			<point x="528" y="1333"/>
			<point x="528" y="1250" type="curve" smooth="yes"/>
			<point x="528" y="1167"/>
			<point x="595" y="1100"/>
		</contour>
	</outline>
</glyph>
<glyph name="Eth" format="2">
	<advance width="1554"/>
	<unicode hex="00D0"/>
	<unicode hex="00F0"/>
	<anchor x="660" y="0" name="bottom"/>
	<anchor x="792" y="700" name="center"/>
	<anchor x="760" y="1400" name="top"/>
	<outline>
		<contour>
			<point x="174" y="286" type="curve"/>
			<point x="174" y="150" type="line"/>
			<point x="174" y="67.157"/>
			<point x="241.157" y="0"/>
			<point x="324" y="0" type="curve"/>
			<point x="406.843" y="0"/>
			<point x="474" y="67.157"/>
			<point x="474" y="150" type="curve"/>
			<point x="474" y="286" type="line"/>
			<point x="474" y="368.843"/>
			<point x="406.843" y="436"/>
			<point x="324" y="436" type="curve"/>
			<point x="241.157" y="436"/>
			<point x="174" y="368.843"/>
		</contour>
		<contour>
			<point x="466" y="850" type="curve"/>
			<point x="150" y="850" type="line"/>
			<point x="67.157" y="850"/>
			<point x="0" y="782.843"/>
			<point x="0" y="700" type="curve"/>
			<point x="0" y="617.157"/>
			<point x="67.157" y="550"/>
			<point x="150" y="550" type="curve"/>
			<point x="466" y="550" type="line"/>
			<point x="548.843" y="550"/>
			<point x="616" y="617.157"/>
			<point x="616" y="700" type="curve"/>
			<point x="616" y="782.843"/>
			<point x="548.843" y="850"/>
		</contour>
		<contour>
			<point x="754" y="0" type="curve"/>
			<point x="1139.6" y="0"/>
			<point x="1454" y="313.4"/>
			<point x="1454" y="701" type="curve"/>
			<point x="1454" y="1086.6"/>
			<point x="1139.6" y="1400"/>
			<point x="754" y="1400" type="curve"/>
			<point x="309" y="1400" type="line"/>
			<point x="226.157" y="1400"/>
			<point x="159" y="1332.843"/>
			<point x="159" y="1250" type="curve"/>
			<point x="159" y="1167.157"/>
			<point x="226.157" y="1100"/>
			<point x="309" y="1100" type="curve"/>
			<point x="754" y="1100" type="line"/>
			<point x="974" y="1100"/>
			<point x="1154" y="921"/>
			<point x="1154" y="701" type="curve"/>
			<point x="1154" y="479"/>
			<point x="974" y="300"/>
			<point x="754" y="300" type="curve"/>
			<point x="671.157" y="300"/>
			<point x="604" y="232.843"/>
			<point x="604" y="150" type="curve"/>
			<point x="604" y="67.157"/>
			<point x="671.157" y="0"/>
		</contour>
	</outline>
</glyph>
<glyph name="multiply" format="2">
	<advance width="1166"/>
	<unicode hex="00D7"/>
	<outline>
		<contour>
			<point x="721.643" y="349.225" type="curve"/>
			<point x="746.225" y="324.643" type="line"/>
			<point x="773.389" y="297.352"/>
			<point x="810.992" y="280.459"/>
			<point x="852.541" y="280.459" type="curve"/>
			<point x="935.384" y="280.459"/>
			<point x="1002.541" y="347.616"/>
			<point x="1002.541" y="430.459" type="curve"/>
			<point x="1002.541" y="472.008"/>
			<point x="985.649" y="509.611"/>
			<point x="958.357" y="536.775" type="curve"/>
			<point x="933.775" y="561.357" type="line"/>
			<point x="906.611" y="588.649"/>
			<point x="869.008" y="605.541"/>
			<point x="827.459" y="605.541" type="curve"/>
			<point x="744.616" y="605.541"/>
			<point x="677.459" y="538.384"/>
			<point x="677.459" y="455.541" type="curve"/>
			<point x="677.459" y="413.992"/>
			<point x="694.352" y="376.389"/>
		</contour>
		<contour>
			<point x="435.526" y="340.393" type="curve"/>
			<point x="943.607" y="848.474" type="line"/>
			<point x="970.751" y="875.619"/>
			<point x="987.541" y="913.119"/>
			<point x="987.541" y="954.541" type="curve"/>
			<point x="987.541" y="1037.384"/>
			<point x="920.384" y="1104.541"/>
			<point x="837.541" y="1104.541" type="curve"/>
			<point x="796.119" y="1104.541"/>
			<point x="758.619" y="1087.751"/>
			<point x="731.474" y="1060.607" type="curve"/>
			<point x="223.393" y="552.526" type="line"/>
			<point x="196.249" y="525.381"/>
			<point x="179.459" y="487.881"/>
			<point x="179.459" y="446.459" type="curve"/>
			<point x="179.459" y="363.616"/>
			<point x="246.616" y="296.459"/>
			<point x="329.459" y="296.459" type="curve"/>
			<point x="370.881" y="296.459"/>
			<point x="408.381" y="313.249"/>
		</contour>
		<contour>
			<point x="207.643" y="863.225" type="curve"/>
			<point x="232.225" y="838.643" type="line"/>
			<point x="259.389" y="811.352"/>
			<point x="296.992" y="794.459"/>
			<point x="338.541" y="794.459" type="curve"/>
			<point x="421.384" y="794.459"/>
			<point x="488.541" y="861.616"/>
			<point x="488.541" y="944.459" type="curve"/>
			<point x="488.541" y="986.008"/>
			<point x="471.649" y="1023.611"/>
			<point x="444.357" y="1050.775" type="curve"/>
			<point x="419.775" y="1075.357" type="line"/>
			<point x="392.611" y="1102.649"/>
			<point x="355.008" y="1119.541"/>
			<point x="313.459" y="1119.541" type="curve"/>
			<point x="230.616" y="1119.541"/>
			<point x="163.459" y="1052.384"/>
			<point x="163.459" y="969.541" type="curve"/>
			<point x="163.459" y="927.992"/>
			<point x="180.352" y="890.389"/>
		</contour>
	</outline>
</glyph>
<glyph name="Oslash" format="2">
	<advance width="1642"/>
	<unicode hex="00D8"/>
	<unicode hex="00F8"/>
	<outline>
		<contour>
			<point x="261" y="0" type="curve" smooth="yes"/>
			<point x="300" y="0"/>
			<point x="335" y="16"/>
			<point x="360" y="41" type="curve" smooth="yes"/>
			<point x="1479" y="1161" type="line" smooth="yes"/>
			<point x="1504" y="1186"/>
			<point x="1520" y="1221"/>
			<point x="1520" y="1260" type="curve" smooth="yes"/>
			<point x="1520" y="1337"/>
			<point x="1457" y="1400"/>
			<point x="1380" y="1400" type="curve" smooth="yes"/>
			<point x="1342" y="1400"/>
			<point x="1307" y="1384"/>
			<point x="1282" y="1360" type="curve" smooth="yes"/>
			<point x="162" y="239" type="line" smooth="yes"/>
			<point x="137" y="214"/>
			<point x="121" y="179"/>
			<point x="121" y="140" type="curve" smooth="yes"/>
			<point x="121" y="63"/>
			<point x="184" y="0"/>
		</contour>
		<contour>
			<point x="277" y="468" type="curve" smooth="yes"/>
			<point x="371" y="468"/>
			<point x="438" y="552"/>
			<point x="425" y="640" type="curve" smooth="yes"/>
			<point x="422" y="659"/>
			<point x="421" y="679"/>
			<point x="421" y="699" type="curve" smooth="yes"/>
			<point x="421" y="914"/>
			<point x="595" y="1099"/>
			<point x="821" y="1099" type="curve" smooth="yes"/>
			<point x="841" y="1099"/>
			<point x="861" y="1098"/>
			<point x="881" y="1095" type="curve" smooth="yes"/>
			<point x="969" y="1082"/>
			<point x="1052" y="1149"/>
			<point x="1052" y="1243" type="curve" smooth="yes"/>
			<point x="1052" y="1319"/>
			<point x="997" y="1381"/>
			<point x="924" y="1392" type="curve" smooth="yes"/>
			<point x="890" y="1397"/>
			<point x="855" y="1399"/>
			<point x="821" y="1399" type="curve" smooth="yes"/>
			<point x="427" y="1399"/>
			<point x="121" y="1077"/>
			<point x="121" y="699" type="curve" smooth="yes"/>
			<point x="121" y="665"/>
			<point x="124" y="630"/>
			<point x="128" y="596" type="curve" smooth="yes"/>
			<point x="139" y="524"/>
			<point x="201" y="468"/>
		</contour>
		<contour>
			<point x="821" y="1" type="curve" smooth="yes"/>
			<point x="1215" y="1"/>
			<point x="1521" y="323"/>
			<point x="1521" y="701" type="curve" smooth="yes"/>
			<point x="1521" y="735"/>
			<point x="1518" y="770"/>
			<point x="1514" y="804" type="curve" smooth="yes"/>
			<point x="1503" y="876"/>
			<point x="1441" y="932"/>
			<point x="1365" y="932" type="curve" smooth="yes"/>
			<point x="1271" y="932"/>
			<point x="1204" y="848"/>
			<point x="1217" y="760" type="curve" smooth="yes"/>
			<point x="1220" y="741"/>
			<point x="1221" y="721"/>
			<point x="1221" y="701" type="curve" smooth="yes"/>
			<point x="1221" y="486"/>
			<point x="1047" y="301"/>
			<point x="821" y="301" type="curve" smooth="yes"/>
			<point x="801" y="301"/>
			<point x="781" y="302"/>
			<point x="761" y="305" type="curve" smooth="yes"/>
			<point x="673" y="318"/>
			<point x="590" y="251"/>
			<point x="590" y="157" type="curve" smooth="yes"/>
			<point x="590" y="81"/>
			<point x="645" y="19"/>
			<point x="718" y="8" type="curve" smooth="yes"/>
			<point x="752" y="3"/>
			<point x="787" y="1"/>
		</contour>
	</outline>
</glyph>
<glyph name="Thorn" format="2">
	<advance width="1398"/>
	<unicode hex="00DE"/>
	<unicode hex="00FE"/>
	<outline>
		<contour>
			<point x="450" y="141" type="curve" smooth="yes"/>
			<point x="450" y="362" type="line" smooth="yes"/>
			<point x="450" y="445"/>
			<point x="383" y="512"/>
			<point x="300" y="512" type="curve" smooth="yes"/>
			<point x="217" y="512"/>
			<point x="150" y="445"/>
			<point x="150" y="362" type="curve" smooth="yes"/>
			<point x="150" y="141" type="line" smooth="yes"/>
			<point x="150" y="58"/>
			<point x="217" y="-9"/>
			<point x="300" y="-9" type="curve" smooth="yes"/>
			<point x="383" y="-9"/>
			<point x="450" y="58"/>
		</contour>
		<contour>
			<point x="150" y="1259" type="curve" smooth="yes"/>
			<point x="150" y="797" type="line" smooth="yes"/>
			<point x="150" y="714"/>
			<point x="217" y="647"/>
			<point x="300" y="647" type="curve" smooth="yes"/>
			<point x="383" y="647"/>
			<point x="450" y="714"/>
			<point x="450" y="797" type="curve" smooth="yes"/>
			<point x="450" y="1259" type="line" smooth="yes"/>
			<point x="450" y="1342"/>
			<point x="383" y="1409"/>
			<point x="300" y="1409" type="curve" smooth="yes"/>
			<point x="217" y="1409"/>
			<point x="150" y="1342"/>
		</contour>
		<contour>
			<point x="300" y="212" type="curve" smooth="yes"/>
			<point x="786" y="212" type="line" smooth="yes"/>
			<point x="1057" y="212"/>
			<point x="1275" y="431"/>
			<point x="1275" y="701" type="curve" smooth="yes"/>
			<point x="1275" y="972"/>
			<point x="1057" y="1190"/>
			<point x="786" y="1190" type="curve" smooth="yes"/>
			<point x="717" y="1190" type="line" smooth="yes"/>
			<point x="634" y="1190"/>
			<point x="567" y="1123"/>
			<point x="567" y="1040" type="curve" smooth="yes"/>
			<point x="567" y="957"/>
			<point x="634" y="890"/>
			<point x="717" y="890" type="curve" smooth="yes"/>
			<point x="786" y="890" type="line" smooth="yes"/>
			<point x="891" y="890"/>
			<point x="975" y="806"/>
			<point x="975" y="701" type="curve" smooth="yes"/>
			<point x="975" y="597"/>
			<point x="891" y="512"/>
			<point x="786" y="512" type="curve" smooth="yes"/>
			<point x="300" y="512" type="line" smooth="yes"/>
			<point x="217" y="512"/>
			<point x="150" y="445"/>
			<point x="150" y="362" type="curve" smooth="yes"/>
			<point x="150" y="279"/>
			<point x="217" y="212"/>
		</contour>
	</outline>
</glyph>
<glyph name="divide" format="2">
	<advance width="1166"/>
	<unicode hex="00F7"/>
	<outline>
		<contour>
			<point x="583" y="898" type="curve" smooth="yes"/>
			<point x="665" y="898"/>
			<point x="733" y="966"/>
			<point x="733" y="1048" type="curve" smooth="yes"/>
			<point x="733" y="1130"/>
			<point x="665" y="1198"/>
			<point x="583" y="1198" type="curve" smooth="yes"/>
			<point x="501" y="1198"/>
			<point x="433" y="1130"/>
			<point x="433" y="1048" type="curve" smooth="yes"/>
			<point x="433" y="966"/>
			<point x="501" y="898"/>
		</contour>
		<contour>
			<point x="583" y="202" type="curve" smooth="yes"/>
			<point x="665" y="202"/>
			<point x="733" y="270"/>
			<point x="733" y="352" type="curve" smooth="yes"/>
			<point x="733" y="434"/>
			<point x="665" y="502"/>
			<point x="583" y="502" type="curve" smooth="yes"/>
			<point x="501" y="502"/>
			<point x="433" y="434"/>
			<point x="433" y="352" type="curve" smooth="yes"/>
			<point x="433" y="270"/>
			<point x="501" y="202"/>
		</contour>
		<contour>
			<point x="256" y="550" type="curve" smooth="yes"/>
			<point x="911" y="550" type="line" smooth="yes"/>
			<point x="994" y="550"/>
			<point x="1061" y="617"/>
			<point x="1061" y="700" type="curve" smooth="yes"/>
			<point x="1061" y="783"/>
			<point x="994" y="850"/>
			<point x="911" y="850" type="curve" smooth="yes"/>
			<point x="256" y="850" type="line" smooth="yes"/>
			<point x="173" y="850"/>
			<point x="106" y="783"/>
			<point x="106" y="700" type="curve" smooth="yes"/>
			<point x="106" y="617"/>
			<point x="173" y="550"/>
		</contour>
	</outline>
</glyph>
<glyph name="Idotaccent" format="2">
	<advance width="600"/>
	<unicode hex="0130"/>
	<anchor x="300" y="1400" name="_top"/>
	<anchor x="300" y="1833" name="top"/>
	<outline>
		<contour>
			<point x="301" y="1534" type="curve" smooth="yes"/>
			<point x="382" y="1534"/>
			<point x="450" y="1602"/>
			<point x="450" y="1683" type="curve" smooth="yes"/>
			<point x="450" y="1765"/>
			<point x="381" y="1833"/>
			<point x="300" y="1833" type="curve" smooth="yes"/>
			<point x="219" y="1833"/>
			<point x="150" y="1765"/>
			<point x="150" y="1683" type="curve" smooth="yes"/>
			<point x="150" y="1602"/>
			<point x="220" y="1534"/>
		</contour>
		<component base="I"/>
	</outline>
</glyph>
<glyph name="Lslash" format="2">
	<advance width="1324"/>
	<unicode hex="0141"/>
	<unicode hex="0142"/>
	<outline>
		<contour>
			<point x="509" y="150" type="curve"/>
			<point x="509" y="379" type="line"/>
			<point x="509" y="461.843"/>
			<point x="441.843" y="529"/>
			<point x="359" y="529" type="curve"/>
			<point x="276.157" y="529"/>
			<point x="209" y="461.843"/>
			<point x="209" y="379" type="curve"/>
			<point x="209" y="150" type="line"/>
			<point x="209" y="67.157"/>
			<point x="276.157" y="0"/>
			<point x="359" y="0" type="curve"/>
			<point x="441.843" y="0"/>
			<point x="509" y="67.157"/>
		</contour>
		<contour>
			<point x="1089" y="300" type="curve"/>
			<point x="359" y="300" type="line"/>
			<point x="276.157" y="300"/>
			<point x="209" y="232.843"/>
			<point x="209" y="150" type="curve"/>
			<point x="209" y="67.157"/>
			<point x="276.157" y="0"/>
			<point x="359" y="0" type="curve"/>
			<point x="1089" y="0" type="line"/>
			<point x="1171.843" y="0"/>
			<point x="1239" y="67.157"/>
			<point x="1239" y="150" type="curve"/>
			<point x="1239" y="232.843"/>
			<point x="1171.843" y="300"/>
		</contour>
		<contour>
			<point x="529.925" y="951.675" type="curve"/>
			<point x="107.036" y="816.102" type="line"/>
			<point x="44.901" y="797.77"/>
			<point x="-0.445" y="740.288"/>
			<point x="-0.445" y="672.213" type="curve"/>
			<point x="-0.445" y="589.37"/>
			<point x="66.712" y="522.213"/>
			<point x="149.555" y="522.213" type="curve"/>
			<point x="164.324" y="522.213"/>
			<point x="178.595" y="524.348"/>
			<point x="192.075" y="528.325" type="curve"/>
			<point x="614.964" y="663.898" type="line"/>
			<point x="677.099" y="682.23"/>
			<point x="722.445" y="739.712"/>
			<point x="722.445" y="807.787" type="curve"/>
			<point x="722.445" y="890.63"/>
			<point x="655.288" y="957.787"/>
			<point x="572.445" y="957.787" type="curve"/>
			<point x="557.676" y="957.787"/>
			<point x="543.405" y="955.652"/>
		</contour>
		<contour>
			<point x="509" y="1101" type="curve"/>
			<point x="509" y="1259" type="line"/>
			<point x="509" y="1341.843"/>
			<point x="441.843" y="1409"/>
			<point x="359" y="1409" type="curve"/>
			<point x="276.157" y="1409"/>
			<point x="209" y="1341.843"/>
			<point x="209" y="1259" type="curve"/>
			<point x="209" y="1101" type="line"/>
			<point x="209" y="1018.157"/>
			<point x="276.157" y="951"/>
			<point x="359" y="951" type="curve"/>
			<point x="441.843" y="951"/>
			<point x="509" y="1018.157"/>
		</contour>
	</outline>
</glyph>
<glyph name="OE" format="2">
	<advance width="2144"/>
	<unicode hex="0152"/>
	<unicode hex="0153"/>
	<outline>
		<contour>
			<point x="1892" y="300" type="curve"/>
			<point x="1209" y="300" type="line"/>
			<point x="1126.157" y="300"/>
			<point x="1059" y="232.843"/>
			<point x="1059" y="150" type="curve"/>
			<point x="1059" y="67.157"/>
			<point x="1126.157" y="0"/>
			<point x="1209" y="0" type="curve"/>
			<point x="1892" y="0" type="line"/>
			<point x="1974.843" y="0"/>
			<point x="2042" y="67.157"/>
			<point x="2042" y="150" type="curve"/>
			<point x="2042" y="232.843"/>
			<point x="1974.843" y="300"/>
		</contour>
		<contour>
			<point x="1359" y="140" type="line"/>
			<point x="1359" y="705" type="line"/>
			<point x="1359" y="787.843"/>
			<point x="1291.843" y="855"/>
			<point x="1209" y="855" type="curve"/>
			<point x="1126.157" y="855"/>
			<point x="1059" y="787.843"/>
			<point x="1059" y="705" type="curve"/>
			<point x="1059" y="140" type="line"/>
		</contour>
		<contour>
			<point x="799" y="301" type="curve"/>
			<point x="578" y="301"/>
			<point x="400" y="479"/>
			<point x="400" y="700" type="curve"/>
			<point x="400" y="921"/>
			<point x="578" y="1099"/>
			<point x="799" y="1099" type="curve"/>
			<point x="1892" y="1099" type="line"/>
			<point x="1974.843" y="1099"/>
			<point x="2042" y="1166.157"/>
			<point x="2042" y="1249" type="curve"/>
			<point x="2042" y="1331.843"/>
			<point x="1974.843" y="1399"/>
			<point x="1892" y="1399" type="curve"/>
			<point x="799" y="1399" type="line"/>
			<point x="412.4" y="1399"/>
			<point x="100" y="1086.6"/>
			<point x="100" y="700" type="curve"/>
			<point x="100" y="313.4"/>
			<point x="412.4" y="1"/>
			<point x="799" y="1" type="curve"/>
			<point x="881.843" y="1"/>
			<point x="949" y="68.157"/>
			<point x="949" y="151" type="curve"/>
			<point x="949" y="233.843"/>
			<point x="881.843" y="301"/>
		</contour>
		<contour>
			<point x="1627" y="550" type="curve"/>
			<point x="1892" y="550" type="line"/>
			<point x="1974.843" y="550"/>
			<point x="2042" y="617.157"/>
			<point x="2042" y="700" type="curve"/>
			<point x="2042" y="782.843"/>
			<point x="1974.843" y="850"/>
			<point x="1892" y="850" type="curve"/>
			<point x="1627" y="850" type="line"/>
			<point x="1544.157" y="850"/>
			<point x="1477" y="782.843"/>
			<point x="1477" y="700" type="curve"/>
			<point x="1477" y="617.157"/>
			<point x="1544.157" y="550"/>
		</contour>
	</outline>
</glyph>
<glyph name="Schwa" format="2">
	<advance width="1640"/>
	<unicode hex="018F"/>
	<unicode hex="0259"/>
	<anchor x="820" y="0" name="bottom"/>
	<anchor x="820" y="700" name="center"/>
	<anchor x="1476" y="10" name="ogonek"/>
	<anchor x="820" y="1400" name="top"/>
	<anchor x="20" y="1400" name="topleft"/>
	<anchor x="1620" y="1400" name="topright"/>
	<outline>
		<contour>
			<point x="820" y="1100" type="curve"/>
			<point x="1041" y="1100"/>
			<point x="1220" y="921"/>
			<point x="1220" y="700" type="curve"/>
			<point x="1220" y="479"/>
			<point x="1041" y="300"/>
			<point x="820" y="300" type="curve"/>
			<point x="599" y="300"/>
			<point x="420" y="479"/>
			<point x="420" y="700" type="curve"/>
			<point x="420" y="782.843"/>
			<point x="352.843" y="850"/>
			<point x="270" y="850" type="curve"/>
			<point x="187.157" y="850"/>
			<point x="120" y="782.843"/>
			<point x="120" y="700" type="curve"/>
			<point x="120" y="313.4"/>
			<point x="433.4" y="0"/>
			<point x="820" y="0" type="curve"/>
			<point x="1206.6" y="0"/>
			<point x="1520" y="313.4"/>
			<point x="1520" y="700" type="curve"/>
			<point x="1520" y="1086.6"/>
			<point x="1206.6" y="1400"/>
			<point x="820" y="1400" type="curve"/>
			<point x="737.157" y="1400"/>
			<point x="670" y="1332.843"/>
			<point x="670" y="1250" type="curve"/>
			<point x="670" y="1167.157"/>
			<point x="737.157" y="1100"/>
		</contour>
		<contour>
			<point x="270" y="550" type="curve"/>
			<point x="920" y="550" type="line"/>
			<point x="1002.843" y="550"/>
			<point x="1070" y="617.157"/>
			<point x="1070" y="700" type="curve"/>
			<point x="1070" y="782.843"/>
			<point x="1002.843" y="850"/>
			<point x="920" y="850" type="curve"/>
			<point x="270" y="850" type="line"/>
			<point x="187.157" y="850"/>
			<point x="120" y="782.843"/>
			<point x="120" y="700" type="curve"/>
			<point x="120" y="617.157"/>
			<point x="187.157" y="550"/>
		</contour>
	</outline>
</glyph>
<glyph name="uni018F" format="2">
	<advance width="1640"/>
	<unicode hex="018F"/>
	<unicode hex="0259"/>
	<anchor x="820" y="0" name="bottom"/>
	<anchor x="820" y="700" name="center"/>
	<anchor x="1476" y="10" name="ogonek"/>
	<anchor x="820" y="1400" name="top"/>
	<anchor x="20" y="1400" name="topleft"/>
	<anchor x="1620" y="1400" name="topright"/>
	<outline>
		<contour>
			<point x="820" y="1100" type="curve" smooth="yes"/>
			<point x="1041" y="1100"/>
			<point x="1220" y="921"/>
			<point x="1220" y="700" type="curve" smooth="yes"/>
			<point x="1220" y="479"/>
			<point x="1041" y="300"/>
			<point x="820" y="300" type="curve" smooth="yes"/>
			<point x="599" y="300"/>
			<point x="420" y="479"/>
			<point x="420" y="700" type="curve" smooth="yes"/>
			<point x="420" y="783"/>
			<point x="353" y="850"/>
			<point x="270" y="850" type="curve" smooth="yes"/>
			<point x="187" y="850"/>
			<point x="120" y="783"/>
			<point x="120" y="700" type="curve" smooth="yes"/>
			<point x="120" y="313"/>
			<point x="433" y="0"/>
			<point x="820" y="0" type="curve" smooth="yes"/>
			<point x="1207" y="0"/>
			<point x="1520" y="313"/>
			<point x="1520" y="700" type="curve" smooth="yes"/>
			<point x="1520" y="1087"/>
			<point x="1207" y="1400"/>
			<point x="820" y="1400" type="curve" smooth="yes"/>
			<point x="737" y="1400"/>
			<point x="670" y="1333"/>
			<point x="670" y="1250" type="curve" smooth="yes"/>
			<point x="670" y="1167"/>
			<point x="737" y="1100"/>
		</contour>
		<contour>
			<point x="270" y="550" type="curve" smooth="yes"/>
			<point x="920" y="550" type="line" smooth="yes"/>
			<point x="1003" y="550"/>
			<point x="1070" y="617"/>
			<point x="1070" y="700" type="curve" smooth="yes"/>
			<point x="1070" y="783"/>
			<point x="1003" y="850"/>
			<point x="920" y="850" type="curve" smooth="yes"/>
			<point x="270" y="850" type="line" smooth="yes"/>
			<point x="187" y="850"/>
			<point x="120" y="783"/>
			<point x="120" y="700" type="curve" smooth="yes"/>
			<point x="120" y="617"/>
			<point x="187" y="550"/>
		</contour>
	</outline>
</glyph>
<glyph name="florin" format="2">
	<advance width="970"/>
	<unicode hex="0192"/>
	<outline>
		<contour>
			<point x="325" y="342" type="curve"/>
			<point x="325" y="-52" type="line"/>
			<point x="325" y="-78"/>
			<point x="304" y="-99"/>
			<point x="279" y="-99" type="curve"/>
			<point x="196.157" y="-99"/>
			<point x="129" y="-166.157"/>
			<point x="129" y="-249" type="curve"/>
			<point x="129" y="-331.843"/>
			<point x="196.157" y="-399"/>
			<point x="279" y="-399" type="curve"/>
			<point x="469.6" y="-399"/>
			<point x="625" y="-243.6"/>
			<point x="625" y="-52" type="curve"/>
			<point x="625" y="342" type="line"/>
			<point x="625" y="424.843"/>
			<point x="557.843" y="492"/>
			<point x="475" y="492" type="curve"/>
			<point x="392.157" y="492"/>
			<point x="325" y="424.843"/>
		</contour>
		<contour>
			<point x="260" y="550" type="curve"/>
			<point x="710" y="550" type="line"/>
			<point x="792.843" y="550"/>
			<point x="860" y="617.157"/>
			<point x="860" y="700" type="curve"/>
			<point x="860" y="782.843"/>
			<point x="792.843" y="850"/>
			<point x="710" y="850" type="curve"/>
			<point x="260" y="850" type="line"/>
			<point x="177.157" y="850"/>
			<point x="110" y="782.843"/>
			<point x="110" y="700" type="curve"/>
			<point x="110" y="617.157"/>
			<point x="177.157" y="550"/>
		</contour>
		<contour>
			<point x="625" y="1052" type="curve"/>
			<point x="625" y="1078"/>
			<point x="646" y="1099"/>
			<point x="671" y="1099" type="curve"/>
			<point x="753.843" y="1099"/>
			<point x="821" y="1166.157"/>
			<point x="821" y="1249" type="curve"/>
			<point x="821" y="1331.843"/>
			<point x="753.843" y="1399"/>
			<point x="671" y="1399" type="curve"/>
			<point x="480.4" y="1399"/>
			<point x="325" y="1243.6"/>
			<point x="325" y="1052" type="curve"/>
			<point x="325" y="969.157"/>
			<point x="392.157" y="902"/>
			<point x="475" y="902" type="curve"/>
			<point x="557.843" y="902"/>
			<point x="625" y="969.157"/>
		</contour>
	</outline>
</glyph>
<glyph name="gravecomb" format="2">
	<advance width="0"/>
	<unicode hex="0300"/>
	<anchor x="0" y="1400" name="_top"/>
	<anchor x="0" y="1890" name="top"/>
	<outline>
		<contour>
			<point x="-326" y="1698" type="curve" smooth="yes"/>
			<point x="-95" y="1544" type="line" smooth="yes"/>
			<point x="-79" y="1533"/>
			<point x="-60" y="1527"/>
			<point x="-39" y="1527" type="curve" smooth="yes"/>
			<point x="16" y="1527"/>
			<point x="61" y="1572"/>
			<point x="61" y="1627" type="curve" smooth="yes"/>
			<point x="61" y="1661"/>
			<point x="44" y="1691"/>
			<point x="18" y="1709" type="curve" smooth="yes"/>
			<point x="-213" y="1863" type="line" smooth="yes"/>
			<point x="-229" y="1874"/>
			<point x="-248" y="1880"/>
			<point x="-269" y="1880" type="curve" smooth="yes"/>
			<point x="-324" y="1880"/>
			<point x="-369" y="1835"/>
			<point x="-369" y="1780" type="curve" smooth="yes"/>
			<point x="-369" y="1746"/>
			<point x="-352" y="1716"/>
		</contour>
	</outline>
</glyph>
<glyph name="acutecomb" format="2">
	<advance width="0"/>
	<unicode hex="0301"/>
	<anchor x="0" y="1400" name="_top"/>
	<anchor x="0" y="1890" name="top"/>
	<outline>
		<contour>
			<point x="95.489" y="1544.408" type="curve"/>
			<point x="325.66" y="1697.653" type="line"/>
			<point x="351.887" y="1715.679"/>
			<point x="369.085" y="1745.892"/>
			<point x="369.085" y="1780.122" type="curve"/>
			<point x="369.085" y="1835.351"/>
			<point x="324.314" y="1880.122"/>
			<point x="269.085" y="1880.122" type="curve"/>
			<point x="248.087" y="1880.122"/>
			<point x="228.6" y="1873.65"/>
			<point x="212.511" y="1862.592" type="curve"/>
			<point x="-17.66" y="1709.347" type="line"/>
			<point x="-43.887" y="1691.321"/>
			<point x="-61.085" y="1661.108"/>
			<point x="-61.085" y="1626.878" type="curve"/>
			<point x="-61.085" y="1571.649"/>
			<point x="-16.314" y="1526.878"/>
			<point x="38.915" y="1526.878" type="curve"/>
			<point x="59.913" y="1526.878"/>
			<point x="79.4" y="1533.35"/>
		</contour>
	</outline>
</glyph>
<glyph name="circumflexcomb" format="2">
	<advance width="0"/>
	<unicode hex="0302"/>
	<anchor x="0" y="1400" name="_top"/>
	<anchor x="0" y="1880" name="top"/>
	<anchor x="235" y="1651" name="top_viet"/>
	<anchor x="453" y="1640" name="top_viet_grave"/>
	<outline>
		<contour>
			<point x="-56.489" y="1862.592" type="curve"/>
			<point x="-286.66" y="1709.347" type="line"/>
			<point x="-312.887" y="1691.321"/>
			<point x="-330.085" y="1661.108"/>
			<point x="-330.085" y="1626.878" type="curve"/>
			<point x="-330.085" y="1571.649"/>
			<point x="-285.314" y="1526.878"/>
			<point x="-230.085" y="1526.878" type="curve"/>
			<point x="-209.087" y="1526.878"/>
			<point x="-189.6" y="1533.35"/>
			<point x="-173.511" y="1544.408" type="curve"/>
			<point x="56.66" y="1697.653" type="line"/>
			<point x="82.887" y="1715.679"/>
			<point x="100.085" y="1745.892"/>
			<point x="100.085" y="1780.122" type="curve"/>
			<point x="100.085" y="1835.351"/>
			<point x="55.314" y="1880.122"/>
			<point x="0.085" y="1880.122" type="curve"/>
			<point x="-20.913" y="1880.122"/>
			<point x="-40.4" y="1873.65"/>
		</contour>
		<contour>
			<point x="-56.47" y="1697.795" type="line"/>
			<point x="173.494" y="1544.486" type="line"/>
			<point x="189.592" y="1533.408"/>
			<point x="209.096" y="1526.923"/>
			<point x="230.115" y="1526.923" type="curve"/>
			<point x="285.344" y="1526.923"/>
			<point x="330.115" y="1571.694"/>
			<point x="330.115" y="1626.923" type="curve"/>
			<point x="330.115" y="1661.133"/>
			<point x="312.938" y="1691.33"/>
			<point x="286.737" y="1709.36" type="curve"/>
			<point x="54.47" y="1864.205" type="line"/>
		</contour>
	</outline>
</glyph>
<glyph name="uni0302" format="2">
	<advance width="0"/>
	<unicode hex="0302"/>
	<anchor x="0" y="1400" name="_top"/>
	<anchor x="0" y="1880" name="top"/>
	<anchor x="235" y="1651" name="top_viet"/>
	<anchor x="453" y="1640" name="top_viet_grave"/>
	<outline>
		<contour>
			<point x="-56" y="1863" type="curve" smooth="yes"/>
			<point x="-287" y="1709" type="line" smooth="yes"/>
			<point x="-313" y="1691"/>
			<point x="-330" y="1661"/>
			<point x="-330" y="1627" type="curve" smooth="yes"/>
			<point x="-330" y="1572"/>
			<point x="-285" y="1527"/>
			<point x="-230" y="1527" type="curve" smooth="yes"/>
			<point x="-209" y="1527"/>
			<point x="-190" y="1533"/>
			<point x="-174" y="1544" type="curve" smooth="yes"/>
			<point x="57" y="1698" type="line" smooth="yes"/>
			<point x="83" y="1716"/>
			<point x="100" y="1746"/>
			<point x="100" y="1780" type="curve" smooth="yes"/>
			<point x="100" y="1835"/>
			<point x="55" y="1880"/>
			<point x="0" y="1880" type="curve" smooth="yes"/>
			<point x="-21" y="1880"/>
			<point x="-40" y="1874"/>
		</contour>
		<contour>
			<point x="-56" y="1698" type="line"/>
			<point x="173" y="1544" type="line" smooth="yes"/>
			<point x="190" y="1533"/>
			<point x="209" y="1527"/>
			<point x="230" y="1527" type="curve" smooth="yes"/>
			<point x="285" y="1527"/>
			<point x="330" y="1572"/>
			<point x="330" y="1627" type="curve" smooth="yes"/>
			<point x="330" y="1661"/>
			<point x="313" y="1691"/>
			<point x="287" y="1709" type="curve" smooth="yes"/>
			<point x="54" y="1864" type="line"/>
		</contour>
	</outline>
</glyph>
<glyph name="tildecomb" format="2">
	<advance width="0"/>
	<unicode hex="0303"/>
	<anchor x="0" y="1400" name="_top"/>
	<anchor x="0" y="1845" name="top"/>
	<outline>
		<contour>
			<point x="168.516" y="1765.796" type="curve"/>
			<point x="153.356" y="1722.078"/>
			<point x="110.698" y="1727.858"/>
			<point x="67.999" y="1767.322" type="curve"/>
			<point x="-58.669" y="1885.194"/>
			<point x="-291.664" y="1877.377"/>
			<point x="-357.484" y="1687.796" type="curve"/>
			<point x="-361.063" y="1677.525"/>
			<point x="-363" y="1666.489"/>
			<point x="-363" y="1655" type="curve"/>
			<point x="-363" y="1599.771"/>
			<point x="-318.229" y="1555"/>
			<point x="-263" y="1555" type="curve"/>
			<point x="-219.26" y="1555"/>
			<point x="-182.08" y="1583.081"/>
			<point x="-168.516" y="1622.204" type="curve"/>
			<point x="-152.429" y="1668.591"/>
			<point x="-115.492" y="1664.873"/>
			<point x="-67.999" y="1620.678" type="curve"/>
			<point x="59.342" y="1502.983"/>
			<point x="293.828" y="1516.858"/>
			<point x="357.484" y="1700.204" type="curve"/>
			<point x="361.063" y="1710.475"/>
			<point x="363" y="1721.511"/>
			<point x="363" y="1733" type="curve"/>
			<point x="363" y="1788.229"/>
			<point x="318.229" y="1833"/>
			<point x="263" y="1833" type="curve"/>
			<point x="219.26" y="1833"/>
			<point x="182.08" y="1804.919"/>
		</contour>
	</outline>
</glyph>
<glyph name="macroncomb" format="2">
	<advance width="0"/>
	<unicode hex="0304"/>
	<anchor x="0" y="1400" name="_top"/>
	<anchor x="0" y="1772" name="top"/>
	<outline>
		<contour>
			<point x="-219" y="1572" type="curve"/>
			<point x="219" y="1572" type="line"/>
			<point x="274.229" y="1572"/>
			<point x="319" y="1616.771"/>
			<point x="319" y="1672" type="curve"/>
			<point x="319" y="1727.229"/>
			<point x="274.229" y="1772"/>
			<point x="219" y="1772" type="curve"/>
			<point x="-219" y="1772" type="line"/>
			<point x="-274.229" y="1772"/>
			<point x="-319" y="1727.229"/>
			<point x="-319" y="1672" type="curve"/>
			<point x="-319" y="1616.771"/>
			<point x="-274.229" y="1572"/>
		</contour>
	</outline>
</glyph>
<glyph name="uni0304" format="2">
	<advance width="0"/>
	<unicode hex="0304"/>
	<anchor x="0" y="1400" name="_top"/>
	<anchor x="0" y="1772" name="top"/>
	<outline>
		<contour>
			<point x="-219" y="1572" type="curve" smooth="yes"/>
			<point x="219" y="1572" type="line" smooth="yes"/>
			<point x="274" y="1572"/>
			<point x="319" y="1617"/>
			<point x="319" y="1672" type="curve" smooth="yes"/>
			<point x="319" y="1727"/>
			<point x="274" y="1772"/>
			<point x="219" y="1772" type="curve" smooth="yes"/>
			<point x="-219" y="1772" type="line" smooth="yes"/>
			<point x="-274" y="1772"/>
			<point x="-319" y="1727"/>
			<point x="-319" y="1672" type="curve" smooth="yes"/>
			<point x="-319" y="1617"/>
			<point x="-274" y="1572"/>
		</contour>
	</outline>
</glyph>
<glyph name="brevecomb" format="2">
	<advance width="0"/>
	<unicode hex="0306"/>
	<anchor x="0" y="1400" name="_top"/>
	<anchor x="0" y="1868" name="top"/>
	<outline>
		<contour>
			<point x="1" y="1523" type="curve" smooth="yes"/>
			<point x="149" y="1523"/>
			<point x="275" y="1616"/>
			<point x="323" y="1747" type="curve" smooth="yes"/>
			<point x="344" y="1801"/>
			<point x="311" y="1880"/>
			<point x="231" y="1880" type="curve" smooth="yes"/>
			<point x="187" y="1880"/>
			<point x="149" y="1851"/>
			<point x="137" y="1810" type="curve" smooth="yes"/>
			<point x="120" y="1753"/>
			<point x="73" y="1723"/>
			<point x="1" y="1723" type="curve" smooth="yes"/>
			<point x="-73" y="1723"/>
			<point x="-120" y="1753"/>
			<point x="-137" y="1810" type="curve" smooth="yes"/>
			<point x="-149" y="1850"/>
			<point x="-187" y="1880"/>
			<point x="-231" y="1880" type="curve" smooth="yes"/>
			<point x="-311" y="1880"/>
			<point x="-342" y="1799"/>
			<point x="-323" y="1747" type="curve" smooth="yes"/>
			<point x="-275" y="1616"/>
			<point x="-148" y="1523"/>
		</contour>
	</outline>
</glyph>
<glyph name="hookabovecomb" format="2">
	<advance width="0"/>
	<unicode hex="0309"/>
	<anchor x="0" y="1400" name="_top"/>
	<anchor x="0" y="1931" name="top"/>
	<outline>
		<contour>
			<point x="-53" y="1791" type="curve"/>
			<point x="-16" y="1791"/>
			<point x="13" y="1762"/>
			<point x="13" y="1725" type="curve"/>
			<point x="13" y="1688"/>
			<point x="-16" y="1659"/>
			<point x="-53" y="1659" type="curve"/>
			<point x="-91.66" y="1659"/>
			<point x="-123" y="1627.66"/>
			<point x="-123" y="1589" type="curve"/>
			<point x="-123" y="1550.34"/>
			<point x="-91.66" y="1519"/>
			<point x="-53" y="1519" type="curve"/>
			<point x="61.2" y="1519"/>
			<point x="153" y="1610.8"/>
			<point x="153" y="1725" type="curve"/>
			<point x="153" y="1839.2"/>
			<point x="61.2" y="1931"/>
			<point x="-53" y="1931" type="curve"/>
			<point x="-91.66" y="1931"/>
			<point x="-123" y="1899.66"/>
			<point x="-123" y="1861" type="curve"/>
			<point x="-123" y="1822.34"/>
			<point x="-91.66" y="1791"/>
		</contour>
	</outline>
</glyph>
<glyph name="ringcomb" format="2">
	<advance width="0"/>
	<unicode hex="030A"/>
	<anchor x="0" y="1400" name="_top"/>
	<anchor x="0" y="1931" name="top"/>
	<outline>
		<contour>
			<point x="0" y="1659" type="curve"/>
			<point x="-37" y="1659"/>
			<point x="-66" y="1688"/>
			<point x="-66" y="1725" type="curve"/>
			<point x="-66" y="1762"/>
			<point x="-37" y="1791"/>
			<point x="0" y="1791" type="curve"/>
			<point x="37" y="1791"/>
			<point x="66" y="1762"/>
			<point x="66" y="1725" type="curve"/>
			<point x="66" y="1688"/>
			<point x="37" y="1659"/>
		</contour>
		<contour>
			<point x="0" y="1519" type="curve"/>
			<point x="114.2" y="1519"/>
			<point x="206" y="1610.8"/>
			<point x="206" y="1725" type="curve"/>
			<point x="206" y="1839.2"/>
			<point x="114.2" y="1931"/>
			<point x="0" y="1931" type="curve"/>
			<point x="-114.2" y="1931"/>
			<point x="-206" y="1839.2"/>
			<point x="-206" y="1725" type="curve"/>
			<point x="-206" y="1610.8"/>
			<point x="-114.2" y="1519"/>
		</contour>
	</outline>
</glyph>
<glyph name="hungarumlautcomb" format="2">
	<advance width="0"/>
	<unicode hex="030B"/>
	<anchor x="0" y="1400" name="_top"/>
	<anchor x="0" y="1883" name="top"/>
	<outline>
		<contour>
			<point x="-160.088" y="1857.314" type="curve"/>
			<point x="-334.843" y="1701.223" type="line"/>
			<point x="-355.128" y="1682.921"/>
			<point x="-367.877" y="1656.427"/>
			<point x="-367.877" y="1626.954" type="curve"/>
			<point x="-367.877" y="1571.725"/>
			<point x="-323.106" y="1526.954"/>
			<point x="-267.877" y="1526.954" type="curve"/>
			<point x="-242.121" y="1526.954"/>
			<point x="-218.639" y="1536.692"/>
			<point x="-200.912" y="1552.686" type="curve"/>
			<point x="-26.157" y="1708.777" type="line"/>
			<point x="-5.872" y="1727.079"/>
			<point x="6.877" y="1753.573"/>
			<point x="6.877" y="1783.046" type="curve"/>
			<point x="6.877" y="1838.275"/>
			<point x="-37.894" y="1883.046"/>
			<point x="-93.123" y="1883.046" type="curve"/>
			<point x="-118.879" y="1883.046"/>
			<point x="-142.361" y="1873.308"/>
		</contour>
		<contour>
			<point x="200.912" y="1857.314" type="curve"/>
			<point x="26.157" y="1701.223" type="line"/>
			<point x="5.872" y="1682.921"/>
			<point x="-6.877" y="1656.427"/>
			<point x="-6.877" y="1626.954" type="curve"/>
			<point x="-6.877" y="1571.725"/>
			<point x="37.894" y="1526.954"/>
			<point x="93.123" y="1526.954" type="curve"/>
			<point x="118.879" y="1526.954"/>
			<point x="142.361" y="1536.692"/>
			<point x="160.088" y="1552.686" type="curve"/>
			<point x="334.843" y="1708.777" type="line"/>
			<point x="355.128" y="1727.079"/>
			<point x="367.877" y="1753.573"/>
			<point x="367.877" y="1783.046" type="curve"/>
			<point x="367.877" y="1838.275"/>
			<point x="323.106" y="1883.046"/>
			<point x="267.877" y="1883.046" type="curve"/>
			<point x="242.121" y="1883.046"/>
			<point x="218.639" y="1873.308"/>
		</contour>
	</outline>
</glyph>
<glyph name="horncomb" format="2">
	<advance width="0"/>
	<unicode hex="031B"/>
	<anchor x="-198" y="1251" name="_topright"/>
	<anchor x="173" y="1445" name="topright"/>
	<outline>
		<contour>
			<point x="50.988" y="1138.668" type="curve"/>
			<point x="170.909" y="1243.738" type="line"/>
			<point x="201.917" y="1271.218"/>
			<point x="221.461" y="1311.344"/>
			<point x="221.461" y="1356.035" type="curve"/>
			<point x="221.461" y="1438.879"/>
			<point x="154.304" y="1506.035"/>
			<point x="71.461" y="1506.035" type="curve"/>
			<point x="33.308" y="1506.035"/>
			<point x="-1.517" y="1491.792"/>
			<point x="-27.988" y="1468.332" type="curve"/>
			<point x="-147.909" y="1363.262" type="line"/>
			<point x="-178.917" y="1335.782"/>
			<point x="-198.461" y="1295.656"/>
			<point x="-198.461" y="1250.965" type="curve"/>
			<point x="-198.461" y="1168.121"/>
			<point x="-131.304" y="1100.965"/>
			<point x="-48.461" y="1100.965" type="curve"/>
			<point x="-10.308" y="1100.965"/>
			<point x="24.517" y="1115.208"/>
		</contour>
	</outline>
</glyph>
<glyph name="uni031B" format="2">
	<advance width="0"/>
	<unicode hex="031B"/>
	<anchor x="-198" y="1251" name="_topright"/>
	<anchor x="173" y="1445" name="topright"/>
	<outline>
		<contour>
			<point x="51" y="1139" type="curve" smooth="yes"/>
			<point x="171" y="1244" type="line" smooth="yes"/>
			<point x="202" y="1271"/>
			<point x="221" y="1311"/>
			<point x="221" y="1356" type="curve" smooth="yes"/>
			<point x="221" y="1439"/>
			<point x="154" y="1506"/>
			<point x="71" y="1506" type="curve" smooth="yes"/>
			<point x="33" y="1506"/>
			<point x="-2" y="1492"/>
			<point x="-28" y="1468" type="curve" smooth="yes"/>
			<point x="-148" y="1363" type="line" smooth="yes"/>
			<point x="-179" y="1336"/>
			<point x="-198" y="1296"/>
			<point x="-198" y="1251" type="curve" smooth="yes"/>
			<point x="-198" y="1168"/>
			<point x="-131" y="1101"/>
			<point x="-48" y="1101" type="curve" smooth="yes"/>
			<point x="-10" y="1101"/>
			<point x="25" y="1115"/>
		</contour>
	</outline>
</glyph>
<glyph name="dotbelowcomb" format="2">
	<advance width="0"/>
	<unicode hex="0323"/>
	<outline>
		<contour>
			<point x="1" y="-334" type="curve" smooth="yes"/>
			<point x="67" y="-334"/>
			<point x="122" y="-279"/>
			<point x="122" y="-213" type="curve" smooth="yes"/>
			<point x="122" y="-146"/>
			<point x="66" y="-91"/>
			<point x="0" y="-91" type="curve" smooth="yes"/>
			<point x="-66" y="-91"/>
			<point x="-122" y="-146"/>
			<point x="-122" y="-213" type="curve" smooth="yes"/>
			<point x="-122" y="-279"/>
			<point x="-65" y="-334"/>
		</contour>
	</outline>
</glyph>
<glyph name="cedillacomb" format="2">
	<advance width="0"/>
	<unicode hex="0327"/>
	<anchor x="0" y="0" name="_bottom"/>
	<anchor x="0" y="-383" name="bottom"/>
	<outline>
		<contour>
			<point x="10" y="-389" type="curve" smooth="yes"/>
			<point x="54" y="-389"/>
			<point x="93" y="-359"/>
			<point x="105" y="-318" type="curve" smooth="yes"/>
			<point x="145" y="-199" type="line" smooth="yes"/>
			<point x="165" y="-135"/>
			<point x="116" y="-69"/>
			<point x="49" y="-69" type="curve" smooth="yes"/>
			<point x="5" y="-69"/>
			<point x="-34" y="-99"/>
			<point x="-46" y="-140" type="curve" smooth="yes"/>
			<point x="-86" y="-259" type="line" smooth="yes"/>
			<point x="-106" y="-323"/>
			<point x="-57" y="-389"/>
		</contour>
	</outline>
</glyph>
<glyph name="ogonekcomb" format="2">
	<advance width="0"/>
	<unicode hex="0328"/>
	<anchor x="0" y="0" name="_ogonek"/>
	<outline>
		<contour>
			<point x="-80" y="-309" type="curve" smooth="yes"/>
			<point x="-39" y="-309"/>
			<point x="-4" y="-284"/>
			<point x="12" y="-249" type="curve" smooth="yes"/>
			<point x="154" y="98" type="line" smooth="yes"/>
			<point x="179" y="156"/>
			<point x="142" y="238"/>
			<point x="62" y="238" type="curve" smooth="yes"/>
			<point x="21" y="238"/>
			<point x="-14" y="213"/>
			<point x="-30" y="178" type="curve" smooth="yes"/>
			<point x="-172" y="-169" type="line" smooth="yes"/>
			<point x="-197" y="-227"/>
			<point x="-160" y="-309"/>
		</contour>
	</outline>
</glyph>
